<svg width="68" height="68" viewBox="0 0 68 68" fill="none" xmlns="http://www.w3.org/2000/svg">
<path fill-rule="evenodd" clip-rule="evenodd" d="M21.2721 46.7279C22.0531 47.509 23.3195 47.509 24.1005 46.7279L46.0208 24.8076C46.8019 24.0266 46.8019 22.7602 46.0208 21.9792C45.2398 21.1981 43.9734 21.1981 43.1924 21.9792L21.2721 43.8995C20.491 44.6806 20.491 45.9469 21.2721 46.7279Z" fill="black"/>
<path fill-rule="evenodd" clip-rule="evenodd" d="M25.636 21.9792C25.636 23.0838 26.5315 23.9792 27.636 23.9792L44.0208 23.9792L44.0208 40.364C44.0208 41.4686 44.9162 42.364 46.0208 42.364C47.1254 42.364 48.0208 41.4686 48.0208 40.364L48.0208 23.9792C48.0208 21.7701 46.2299 19.9792 44.0208 19.9792L27.636 19.9792C26.5315 19.9792 25.636 20.8747 25.636 21.9792Z" fill="black"/>
</svg>
