<svg width="64" height="64" viewBox="0 0 64 64" fill="none" xmlns="http://www.w3.org/2000/svg">
<path fill-rule="evenodd" clip-rule="evenodd" d="M8 31.9993C8 30.5266 9.19391 29.3327 10.6667 29.3327L52 29.3327C53.4728 29.3327 54.6667 30.5266 54.6667 31.9993C54.6667 33.4721 53.4728 34.666 52 34.666L10.6667 34.666C9.19391 34.666 8 33.4721 8 31.9993Z" fill="black"/>
<path fill-rule="evenodd" clip-rule="evenodd" d="M35.4476 51.219C34.4062 50.1776 34.4062 48.4891 35.4476 47.4477L50.8953 32L35.4476 16.5523C34.4062 15.5109 34.4062 13.8224 35.4476 12.781C36.489 11.7396 38.1774 11.7396 39.2188 12.781L54.6665 28.2288C56.7493 30.3116 56.7493 33.6884 54.6665 35.7712L39.2188 51.219C38.1774 52.2603 36.489 52.2603 35.4476 51.219Z" fill="black"/>
</svg>
