<svg width="159" height="131" viewBox="0 0 159 131" fill="none" xmlns="http://www.w3.org/2000/svg">
<path d="M139.472 69.1938C150.107 69.1938 158.728 60.6026 158.728 50.0049C158.728 39.4071 150.107 30.8159 139.472 30.8159C128.838 30.8159 120.217 39.4071 120.217 50.0049C120.217 60.6026 128.838 69.1938 139.472 69.1938Z" fill="#C46217"/>
<path d="M19.2553 69.1938C29.8897 69.1938 38.5105 60.6026 38.5105 50.0049C38.5105 39.4071 29.8897 30.8159 19.2553 30.8159C8.62088 30.8159 0 39.4071 0 50.0049C0 60.6026 8.62088 69.1938 19.2553 69.1938Z" fill="#C46217"/>
<path d="M79.3638 130.703C89.9982 130.703 98.619 122.112 98.619 111.514C98.619 100.916 89.9982 92.3251 79.3638 92.3251C68.7294 92.3251 60.1085 100.916 60.1085 111.514C60.1085 122.112 68.7294 130.703 79.3638 130.703Z" fill="#C46217"/>
<path d="M48.5517 38.3779C59.1861 38.3779 67.807 29.7867 67.807 19.189C67.807 8.59119 59.1861 0 48.5517 0C37.9174 0 29.2965 8.59119 29.2965 19.189C29.2965 29.7867 37.9174 38.3779 48.5517 38.3779Z" fill="#C46217"/>
<path d="M110.173 38.3779C120.808 38.3779 129.428 29.7867 129.428 19.189C129.428 8.59119 120.808 0 110.173 0C99.5388 0 90.918 8.59119 90.918 19.189C90.918 29.7867 99.5388 38.3779 110.173 38.3779Z" fill="#C46217"/>
<path d="M79.3638 69.1938C89.9982 69.1938 98.619 60.6026 98.619 50.0049C98.619 39.4071 89.9982 30.8159 79.3638 30.8159C68.7294 30.8159 60.1085 39.4071 60.1085 50.0049C60.1085 60.6026 68.7294 69.1938 79.3638 69.1938Z" fill="#C46217"/>
<path d="M49.2273 99.7667C59.8617 99.7667 68.4825 91.1755 68.4825 80.5778C68.4825 69.98 59.8617 61.3888 49.2273 61.3888C38.5929 61.3888 29.972 69.98 29.972 80.5778C29.972 91.1755 38.5929 99.7667 49.2273 99.7667Z" fill="#C46217"/>
<path d="M109.498 99.7667C120.132 99.7667 128.753 91.1755 128.753 80.5778C128.753 69.98 120.132 61.3888 109.498 61.3888C98.8632 61.3888 90.2424 69.98 90.2424 80.5778C90.2424 91.1755 98.8632 99.7667 109.498 99.7667Z" fill="#C46217"/>
</svg>
