<svg width="140" height="60" viewBox="0 0 140 60" fill="none" xmlns="http://www.w3.org/2000/svg">
<rect x="0.5" width="139" height="60" rx="30" fill="black"/>
<path fill-rule="evenodd" clip-rule="evenodd" d="M25.0151 20.4042C25.4056 20.0137 26.0388 20.0137 26.4293 20.4042L28.5 22.4749L30.5707 20.4042C30.9612 20.0137 31.5944 20.0137 31.9849 20.4042C32.3754 20.7947 32.3754 21.4279 31.9849 21.8184L29.2071 24.5962C28.8166 24.9867 28.1834 24.9867 27.7929 24.5962L25.0151 21.8184C24.6246 21.4279 24.6246 20.7947 25.0151 20.4042ZM21.9321 22.1842C22.4655 22.0413 23.0139 22.3579 23.1568 22.8914L24.1736 26.6859C24.2422 26.942 24.2063 27.215 24.0737 27.4447C23.9411 27.6744 23.7226 27.842 23.4665 27.9106L19.6719 28.9274C19.1385 29.0703 18.5901 28.7537 18.4472 28.2202C18.3043 27.6868 18.6208 27.1384 19.1543 26.9955L21.9829 26.2376L21.225 23.409C21.082 22.8755 21.3986 22.3272 21.9321 22.1842ZM35.0679 22.1842C35.6014 22.3272 35.918 22.8755 35.775 23.409L35.0171 26.2376L37.8457 26.9955C38.3792 27.1384 38.6958 27.6868 38.5528 28.2202C38.4099 28.7537 37.8615 29.0703 37.3281 28.9274L33.5336 27.9106C33.0001 27.7677 32.6835 27.2193 32.8264 26.6859L33.8432 22.8914C33.9861 22.3579 34.5345 22.0413 35.0679 22.1842ZM18.4472 31.7802C18.5901 31.2468 19.1384 30.9302 19.6719 31.0731L23.4664 32.0899C23.9999 32.2328 24.3165 32.7812 24.1735 33.3146L23.1568 37.1091C23.0139 37.6426 22.4655 37.9592 21.932 37.8162C21.3986 37.6733 21.082 37.125 21.2249 36.5915L21.9829 33.7629L19.1543 33.005C18.6208 32.862 18.3042 32.3137 18.4472 31.7802ZM38.5528 31.7802C38.6958 32.3137 38.3792 32.862 37.8457 33.005L35.0171 33.7629L35.775 36.5915C35.918 37.125 35.6014 37.6733 35.0679 37.8162C34.5345 37.9592 33.9861 37.6426 33.8432 37.1091L32.8264 33.3146C32.6835 32.7812 33.0001 32.2328 33.5335 32.0899L37.3281 31.0731C37.8615 30.9302 38.4099 31.2468 38.5528 31.7802ZM28.5 37.5255L26.4293 39.5962C26.0388 39.9867 25.4056 39.9867 25.0151 39.5962C24.6246 39.2057 24.6246 38.5725 25.0151 38.182L27.7929 35.4042C28.1834 35.0137 28.8166 35.0137 29.2071 35.4042L31.9849 38.182C32.3754 38.5725 32.3754 39.2057 31.9849 39.5962C31.5944 39.9867 30.9612 39.9867 30.5707 39.5962L28.5 37.5255Z" fill="#EDEDED"/>
<path fill-rule="evenodd" clip-rule="evenodd" d="M28.5 22.8887C29.0523 22.8887 29.5 23.3364 29.5 23.8887V28.2678L33.2924 26.0782C33.7707 25.8021 34.3823 25.966 34.6584 26.4443C34.9346 26.9226 34.7707 27.5341 34.2924 27.8103L30.5 29.9998L34.2924 32.1893C34.7707 32.4655 34.9346 33.0771 34.6584 33.5554C34.3823 34.0337 33.7707 34.1975 33.2924 33.9214L29.5 31.7319V36.1109C29.5 36.6632 29.0523 37.1109 28.5 37.1109C27.9477 37.1109 27.5 36.6632 27.5 36.1109V31.7319L23.7076 33.9214C23.2293 34.1975 22.6177 34.0337 22.3416 33.5554C22.0655 33.0771 22.2293 32.4655 22.7076 32.1893L26.5 29.9998L22.7077 27.8103C22.2294 27.5341 22.0655 26.9226 22.3416 26.4443C22.6178 25.966 23.2294 25.8021 23.7077 26.0782L27.5 28.2678V23.8887C27.5 23.3364 27.9477 22.8887 28.5 22.8887Z" fill="#BBBBBB"/>
<path d="M52.46 34.2H60.36V36H50.5V22H60.16V23.8H52.46V28.04H59.74V29.82H52.46V34.2ZM71.8812 36H69.7613L67.0213 32.04L64.2812 36H62.1613L65.7813 30.8L62.3613 25.86H64.4613L67.0213 29.62L69.5813 25.86H71.6813L68.2613 30.8L71.8812 36ZM84.29 30.94C84.29 34.06 82.29 36.28 79.53 36.28C77.85 36.28 76.43 35.48 75.85 34.2V40H73.97V25.86H75.85V27.66C76.43 26.38 77.85 25.58 79.53 25.58C82.29 25.58 84.29 27.8 84.29 30.94ZM82.35 30.94C82.35 29.88 82.05 29 81.43 28.34C80.83 27.66 80.03 27.32 79.05 27.32C77.07 27.32 75.77 28.8 75.77 30.94C75.77 32 76.07 32.86 76.67 33.54C77.27 34.2 78.07 34.54 79.05 34.54C80.03 34.54 80.83 34.2 81.43 33.54C82.05 32.86 82.35 32 82.35 30.94ZM87.0559 36V21.36H88.9359V36H87.0559ZM91.6684 30.94C91.6684 28.02 93.7684 25.58 96.9284 25.58C100.048 25.58 102.168 28.02 102.168 30.94C102.168 33.88 100.048 36.28 96.9284 36.28C93.7684 36.28 91.6684 33.88 91.6684 30.94ZM100.208 30.94C100.208 28.8 98.9084 27.32 96.9284 27.32C95.9484 27.32 95.1484 27.66 94.5284 28.34C93.9284 29 93.6284 29.88 93.6284 30.94C93.6284 32 93.9284 32.86 94.5284 33.54C95.1484 34.2 95.9484 34.54 96.9284 34.54C97.9084 34.54 98.7084 34.2 99.3084 33.54C99.9084 32.86 100.208 32 100.208 30.94ZM110.748 25.84V27.54C110.468 27.48 110.148 27.46 109.808 27.46C107.868 27.46 106.788 28.56 106.788 30.86V36H104.908V25.86H106.788V27.68C107.268 26.42 108.388 25.7 109.848 25.7C110.188 25.7 110.488 25.74 110.748 25.84ZM121.744 31.5H113.784C114.004 33.44 115.264 34.58 117.164 34.58C118.424 34.58 119.484 34.08 120.304 33.08L121.524 34.16C120.544 35.52 118.984 36.28 117.124 36.28C114.004 36.28 111.864 34.1 111.864 30.96C111.864 27.86 113.984 25.58 116.964 25.58C119.784 25.58 121.804 27.62 121.804 30.6C121.804 30.9 121.784 31.2 121.744 31.5ZM113.824 30.06H119.904C119.744 28.3 118.624 27.3 116.964 27.3C115.264 27.3 114.124 28.32 113.824 30.06Z" fill="white"/>
</svg>
