<svg width="491" height="361" viewBox="0 0 491 361" fill="none" xmlns="http://www.w3.org/2000/svg">
<path d="M208.214 308.577L221.406 304.657L234.776 308.577L220.781 276.971L208.214 308.577Z" fill="#FC9D61"/>
<rect x="177.5" y="320.971" width="91" height="40" fill="#FC9D61"/>
<rect x="177.5" y="320.971" width="91" height="40" stroke="black"/>
<path d="M199.074 342.569C199.074 344.639 197.544 345.971 195.078 345.971H189.3V333.371H194.646C197.076 333.371 198.606 334.667 198.606 336.629C198.606 338.015 197.85 339.023 196.482 339.473C198.138 339.851 199.074 340.931 199.074 342.569ZM194.52 334.955H191.064V338.753H194.52C196.032 338.753 196.806 338.069 196.806 336.845C196.806 335.621 196.032 334.955 194.52 334.955ZM197.238 342.353C197.238 341.057 196.464 340.319 194.952 340.319H191.064V344.387H194.952C196.464 344.387 197.238 343.649 197.238 342.353ZM201.074 341.417C201.074 338.789 202.964 336.593 205.808 336.593C208.616 336.593 210.524 338.789 210.524 341.417C210.524 344.063 208.616 346.223 205.808 346.223C202.964 346.223 201.074 344.063 201.074 341.417ZM208.76 341.417C208.76 339.491 207.59 338.159 205.808 338.159C204.926 338.159 204.206 338.465 203.648 339.077C203.108 339.671 202.838 340.463 202.838 341.417C202.838 342.371 203.108 343.145 203.648 343.757C204.206 344.351 204.926 344.657 205.808 344.657C206.69 344.657 207.41 344.351 207.95 343.757C208.49 343.145 208.76 342.371 208.76 341.417ZM212.989 345.971V332.795H214.681V345.971H212.989ZM224.755 336.845H226.447V345.971H224.755V344.351C224.233 345.503 222.955 346.223 221.461 346.223C218.977 346.223 217.141 344.225 217.141 341.417C217.141 338.591 218.977 336.593 221.461 336.593C222.955 336.593 224.233 337.313 224.755 338.465V336.845ZM224.827 341.417C224.827 339.491 223.657 338.159 221.875 338.159C220.993 338.159 220.273 338.465 219.715 339.077C219.175 339.671 218.905 340.463 218.905 341.417C218.905 342.371 219.175 343.145 219.715 343.757C220.273 344.351 220.993 344.657 221.875 344.657C222.757 344.657 223.477 344.351 224.017 343.757C224.557 343.145 224.827 342.371 224.827 341.417ZM230.25 343.541V338.303H228.45V336.845H230.25V334.145H231.942V336.845H234.732V338.303H231.942V343.379C231.942 344.261 232.356 344.621 233.364 344.621C233.778 344.621 234.246 344.567 234.768 344.459V345.881C234.246 346.043 233.688 346.115 233.094 346.115C231.204 346.115 230.25 345.251 230.25 343.541ZM243.792 336.845H245.484V345.971H243.792V344.351C243.27 345.503 241.992 346.223 240.498 346.223C238.014 346.223 236.178 344.225 236.178 341.417C236.178 338.591 238.014 336.593 240.498 336.593C241.992 336.593 243.27 337.313 243.792 338.465V336.845ZM243.864 341.417C243.864 339.491 242.694 338.159 240.912 338.159C240.03 338.159 239.31 338.465 238.752 339.077C238.212 339.671 237.942 340.463 237.942 341.417C237.942 342.371 238.212 343.145 238.752 343.757C239.31 344.351 240.03 344.657 240.912 344.657C241.794 344.657 242.514 344.351 243.054 343.757C243.594 343.145 243.864 342.371 243.864 341.417ZM256.631 340.103V345.971H254.939V340.517C254.939 338.879 254.309 338.159 252.941 338.159C251.375 338.159 250.277 339.095 250.277 340.589V345.971H248.585V336.845H250.277V338.339C250.799 337.241 251.951 336.593 253.391 336.593C255.425 336.593 256.631 337.871 256.631 340.103Z" fill="black"/>
<path d="M301.933 189.204C316.606 189.204 328.5 177.504 328.5 163.071C328.5 148.638 316.606 136.938 301.933 136.938C287.261 136.938 275.366 148.638 275.366 163.071C275.366 177.504 287.261 189.204 301.933 189.204Z" fill="#C46217"/>
<path d="M136.067 189.204C150.739 189.204 162.634 177.504 162.634 163.071C162.634 148.638 150.739 136.938 136.067 136.938C121.394 136.938 109.5 148.638 109.5 163.071C109.5 177.504 121.394 189.204 136.067 189.204Z" fill="#C46217"/>
<path d="M219 272.971C233.673 272.971 245.567 261.271 245.567 246.838C245.567 232.406 233.673 220.706 219 220.706C204.328 220.706 192.433 232.406 192.433 246.838C192.433 261.271 204.328 272.971 219 272.971Z" fill="#C46217"/>
<path d="M176.488 147.237C191.16 147.237 203.055 135.537 203.055 121.104C203.055 106.671 191.16 94.9712 176.488 94.9712C161.815 94.9712 149.921 106.671 149.921 121.104C149.921 135.537 161.815 147.237 176.488 147.237Z" fill="#C46217"/>
<path d="M261.509 147.237C276.181 147.237 288.075 135.537 288.075 121.104C288.075 106.671 276.181 94.9712 261.509 94.9712C246.836 94.9712 234.942 106.671 234.942 121.104C234.942 135.537 246.836 147.237 261.509 147.237Z" fill="#C46217"/>
<path d="M219 189.204C233.673 189.204 245.567 177.504 245.567 163.071C245.567 148.638 233.673 136.938 219 136.938C204.328 136.938 192.433 148.638 192.433 163.071C192.433 177.504 204.328 189.204 219 189.204Z" fill="#C46217"/>
<path d="M177.42 230.84C192.092 230.84 203.987 219.14 203.987 204.707C203.987 190.275 192.092 178.575 177.42 178.575C162.747 178.575 150.853 190.275 150.853 204.707C150.853 219.14 162.747 230.84 177.42 230.84Z" fill="#C46217"/>
<path d="M260.576 230.84C275.249 230.84 287.143 219.14 287.143 204.707C287.143 190.275 275.249 178.575 260.576 178.575C245.904 178.575 234.01 190.275 234.01 204.707C234.01 219.14 245.904 230.84 260.576 230.84Z" fill="#C46217"/>
<path d="M293.925 254.65L302.605 243.969L315.854 239.66L286.464 221.466L293.925 254.65Z" fill="#FC9D61"/>
<rect x="315.854" y="252.971" width="95" height="40" fill="#FC9D61"/>
<rect x="315.854" y="252.971" width="95" height="40" stroke="black"/>
<path d="M336.528 277.971L335.232 274.659H329.346L328.05 277.971H326.214L331.308 265.371H333.288L338.364 277.971H336.528ZM329.958 273.093H334.62L332.298 267.099L329.958 273.093ZM349.574 273.417C349.574 276.225 347.774 278.223 345.29 278.223C343.778 278.223 342.5 277.503 341.978 276.351V277.971H340.286V264.795H341.978V270.465C342.5 269.313 343.778 268.593 345.29 268.593C347.774 268.593 349.574 270.591 349.574 273.417ZM347.828 273.417C347.828 272.463 347.558 271.671 347 271.077C346.46 270.465 345.74 270.159 344.858 270.159C343.076 270.159 341.906 271.491 341.906 273.417C341.906 274.371 342.176 275.145 342.716 275.757C343.256 276.351 343.976 276.657 344.858 276.657C345.74 276.657 346.46 276.351 347 275.757C347.558 275.145 347.828 274.371 347.828 273.417ZM351.794 265.911C351.794 265.263 352.262 264.777 352.928 264.777C353.594 264.777 354.062 265.263 354.062 265.911C354.062 266.559 353.594 267.045 352.928 267.045C352.262 267.045 351.794 266.559 351.794 265.911ZM352.082 277.971V268.845H353.774V277.971H352.082ZM356.25 273.417C356.25 270.789 358.14 268.593 360.984 268.593C363.792 268.593 365.7 270.789 365.7 273.417C365.7 276.063 363.792 278.223 360.984 278.223C358.14 278.223 356.25 276.063 356.25 273.417ZM363.936 273.417C363.936 271.491 362.766 270.159 360.984 270.159C360.102 270.159 359.382 270.465 358.824 271.077C358.284 271.671 358.014 272.463 358.014 273.417C358.014 274.371 358.284 275.145 358.824 275.757C359.382 276.351 360.102 276.657 360.984 276.657C361.866 276.657 362.586 276.351 363.126 275.757C363.666 275.145 363.936 274.371 363.936 273.417ZM375.149 264.795H376.841V277.971H375.149V276.351C374.627 277.503 373.331 278.223 371.837 278.223C369.371 278.223 367.535 276.225 367.535 273.417C367.535 270.591 369.371 268.593 371.837 268.593C373.331 268.593 374.627 269.313 375.149 270.465V264.795ZM375.221 273.417C375.221 271.491 374.051 270.159 372.269 270.159C371.387 270.159 370.667 270.465 370.109 271.077C369.569 271.671 369.299 272.463 369.299 273.417C369.299 274.371 369.569 275.145 370.109 275.757C370.667 276.351 371.387 276.657 372.269 276.657C373.151 276.657 373.871 276.351 374.411 275.757C374.951 275.145 375.221 274.371 375.221 273.417ZM379.763 274.551V268.845H381.455V274.425C381.455 275.883 382.283 276.657 383.741 276.657C385.199 276.657 386.027 275.883 386.027 274.425V268.845H387.719V274.551C387.719 275.667 387.359 276.567 386.639 277.233C385.919 277.899 384.947 278.223 383.741 278.223C381.365 278.223 379.763 276.747 379.763 274.551ZM398.694 272.103V277.971H397.002V272.517C397.002 270.879 396.372 270.159 395.004 270.159C393.438 270.159 392.34 271.095 392.34 272.589V277.971H390.648V268.845H392.34V270.339C392.862 269.241 394.014 268.593 395.454 268.593C397.488 268.593 398.694 269.871 398.694 272.103Z" fill="black"/>
<path d="M159.573 271.65L150.894 260.969L137.645 256.66L167.034 238.466L159.573 271.65Z" fill="#FC9D61"/>
<rect width="94" height="40" transform="matrix(-1 0 0 1 141.5 271.65)" fill="#FC9D61"/>
<rect width="94" height="40" transform="matrix(-1 0 0 1 141.5 271.65)" stroke="black"/>
<path d="M58.598 290.35C58.526 286.714 61.298 283.744 64.97 283.798C67.4 283.798 69.434 284.932 70.496 287.074L69.02 287.902C68.174 286.264 66.806 285.454 65.078 285.454C62.324 285.454 60.452 287.524 60.452 290.35C60.452 293.176 62.324 295.246 65.078 295.246C66.806 295.246 68.192 294.436 69.038 292.798L70.496 293.626C69.434 295.768 67.4 296.902 64.97 296.902C61.28 296.956 58.544 294.04 58.598 290.35ZM80.717 290.782V296.65H79.025V291.196C79.025 289.558 78.395 288.838 77.027 288.838C75.461 288.838 74.363 289.774 74.363 291.268V296.65H72.671V283.474H74.363V289.018C74.885 287.92 76.037 287.272 77.477 287.272C79.511 287.272 80.717 288.55 80.717 290.782ZM83.4753 284.59C83.4753 283.942 83.9433 283.456 84.6093 283.456C85.2753 283.456 85.7433 283.942 85.7433 284.59C85.7433 285.238 85.2753 285.724 84.6093 285.724C83.9433 285.724 83.4753 285.238 83.4753 284.59ZM83.7633 296.65V287.524H85.4553V296.65H83.7633ZM96.6077 290.782V296.65H94.9157V291.196C94.9157 289.558 94.2857 288.838 92.9177 288.838C91.3517 288.838 90.2537 289.774 90.2537 291.268V296.65H88.5617V287.524H90.2537V289.018C90.7757 287.92 91.9277 287.272 93.3677 287.272C95.4017 287.272 96.6077 288.55 96.6077 290.782ZM107.898 292.6H100.734C100.932 294.346 102.066 295.372 103.776 295.372C104.91 295.372 105.864 294.922 106.602 294.022L107.7 294.994C106.818 296.218 105.414 296.902 103.74 296.902C100.932 296.902 99.0059 294.94 99.0059 292.114C99.0059 289.324 100.914 287.272 103.596 287.272C106.134 287.272 107.952 289.108 107.952 291.79C107.952 292.06 107.934 292.33 107.898 292.6ZM100.77 291.304H106.242C106.098 289.72 105.09 288.82 103.596 288.82C102.066 288.82 101.04 289.738 100.77 291.304ZM117.378 283.474H119.07V296.65H117.378V295.03C116.856 296.182 115.56 296.902 114.066 296.902C111.6 296.902 109.764 294.904 109.764 292.096C109.764 289.27 111.6 287.272 114.066 287.272C115.56 287.272 116.856 287.992 117.378 289.144V283.474ZM117.45 292.096C117.45 290.17 116.28 288.838 114.498 288.838C113.616 288.838 112.896 289.144 112.338 289.756C111.798 290.35 111.528 291.142 111.528 292.096C111.528 293.05 111.798 293.824 112.338 294.436C112.896 295.03 113.616 295.336 114.498 295.336C115.38 295.336 116.1 295.03 116.64 294.436C117.18 293.824 117.45 293.05 117.45 292.096ZM121.991 293.23V287.524H123.683V293.104C123.683 294.562 124.511 295.336 125.969 295.336C127.427 295.336 128.255 294.562 128.255 293.104V287.524H129.947V293.23C129.947 294.346 129.587 295.246 128.867 295.912C128.147 296.578 127.175 296.902 125.969 296.902C123.593 296.902 121.991 295.426 121.991 293.23Z" fill="black"/>
<path d="M104.573 212.65L95.8935 201.969L82.6445 197.66L112.034 179.466L104.573 212.65Z" fill="#FC9D61"/>
<rect width="79" height="40" transform="matrix(-1 0 0 1 79 212.65)" fill="#FC9D61"/>
<rect width="79" height="40" transform="matrix(-1 0 0 1 79 212.65)" stroke="black"/>
<path d="M20.8877 226.67H13.9937V230.576H20.5277V232.214H13.9937V237.65H12.2297V225.05H20.8877V226.67ZM22.6153 233.096C22.6153 230.468 24.5053 228.272 27.3493 228.272C30.1573 228.272 32.0653 230.468 32.0653 233.096C32.0653 235.742 30.1573 237.902 27.3493 237.902C24.5053 237.902 22.6153 235.742 22.6153 233.096ZM30.3013 233.096C30.3013 231.17 29.1313 229.838 27.3493 229.838C26.4673 229.838 25.7473 230.144 25.1893 230.756C24.6493 231.35 24.3793 232.142 24.3793 233.096C24.3793 234.05 24.6493 234.824 25.1893 235.436C25.7473 236.03 26.4673 236.336 27.3493 236.336C28.2313 236.336 28.9513 236.03 29.4913 235.436C30.0313 234.824 30.3013 234.05 30.3013 233.096ZM34.5304 237.65V224.474H36.2224V237.65H34.5304ZM39.1317 234.23V228.524H40.8237V234.104C40.8237 235.562 41.6517 236.336 43.1097 236.336C44.5677 236.336 45.3957 235.562 45.3957 234.104V228.524H47.0877V234.23C47.0877 235.346 46.7277 236.246 46.0077 236.912C45.2877 237.578 44.3157 237.902 43.1097 237.902C40.7337 237.902 39.1317 236.426 39.1317 234.23ZM49.1888 235.976L50.3048 235.022C50.9708 235.94 52.0328 236.408 53.2748 236.408C54.4988 236.408 55.2368 235.904 55.2368 235.13C55.2368 234.536 54.8048 234.14 53.7248 233.906L52.2668 233.582C50.3948 233.132 49.5128 232.322 49.5128 231.026C49.5128 229.388 50.8988 228.272 53.1308 228.272C54.7328 228.272 56.0108 228.848 56.7848 229.802L55.7048 230.828C55.0388 230.126 54.1568 229.784 53.0588 229.784C51.8348 229.784 51.2048 230.234 51.2048 230.972C51.2048 231.53 51.5828 231.854 52.7348 232.124L54.3368 232.484C56.1548 232.898 56.9288 233.708 56.9288 235.004C56.9288 236.786 55.5788 237.902 53.2748 237.902C51.4208 237.902 49.9088 237.146 49.1888 235.976ZM58.6328 233.096C58.6328 230.468 60.5228 228.272 63.3668 228.272C66.1748 228.272 68.0828 230.468 68.0828 233.096C68.0828 235.742 66.1748 237.902 63.3668 237.902C60.5228 237.902 58.6328 235.742 58.6328 233.096ZM66.3188 233.096C66.3188 231.17 65.1488 229.838 63.3668 229.838C62.4848 229.838 61.7648 230.144 61.2068 230.756C60.6668 231.35 60.3968 232.142 60.3968 233.096C60.3968 234.05 60.6668 234.824 61.2068 235.436C61.7648 236.03 62.4848 236.336 63.3668 236.336C64.2488 236.336 64.9688 236.03 65.5088 235.436C66.0488 234.824 66.3188 234.05 66.3188 233.096Z" fill="black"/>
<path d="M124.226 137.481L123.181 123.759L114.749 112.667L149.268 114.465L124.226 137.481Z" fill="#FC9D61"/>
<rect width="90" height="40" transform="matrix(-0.821728 -0.56988 -0.56988 0.821728 107.731 126.042)" fill="#FC9D61"/>
<rect width="90" height="40" transform="matrix(-0.821728 -0.56988 -0.56988 0.821728 107.731 126.042)" stroke="black"/>
<path d="M31.6981 101.742L37.1116 105.497L36.1782 106.843L29.3151 102.083L36.4956 91.7291L37.9451 92.7344L31.6981 101.742ZM39.5324 105.007L42.7842 100.318L44.1745 101.282L40.9946 105.867C40.1637 107.066 40.403 108.173 41.6011 109.004C42.7992 109.835 43.9207 109.671 44.7515 108.473L47.9315 103.888L49.3218 104.852L46.0701 109.541C45.4341 110.458 44.6254 110.992 43.6542 111.129C42.683 111.266 41.6997 110.978 40.7087 110.291C38.7562 108.937 38.281 106.811 39.5324 105.007ZM46.8016 112.173L48.2623 112.025C48.2864 113.159 48.8924 114.149 49.913 114.856C50.9188 115.554 51.8124 115.56 52.2535 114.924C52.592 114.436 52.4627 113.865 51.7086 113.057L50.6952 111.96C49.4133 110.523 49.1502 109.355 49.8888 108.29C50.8222 106.944 52.5971 106.817 54.4312 108.089C55.7476 109.002 56.4695 110.203 56.5619 111.428L55.0897 111.656C54.9425 110.7 54.4126 109.916 53.5104 109.29C52.5046 108.593 51.7305 108.603 51.3099 109.21C50.9919 109.668 51.1179 110.15 51.9106 111.028L53.0219 112.237C54.2799 113.613 54.4543 114.72 53.7157 115.785C52.7002 117.249 50.9549 117.397 49.0616 116.084C47.5381 115.027 46.7265 113.545 46.8016 112.173ZM60.7767 109.226C61.146 108.693 61.8075 108.56 62.3548 108.94C62.902 109.319 63.0096 109.986 62.6404 110.518C62.2711 111.051 61.6095 111.183 61.0623 110.804C60.515 110.424 60.4074 109.758 60.7767 109.226ZM54.1406 119.3L59.3413 111.801L60.7317 112.765L55.5309 120.264L54.1406 119.3ZM69.0232 118.515L70.4136 119.479L65.2129 126.979L63.8225 126.014L64.7457 124.683C63.6603 125.332 62.1998 125.196 60.9721 124.344C58.931 122.929 58.5609 120.24 60.1611 117.933C61.7716 115.611 64.4189 115.015 66.4601 116.431C67.6877 117.282 68.3276 118.602 68.1 119.846L69.0232 118.515ZM66.4769 122.313C67.5745 120.731 67.3722 118.969 65.9078 117.954C65.1831 117.451 64.417 117.292 63.6098 117.477C62.8275 117.657 62.1543 118.154 61.6106 118.938C61.067 119.722 60.8477 120.512 60.9427 121.323C61.0627 122.129 61.48 122.791 62.2048 123.293C62.9295 123.796 63.6955 123.955 64.4778 123.774C65.2703 123.579 65.9332 123.097 66.4769 122.313ZM77.717 128.509L74.373 133.331L72.9826 132.367L76.0907 127.885C77.0242 126.539 76.9168 125.589 75.7927 124.809C74.5059 123.917 73.0702 124.06 72.2188 125.288L69.1517 129.71L67.7613 128.746L72.9621 121.247L74.3524 122.211L73.501 123.439C74.5557 122.834 75.8716 122.958 77.0549 123.779C78.7263 124.938 78.989 126.675 77.717 128.509ZM87.801 131.538L89.1914 132.502L83.9906 140.001L82.6003 139.037L83.5235 137.706C82.438 138.355 80.9776 138.218 79.7499 137.367C77.7087 135.951 77.3386 133.263 78.9389 130.956C80.5494 128.634 83.1967 128.038 85.2378 129.454C86.4655 130.305 87.1054 131.625 86.8778 132.869L87.801 131.538ZM85.2547 135.336C86.3523 133.753 86.1499 131.992 84.6856 130.976C83.9608 130.474 83.1948 130.315 82.3875 130.5C81.6053 130.68 80.9321 131.177 80.3884 131.961C79.8447 132.745 79.6255 133.535 79.7205 134.345C79.8405 135.152 80.2578 135.813 80.9825 136.316C81.7073 136.819 82.4733 136.977 83.2556 136.797C84.0481 136.602 84.711 136.12 85.2547 135.336Z" fill="black"/>
<path d="M208.277 91.6486L221.133 96.5585L234.762 93.6659L218.407 124.117L208.277 91.6486Z" fill="#FC9D61"/>
<rect width="84" height="40" transform="matrix(-1 -1.11224e-07 -1.11224e-07 1 262.321 36.9711)" fill="#FC9D61"/>
<rect width="84" height="40" transform="matrix(-1 -1.11224e-07 -1.11224e-07 1 262.321 36.9711)" stroke="black"/>
<path d="M199.427 50.9911L192.533 50.9911L192.533 54.8971L199.067 54.8971L199.067 56.5351L192.533 56.5351L192.533 61.9711L190.769 61.9711L190.769 49.3711L199.427 49.3711L199.427 50.9911ZM207.216 52.8271L207.216 54.3571C206.964 54.3031 206.676 54.2851 206.37 54.2851C204.624 54.2851 203.652 55.2751 203.652 57.3451L203.652 61.9711L201.96 61.9711L201.96 52.8451L203.652 52.8451L203.652 54.4831C204.084 53.3491 205.092 52.7011 206.406 52.7011C206.712 52.7011 206.982 52.7371 207.216 52.8271ZM217.113 57.9211L209.949 57.9211C210.147 59.6671 211.281 60.6931 212.991 60.6931C214.125 60.6931 215.079 60.2431 215.817 59.3431L216.915 60.3151C216.033 61.5391 214.629 62.2231 212.955 62.2231C210.147 62.2231 208.221 60.2611 208.221 57.4351C208.221 54.6451 210.129 52.5931 212.811 52.5931C215.349 52.5931 217.167 54.4291 217.167 57.1111C217.167 57.3811 217.149 57.6511 217.113 57.9211ZM209.985 56.6251L215.457 56.6251C215.313 55.0411 214.305 54.1411 212.811 54.1411C211.281 54.1411 210.255 55.0591 209.985 56.6251ZM226.593 48.7951L228.285 48.7951L228.285 61.9711L226.593 61.9711L226.593 60.3511C226.071 61.5031 224.775 62.2231 223.281 62.2231C220.815 62.2231 218.979 60.2251 218.979 57.4171C218.979 54.5911 220.815 52.5931 223.281 52.5931C224.775 52.5931 226.071 53.3131 226.593 54.4651L226.593 48.7951ZM226.665 57.4171C226.665 55.4911 225.495 54.1591 223.713 54.1591C222.831 54.1591 222.111 54.4651 221.553 55.0771C221.013 55.6711 220.743 56.4631 220.743 57.4171C220.743 58.3711 221.013 59.1451 221.553 59.7571C222.111 60.3511 222.831 60.6571 223.713 60.6571C224.595 60.6571 225.315 60.3511 225.855 59.7571C226.395 59.1451 226.665 58.3711 226.665 57.4171ZM231.206 58.5511L231.206 52.8451L232.898 52.8451L232.898 58.4251C232.898 59.8831 233.726 60.6571 235.184 60.6571C236.642 60.6571 237.47 59.8831 237.47 58.4251L237.47 52.8451L239.162 52.8451L239.162 58.5511C239.162 59.6671 238.802 60.5671 238.082 61.2331C237.362 61.8991 236.39 62.2231 235.184 62.2231C232.808 62.2231 231.206 60.7471 231.206 58.5511ZM249.075 52.8451L250.767 52.8451L250.767 61.9711L249.075 61.9711L249.075 60.3511C248.553 61.5031 247.275 62.2231 245.781 62.2231C243.297 62.2231 241.461 60.2251 241.461 57.4171C241.461 54.5911 243.297 52.5931 245.781 52.5931C247.275 52.5931 248.553 53.3131 249.075 54.4651L249.075 52.8451ZM249.147 57.4171C249.147 55.4911 247.977 54.1591 246.195 54.1591C245.313 54.1591 244.593 54.4651 244.035 55.0771C243.495 55.6711 243.225 56.4631 243.225 57.4171C243.225 58.3711 243.495 59.1451 244.035 59.7571C244.593 60.3511 245.313 60.6571 246.195 60.6571C247.077 60.6571 247.797 60.3511 248.337 59.7571C248.877 59.1451 249.147 58.3711 249.147 57.4171Z" fill="black"/>
<path d="M357.002 198.471L358.524 184.794L367.336 174.002L332.776 174.598L357.002 198.471Z" fill="#FC9D61"/>
<rect x="367.336" y="194.586" width="121" height="40" transform="rotate(-32.7486 367.336 194.586)" fill="#FC9D61"/>
<rect x="367.336" y="194.586" width="121" height="40" transform="rotate(-32.7486 367.336 194.586)" stroke="black"/>
<path d="M386.786 204.31C384.793 201.311 385.513 197.274 388.676 195.303C391.781 193.242 395.769 194.252 397.671 197.309C399.664 200.307 398.928 204.354 395.765 206.325C392.661 208.386 388.688 207.367 386.786 204.31ZM396.111 198.312C394.583 195.935 391.858 195.226 389.572 196.696C387.301 198.157 386.816 200.93 388.345 203.307C389.874 205.684 392.598 206.392 394.869 204.932C397.155 203.462 397.64 200.688 396.111 198.312ZM403.302 201.178L396.174 190.096L397.597 189.181L404.725 200.262L403.302 201.178ZM405.321 195.812L402.235 191.013L403.658 190.098L406.676 194.791C407.465 196.017 408.58 196.22 409.806 195.432C411.033 194.643 411.31 193.544 410.522 192.318L407.503 187.625L408.926 186.709L412.013 191.508C412.616 192.447 412.801 193.399 412.555 194.348C412.31 195.298 411.668 196.096 410.653 196.749C408.655 198.034 406.509 197.659 405.321 195.812ZM421.003 178.942L422.441 178.017L424.895 187.289L423.321 188.302L417.487 183.557L419.384 190.833L417.825 191.836L410.406 185.758L411.844 184.833L417.552 189.615L415.674 182.369L417.173 181.405L422.962 186.114L421.003 178.942ZM429.8 173.283L431.223 172.368L436.16 180.043L434.737 180.959L433.861 179.596C434.045 180.847 433.36 182.144 432.103 182.953C430.014 184.296 427.389 183.609 425.87 181.247C424.341 178.871 424.804 176.197 426.894 174.853C428.15 174.045 429.615 173.959 430.677 174.646L429.8 173.283ZM432.334 177.09C431.292 175.47 429.588 174.982 428.089 175.946C427.347 176.423 426.907 177.07 426.769 177.887C426.636 178.679 426.837 179.491 427.354 180.293C427.87 181.095 428.515 181.6 429.301 181.823C430.091 182.021 430.862 181.889 431.604 181.411C432.346 180.934 432.786 180.288 432.919 179.496C433.042 178.689 432.85 177.892 432.334 177.09ZM438.045 175.942L435.211 171.537L433.697 172.51L432.908 171.284L434.422 170.31L432.962 168.04L434.385 167.124L435.845 169.395L438.192 167.886L438.981 169.112L436.634 170.621L439.38 174.891C439.857 175.632 440.4 175.711 441.248 175.166C441.596 174.942 441.96 174.643 442.341 174.27L443.11 175.466C442.759 175.885 442.328 176.247 441.829 176.569C440.239 177.591 438.97 177.38 438.045 175.942ZM441.881 170.949C440.459 168.739 440.861 165.869 443.253 164.331C445.615 162.812 448.407 163.627 449.829 165.837C451.26 168.063 450.824 170.911 448.462 172.43C446.07 173.969 443.312 173.175 441.881 170.949ZM448.345 166.791C447.304 165.171 445.599 164.684 444.1 165.648C443.358 166.125 442.918 166.772 442.78 167.589C442.647 168.38 442.849 169.193 443.365 169.995C443.881 170.797 444.527 171.302 445.312 171.525C446.102 171.723 446.874 171.59 447.615 171.113C448.357 170.636 448.797 169.989 448.93 169.198C449.053 168.391 448.861 167.594 448.345 166.791ZM452.764 167.374L453.186 165.968C454.243 166.379 455.39 166.199 456.434 165.527C457.464 164.865 457.812 164.041 457.393 163.391C457.072 162.891 456.494 162.792 455.459 163.179L454.058 163.695C452.24 164.329 451.06 164.125 450.359 163.035C449.473 161.658 450.035 159.969 451.912 158.762C453.259 157.895 454.646 157.688 455.813 158.072L455.459 159.519C454.519 159.289 453.593 159.478 452.669 160.072C451.64 160.735 451.353 161.454 451.753 162.075C452.054 162.544 452.548 162.612 453.663 162.216L455.205 161.652C456.958 161.017 458.047 161.279 458.748 162.369C459.712 163.868 459.18 165.537 457.242 166.783C455.683 167.786 454.002 167.968 452.764 167.374ZM455.391 153.335C455.041 152.79 455.171 152.128 455.732 151.768C456.292 151.408 456.948 151.563 457.299 152.108C457.649 152.653 457.519 153.315 456.959 153.675C456.398 154.036 455.742 153.88 455.391 153.335ZM462.157 163.322L457.221 155.647L458.644 154.732L463.581 162.407L462.157 163.322ZM469.786 151.439L472.96 156.374L471.537 157.289L468.587 152.702C467.701 151.325 466.781 151.06 465.631 151.8C464.314 152.647 463.897 154.028 464.705 155.285L467.616 159.811L466.193 160.727L461.256 153.051L462.679 152.136L463.488 153.392C463.333 152.187 463.951 151.018 465.162 150.239C466.873 149.139 468.579 149.562 469.786 151.439Z" fill="black"/>
<path d="M318.002 125.081L319.524 111.403L328.336 100.611L293.776 101.207L318.002 125.081Z" fill="#FC9D61"/>
<rect x="328.336" y="113.622" width="93" height="40" transform="rotate(-32.7486 328.336 113.622)" fill="#FC9D61"/>
<rect x="328.336" y="113.622" width="93" height="40" transform="rotate(-32.7486 328.336 113.622)" stroke="black"/>
<path d="M358.164 120.116C359.284 121.857 358.718 123.805 356.644 125.139L351.784 128.265L344.968 117.667L349.464 114.775C351.508 113.461 353.496 113.723 354.557 115.373C355.307 116.539 355.217 117.796 354.309 118.914C355.907 118.336 357.278 118.738 358.164 120.116ZM350.215 116.176L347.309 118.045L349.363 121.24L352.27 119.37C353.541 118.552 353.822 117.558 353.16 116.529C352.498 115.499 351.487 115.358 350.215 116.176ZM356.503 120.928C355.802 119.838 354.752 119.636 353.48 120.453L350.21 122.557L352.411 125.978L355.681 123.875C356.953 123.057 357.204 122.018 356.503 120.928ZM366.975 113.679L360.949 117.554C362.06 118.916 363.569 119.165 365.007 118.24C365.961 117.627 366.52 116.732 366.654 115.576L368.103 115.799C368.023 117.306 367.213 118.641 365.805 119.546C363.443 121.065 360.762 120.457 359.233 118.08C357.724 115.734 358.219 112.976 360.474 111.525C362.609 110.152 365.131 110.713 366.582 112.968C366.728 113.195 366.859 113.432 366.975 113.679ZM360.279 116.445L364.881 113.485C363.903 112.23 362.568 112.019 361.312 112.827C360.025 113.655 359.658 114.982 360.279 116.445ZM370.739 105.201L371.566 106.488C371.325 106.579 371.073 106.72 370.816 106.885C369.347 107.83 369.065 109.188 370.185 110.929L372.688 114.82L371.265 115.735L366.328 108.06L367.751 107.144L368.637 108.522C368.387 107.334 368.884 106.244 369.989 105.533C370.247 105.368 370.493 105.252 370.739 105.201ZM381.022 102.482L384.197 107.417L382.774 108.333L379.823 103.745C378.937 102.368 378.018 102.103 376.867 102.843C375.55 103.69 375.133 105.071 375.941 106.328L378.853 110.854L377.43 111.77L372.493 104.094L373.916 103.179L374.724 104.436C374.569 103.23 375.187 102.062 376.399 101.283C378.109 100.182 379.815 100.605 381.022 102.482ZM387.681 94.3256L389.104 93.4103L394.041 101.086L392.617 102.001L391.741 100.639C391.925 101.89 391.24 103.187 389.983 103.995C387.894 105.339 385.269 104.651 383.75 102.29C382.221 99.9129 382.685 97.2393 384.774 95.8956C386.031 95.0874 387.495 95.0016 388.557 95.6881L387.681 94.3256ZM390.215 98.132C389.173 96.5121 387.468 96.0247 385.969 96.9887C385.227 97.4658 384.787 98.1127 384.649 98.9293C384.516 99.721 384.718 100.533 385.234 101.336C385.75 102.138 386.396 102.643 387.181 102.865C387.972 103.063 388.743 102.931 389.484 102.454C390.226 101.977 390.666 101.33 390.799 100.538C390.922 99.7314 390.731 98.9343 390.215 98.132ZM396.123 88.8743L396.951 90.1611C396.71 90.252 396.458 90.3926 396.2 90.5582C394.732 91.5027 394.45 92.8611 395.57 94.6021L398.072 98.4928L396.649 99.4081L391.712 91.7326L393.135 90.8174L394.021 92.195C393.771 91.0076 394.268 89.9173 395.374 89.2065C395.631 89.0409 395.878 88.9251 396.123 88.8743ZM401.191 80.8209L402.614 79.9056L409.741 90.9873L408.318 91.9026L407.442 90.54C407.626 91.7913 406.925 93.098 405.669 93.9061C403.595 95.2401 400.97 94.5529 399.451 92.1912C397.922 89.8144 398.386 87.1408 400.46 85.8068C401.716 84.9986 403.196 84.9031 404.258 85.5896L401.191 80.8209ZM405.915 88.0335C404.873 86.4136 403.169 85.9262 401.67 86.8902C400.928 87.3673 400.488 88.0142 400.35 88.8307C400.217 89.6224 400.418 90.4346 400.935 91.237C401.451 92.0393 402.096 92.5443 402.882 92.7669C403.672 92.9646 404.443 92.8325 405.185 92.3554C405.927 91.8782 406.367 91.2314 406.5 90.4397C406.623 89.6328 406.431 88.8358 405.915 88.0335Z" fill="black"/>
</svg>
