<svg width="180" height="65" viewBox="0 0 180 65" fill="none" xmlns="http://www.w3.org/2000/svg">
<g clip-path="url(#clip0_164_18006)">
<path d="M21.5748 17.7267C20.6583 18.8712 19.6082 19.755 18.4245 20.3781C17.2407 21.0012 15.8852 21.3127 14.3577 21.3127C13.0849 21.3127 11.8884 21.0902 10.7683 20.6451C9.6482 20.2 8.67447 19.5706 7.84712 18.7567C7.01976 17.9429 6.36425 16.9573 5.88056 15.8002C5.39688 14.643 5.15504 13.3522 5.15504 11.928C5.15504 10.5038 5.39688 9.21305 5.88056 8.05585C6.36425 6.89866 7.01976 5.91314 7.84712 5.09929C8.67447 4.28543 9.6482 3.65597 10.7683 3.2109C11.8884 2.76582 13.0849 2.54328 14.3577 2.54328C15.8088 2.54328 17.0625 2.82305 18.119 3.38257C19.1755 3.94209 20.111 4.69236 20.9256 5.63338L24.5469 2.13L19.5764 1.54505L6.33243 0C5.53053 0.515015 4.79228 1.11269 4.12403 1.7803C2.85118 3.05194 1.84563 4.55884 1.10738 6.30099C0.369126 8.04314 0 9.91881 0 11.928C0 13.9372 0.369126 15.8129 1.10738 17.555C1.84563 19.2972 2.85118 20.8041 4.12403 22.0757C5.39688 23.3474 6.90521 24.3519 8.64901 25.0895C10.3928 25.8271 12.283 26.1958 14.3196 26.1958C16.5852 26.1958 18.6345 25.7698 20.4674 24.9178C22.3003 24.0658 23.8914 22.826 25.2406 21.1983L21.5748 17.7267Z" fill="black"/>
<path d="M44.4288 8.41741C43.2705 6.99318 41.4822 6.28106 39.0638 6.28106C37.8164 6.28106 36.6899 6.56717 35.6843 7.13941C34.6788 7.71165 33.9087 8.44285 33.3741 9.333H33.0686L33.3741 5.93771V3.15917L28.3718 2.57422V25.5846H33.3741V16.4669C33.3741 15.7039 33.4696 14.9854 33.6605 14.3115C33.8514 13.6375 34.1315 13.0462 34.5006 12.5375C34.8697 12.0289 35.3216 11.6283 35.8562 11.3358C36.3908 11.0434 37.0017 10.8971 37.6891 10.8971C38.7837 10.8971 39.6365 11.2341 40.2475 11.9081C40.8585 12.582 41.164 13.5676 41.164 14.8646V25.5846H46.1663V14.2543C46.1663 11.7873 45.5871 9.84165 44.4288 8.41741Z" fill="black"/>
<path d="M50.5957 6.89258V25.5857H55.598V6.89258H50.5957Z" fill="black"/>
<path d="M77.5357 10.9936C77.243 10.0145 76.8102 9.17518 76.2374 8.47577C76.1356 8.34861 76.0274 8.23416 75.9192 8.11971L74.71 7.97983L69.695 7.39488L67.4929 7.13419C66.5256 7.681 65.7555 8.41219 65.1827 9.33413H64.8772V6.89258H60.1804V25.5857H65.1827V16.4299C65.1827 15.6669 65.2782 14.9484 65.4691 14.2745C65.66 13.6005 65.9401 13.0155 66.3092 12.5196C66.6783 12.0237 67.1238 11.6294 67.6457 11.337C68.1676 11.0445 68.7722 10.8983 69.4595 10.8983C70.6051 10.8983 71.477 11.2225 72.0752 11.8711C72.6734 12.5196 72.9726 13.5178 72.9726 14.8658V25.5857H77.9749V14.2554C77.9749 13.06 77.8285 11.9728 77.5357 10.9936Z" fill="black"/>
<path d="M99.5113 12.1951C99.3458 11.7056 99.1486 11.2414 98.9131 10.8091L96.7683 10.5547L91.766 9.96977L87.4893 9.47383L83.9571 9.06055C83.8935 9.11777 83.8362 9.17499 83.7789 9.23858C82.9134 10.1414 82.2388 11.1969 81.7551 12.405C81.2714 13.613 81.0295 14.891 81.0295 16.239C81.0295 17.6886 81.2778 19.0175 81.7742 20.2256C82.2706 21.4336 82.9643 22.4827 83.8553 23.3729C84.7463 24.263 85.7964 24.9561 87.0056 25.452C88.2148 25.948 89.5322 26.1959 90.9578 26.1959C93.0707 26.1959 94.8591 25.7254 96.3228 24.7844C97.7866 23.8434 98.9513 22.6099 99.8168 21.0839L95.6546 19.0239C95.2218 19.8123 94.6299 20.4672 93.879 20.9886C93.128 21.5099 92.1797 21.7706 91.0341 21.7706C90.4486 21.7706 89.8758 21.688 89.3158 21.5226C88.7557 21.3573 88.2402 21.0903 87.7693 20.7215C87.2983 20.3527 86.9037 19.8949 86.5855 19.3481C86.2673 18.8013 86.0573 18.1464 85.9555 17.3834H100.046C100.046 17.2308 100.059 17.091 100.084 16.9638C100.084 16.8366 100.097 16.6968 100.122 16.5442V16.0864C100.122 14.6876 99.9186 13.3905 99.5113 12.1951ZM86.2228 13.8356C86.5537 12.742 87.1265 11.89 87.9411 11.2796C88.7557 10.6692 89.6976 10.364 90.7668 10.364C91.5305 10.364 92.1861 10.4784 92.7334 10.7073C93.2807 10.9362 93.7389 11.2287 94.1081 11.5848C94.4772 11.9408 94.7572 12.3223 94.9482 12.7292C95.1391 13.1362 95.2473 13.5049 95.2727 13.8356H86.2228Z" fill="black"/>
<path d="M116.383 12.8496C116.644 13.1866 116.854 13.5681 117.039 13.9878C117.319 14.649 117.459 15.3993 117.459 16.2386C117.459 17.0779 117.319 17.8281 117.039 18.4894C116.752 19.1506 116.389 19.7102 115.931 20.1679C115.473 20.6257 114.945 20.9754 114.346 21.2171C113.748 21.4587 113.118 21.5795 112.456 21.5795C111.794 21.5795 111.158 21.4523 110.566 21.198C109.961 20.9437 109.44 20.5876 108.981 20.1298C108.523 19.672 108.154 19.1125 107.874 18.4512C107.594 17.79 107.454 17.0524 107.454 16.2386C107.454 15.4247 107.594 14.6872 107.874 14.0259C108.154 13.3647 108.523 12.8051 108.981 12.3473C109.096 12.2329 109.217 12.1248 109.338 12.0231L107.575 11.8196L103.572 11.3555C103.425 11.6352 103.298 11.9277 103.177 12.2329C102.694 13.4537 102.452 14.7889 102.452 16.2386C102.452 17.6882 102.694 19.0235 103.177 20.2442C103.655 21.465 104.316 22.5141 105.144 23.3916C105.965 24.269 106.919 24.9557 108.008 25.4516C109.09 25.9476 110.229 26.1955 111.425 26.1955C112.851 26.1955 114.047 25.9158 115.015 25.3563C115.982 24.7967 116.695 24.1228 117.153 23.3343H117.459V25.5851H122.155V13.5173L116.383 12.8496Z" fill="black"/>
<path d="M139.065 15.4942V16.0473C139.065 16.8103 138.976 17.5288 138.779 18.2028C138.588 18.8767 138.308 19.4617 137.939 19.9576C137.569 20.4536 137.124 20.8478 136.602 21.1403C136.08 21.4327 135.476 21.579 134.788 21.579C133.643 21.579 132.771 21.2547 132.173 20.6062C131.574 19.9576 131.282 18.9594 131.282 17.6115V14.585L126.273 14V18.2219C126.273 20.638 126.852 22.5709 128.01 24.0205C129.169 25.4702 130.938 26.195 133.299 26.195C134.572 26.195 135.711 25.9216 136.698 25.3748C137.69 24.828 138.48 24.0841 139.065 23.1431H139.371V25.5847H144.067V16.0791L139.065 15.4942Z" fill="black"/>
<path d="M92.6571 40.1132C90.9897 39.3502 89.0613 38.9688 86.872 38.9688C84.8355 38.9688 82.9453 39.3375 81.2015 40.0751C79.4577 40.8126 77.943 41.8172 76.6765 43.0889C75.3973 44.3605 74.3981 45.8674 73.6598 47.6096C72.998 49.1737 72.6288 50.8522 72.5652 52.6325L77.7075 53.2366C77.7075 51.8123 77.943 50.5216 78.433 49.3644C78.9167 48.2072 79.5722 47.2217 80.3996 46.4079C81.2269 45.594 82.1943 44.9645 83.3208 44.5195C84.4409 44.0744 85.6374 43.8519 86.9102 43.8519C88.3612 43.8519 89.615 44.1316 90.6715 44.6911C91.7279 45.2507 92.6635 46.0009 93.4781 46.9419L97.1057 43.4322C95.8074 41.9825 94.3245 40.8762 92.6571 40.1132Z" fill="black"/>
<path d="M116.981 49.7278C115.817 48.3035 114.035 47.5914 111.616 47.5914C110.362 47.5914 109.236 47.8775 108.23 48.4498C107.225 49.022 106.455 49.7532 105.92 50.6434H105.621L105.92 47.2481V39.5801H100.924V55.9461L106.016 56.5374C106.06 56.2259 106.13 55.9207 106.213 55.6218C106.398 54.9479 106.684 54.3566 107.053 53.8479C107.416 53.3392 107.874 52.9387 108.409 52.6462C108.943 52.3537 109.554 52.2075 110.242 52.2075C111.33 52.2075 112.183 52.5445 112.794 53.2184C113.411 53.8924 113.716 54.8779 113.716 56.175V57.4403L118.719 58.0189V55.5646C118.719 53.0976 118.14 51.152 116.981 49.7278Z" fill="black"/>
<path d="M127.692 58.9211V48.2012H122.684V58.4824L127.699 59.0674C127.692 59.0165 127.692 58.972 127.692 58.9211ZM135.476 48.2012V57.357C135.476 58.12 135.38 58.8385 135.189 59.5124C135.151 59.6523 135.107 59.7922 135.056 59.9257L140.478 60.5615V48.2012H135.476Z" fill="black"/>
<path d="M162.435 48.2018H156.249L149.986 54.4583H149.757V39.5801H144.755V61.0581L149.757 61.6431V60.8674L151.972 58.6929L154.129 62.1581L160.564 62.9084L155.485 55.2594L162.435 48.507V48.2018Z" fill="black"/>
<path d="M178.606 57.7967C177.677 56.7921 176.258 56.0609 174.349 55.6031L171.485 54.9165C170.721 54.713 170.116 54.4841 169.671 54.2298C169.225 53.9754 169.003 53.6321 169.003 53.1997C169.003 52.7419 169.27 52.3668 169.805 52.0743C170.339 51.7819 170.963 51.6356 171.676 51.6356C172.388 51.6356 173.05 51.8009 173.738 52.1316C174.425 52.4622 174.947 52.9963 175.303 53.7338L179.618 51.979C178.956 50.453 177.925 49.3403 176.525 48.6409C175.125 47.9415 173.534 47.5918 171.752 47.5918C170.683 47.5918 169.684 47.7253 168.754 47.9924C167.825 48.2594 167.017 48.6409 166.33 49.1368C165.642 49.6328 165.101 50.2368 164.707 50.9489C164.312 51.6611 164.115 52.4749 164.115 53.3905C164.115 54.2043 164.28 54.9165 164.611 55.5268C164.942 56.1372 165.362 56.6586 165.871 57.091C166.381 57.5233 166.947 57.8794 167.571 58.1591C168.194 58.4389 168.799 58.6424 169.385 58.7695L172.019 59.3418C173.114 59.5961 173.884 59.8822 174.33 60.2001C174.775 60.518 174.998 60.9313 174.998 61.44C174.998 61.8978 174.73 62.292 174.196 62.6226C173.661 62.9532 172.936 63.1185 172.019 63.1185C171.103 63.1185 170.32 62.8833 169.595 62.4128C168.869 61.9423 168.29 61.2238 167.857 60.2574L163.389 62.1648C163.536 62.5463 163.72 62.9278 163.943 63.3029L178.498 65.0006C178.874 64.6 179.185 64.1613 179.427 63.6908C179.809 62.9532 180 62.1775 180 61.3637C180 59.9903 179.536 58.8013 178.606 57.7967Z" fill="black"/>
</g>
<defs>
<clipPath id="clip0_164_18006">
<rect width="180" height="65" fill="white"/>
</clipPath>
</defs>
</svg>
