<svg width="151" height="56" viewBox="0 0 151 56" fill="none" xmlns="http://www.w3.org/2000/svg">
<rect width="151" height="56" rx="8" fill="#FFF6F0"/>
<path d="M19.168 30.56H25.488V32H17.6V20.8H25.328V22.24H19.168V25.632H24.992V27.056H19.168V30.56ZM35.153 26.784V32H33.649V27.152C33.649 25.696 33.089 25.056 31.873 25.056C30.481 25.056 29.505 25.888 29.505 27.216V32H28.001V23.888H29.505V25.216C29.969 24.24 30.993 23.664 32.273 23.664C34.081 23.664 35.153 24.8 35.153 26.784ZM44.0528 23.888H45.5568V31.072C45.5568 33.872 44.0048 35.424 41.3008 35.424C39.7648 35.424 38.4208 34.928 37.5888 34.096L38.4048 32.992C39.1568 33.648 40.1808 34.048 41.2688 34.048C43.0608 34.048 44.0528 33.04 44.0528 31.072V30.368C43.5888 31.376 42.4688 31.984 41.1248 31.984C38.9168 31.984 37.2848 30.272 37.2848 27.824C37.2848 25.392 38.9168 23.664 41.1248 23.664C42.4528 23.664 43.5888 24.304 44.0528 25.312V23.888ZM44.1168 27.824C44.1168 27.008 43.8768 26.352 43.3968 25.84C42.9168 25.312 42.2768 25.056 41.4928 25.056C40.7088 25.056 40.0688 25.312 39.5728 25.84C39.0928 26.352 38.8528 27.008 38.8528 27.824C38.8528 29.472 39.9088 30.608 41.4928 30.608C42.2768 30.608 42.9168 30.352 43.3968 29.824C43.8768 29.296 44.1168 28.64 44.1168 27.824ZM62.0018 26.4C62.0018 29.872 59.7298 32 56.4818 32H52.1938V20.8H56.4818C59.7298 20.8 62.0018 22.928 62.0018 26.4ZM60.3538 26.4C60.3538 23.76 58.9138 22.256 56.4818 22.256H53.7618V30.544H56.4818C58.9138 30.544 60.3538 29.04 60.3538 26.4ZM64.1204 21.28C64.1204 20.704 64.5364 20.272 65.1284 20.272C65.7204 20.272 66.1364 20.704 66.1364 21.28C66.1364 21.856 65.7204 22.288 65.1284 22.288C64.5364 22.288 64.1204 21.856 64.1204 21.28ZM64.3764 32V23.888H65.8804V32H64.3764ZM67.9056 30.512L68.8976 29.664C69.4896 30.48 70.4336 30.896 71.5376 30.896C72.6256 30.896 73.2816 30.448 73.2816 29.76C73.2816 29.232 72.8976 28.88 71.9376 28.672L70.6416 28.384C68.9776 27.984 68.1936 27.264 68.1936 26.112C68.1936 24.656 69.4256 23.664 71.4096 23.664C72.8336 23.664 73.9696 24.176 74.6576 25.024L73.6976 25.936C73.1056 25.312 72.3216 25.008 71.3456 25.008C70.2576 25.008 69.6976 25.408 69.6976 26.064C69.6976 26.56 70.0336 26.848 71.0576 27.088L72.4816 27.408C74.0976 27.776 74.7856 28.496 74.7856 29.648C74.7856 31.232 73.5856 32.224 71.5376 32.224C69.8896 32.224 68.5456 31.552 67.9056 30.512ZM76.3004 27.952C76.3004 25.472 78.0124 23.664 80.4924 23.664C81.9804 23.664 83.2284 24.32 83.9164 25.456L82.7484 26.256C82.2524 25.488 81.4684 25.056 80.5084 25.056C78.9244 25.056 77.8684 26.224 77.8684 27.952C77.8684 29.68 78.9244 30.832 80.5084 30.832C81.4684 30.832 82.2524 30.416 82.7484 29.632L83.9164 30.448C83.2284 31.584 81.9804 32.224 80.4924 32.224C78.0124 32.224 76.3004 30.416 76.3004 27.952ZM85.6535 28.96V23.888H87.1575V28.848C87.1575 30.144 87.8935 30.832 89.1895 30.832C90.4855 30.832 91.2215 30.144 91.2215 28.848V23.888H92.7255V28.96C92.7255 29.952 92.4055 30.752 91.7655 31.344C91.1255 31.936 90.2615 32.224 89.1895 32.224C87.0775 32.224 85.6535 30.912 85.6535 28.96ZM94.5931 30.512L95.5851 29.664C96.1771 30.48 97.1211 30.896 98.2251 30.896C99.3131 30.896 99.9691 30.448 99.9691 29.76C99.9691 29.232 99.5851 28.88 98.6251 28.672L97.3291 28.384C95.6651 27.984 94.8811 27.264 94.8811 26.112C94.8811 24.656 96.1131 23.664 98.0971 23.664C99.5211 23.664 100.657 24.176 101.345 25.024L100.385 25.936C99.7931 25.312 99.0091 25.008 98.0331 25.008C96.9451 25.008 96.3851 25.408 96.3851 26.064C96.3851 26.56 96.7211 26.848 97.7451 27.088L99.1691 27.408C100.785 27.776 101.473 28.496 101.473 29.648C101.473 31.232 100.273 32.224 98.2251 32.224C96.5771 32.224 95.2331 31.552 94.5931 30.512ZM102.796 30.512L103.788 29.664C104.38 30.48 105.324 30.896 106.428 30.896C107.516 30.896 108.172 30.448 108.172 29.76C108.172 29.232 107.788 28.88 106.828 28.672L105.532 28.384C103.868 27.984 103.084 27.264 103.084 26.112C103.084 24.656 104.316 23.664 106.3 23.664C107.724 23.664 108.86 24.176 109.548 25.024L108.588 25.936C107.996 25.312 107.212 25.008 106.236 25.008C105.148 25.008 104.588 25.408 104.588 26.064C104.588 26.56 104.924 26.848 105.948 27.088L107.372 27.408C108.988 27.776 109.676 28.496 109.676 29.648C109.676 31.232 108.476 32.224 106.428 32.224C104.78 32.224 103.436 31.552 102.796 30.512ZM111.511 21.28C111.511 20.704 111.927 20.272 112.519 20.272C113.111 20.272 113.527 20.704 113.527 21.28C113.527 21.856 113.111 22.288 112.519 22.288C111.927 22.288 111.511 21.856 111.511 21.28ZM111.767 32V23.888H113.271V32H111.767ZM115.472 27.952C115.472 25.616 117.152 23.664 119.68 23.664C122.176 23.664 123.872 25.616 123.872 27.952C123.872 30.304 122.176 32.224 119.68 32.224C117.152 32.224 115.472 30.304 115.472 27.952ZM122.304 27.952C122.304 26.24 121.264 25.056 119.68 25.056C118.896 25.056 118.256 25.328 117.76 25.872C117.28 26.4 117.04 27.104 117.04 27.952C117.04 28.8 117.28 29.488 117.76 30.032C118.256 30.56 118.896 30.832 119.68 30.832C120.464 30.832 121.104 30.56 121.584 30.032C122.064 29.488 122.304 28.8 122.304 27.952ZM133.216 26.784V32H131.712V27.152C131.712 25.696 131.152 25.056 129.936 25.056C128.544 25.056 127.568 25.888 127.568 27.216V32H126.064V23.888H127.568V25.216C128.032 24.24 129.056 23.664 130.336 23.664C132.144 23.664 133.216 24.8 133.216 26.784Z" fill="#C46217"/>
</svg>
