<svg width="27" height="22" viewBox="0 0 27 22" fill="none" xmlns="http://www.w3.org/2000/svg">
<path d="M23.7246 11.6467C25.5335 11.6467 27 10.2007 27 8.41685C27 6.63303 25.5335 5.18696 23.7246 5.18696C21.9157 5.18696 20.4492 6.63303 20.4492 8.41685C20.4492 10.2007 21.9157 11.6467 23.7246 11.6467Z" fill="#C46217"/>
<path d="M3.27537 11.6467C5.08431 11.6467 6.55075 10.2007 6.55075 8.41685C6.55075 6.63303 5.08431 5.18696 3.27537 5.18696C1.46643 5.18696 0 6.63303 0 8.41685C0 10.2007 1.46643 11.6467 3.27537 11.6467Z" fill="#C46217"/>
<path d="M13.5 22C15.3089 22 16.7754 20.5539 16.7754 18.7701C16.7754 16.9863 15.3089 15.5402 13.5 15.5402C11.691 15.5402 10.2246 16.9863 10.2246 18.7701C10.2246 20.5539 11.691 22 13.5 22Z" fill="#C46217"/>
<path d="M8.25877 6.45979C10.0677 6.45979 11.5341 5.01372 11.5341 3.2299C11.5341 1.44607 10.0677 0 8.25877 0C6.44983 0 4.9834 1.44607 4.9834 3.2299C4.9834 5.01372 6.44983 6.45979 8.25877 6.45979Z" fill="#C46217"/>
<path d="M18.7407 6.45979C20.5496 6.45979 22.0161 5.01372 22.0161 3.2299C22.0161 1.44607 20.5496 0 18.7407 0C16.9318 0 15.4653 1.44607 15.4653 3.2299C15.4653 5.01372 16.9318 6.45979 18.7407 6.45979Z" fill="#C46217"/>
<path d="M13.5 11.6467C15.3089 11.6467 16.7754 10.2007 16.7754 8.41685C16.7754 6.63303 15.3089 5.18696 13.5 5.18696C11.691 5.18696 10.2246 6.63303 10.2246 8.41685C10.2246 10.2007 11.691 11.6467 13.5 11.6467Z" fill="#C46217"/>
<path d="M8.37376 16.7928C10.1827 16.7928 11.6491 15.3467 11.6491 13.5629C11.6491 11.7791 10.1827 10.333 8.37376 10.333C6.56482 10.333 5.09839 11.7791 5.09839 13.5629C5.09839 15.3467 6.56482 16.7928 8.37376 16.7928Z" fill="#C46217"/>
<path d="M18.626 16.7928C20.4349 16.7928 21.9013 15.3467 21.9013 13.5629C21.9013 11.7791 20.4349 10.333 18.626 10.333C16.817 10.333 15.3506 11.7791 15.3506 13.5629C15.3506 15.3467 16.817 16.7928 18.626 16.7928Z" fill="#C46217"/>
</svg>
