<svg width="154" height="56" viewBox="0 0 154 56" fill="none" xmlns="http://www.w3.org/2000/svg">
<rect width="154" height="56" rx="8" fill="#FFF6F0"/>
<path d="M24.448 32L20.864 27.632H19.168V32H17.6V20.8H22.272C24.656 20.8 26.08 22.096 26.08 24.256C26.08 26.256 24.848 27.472 22.688 27.616L26.336 32H24.448ZM19.168 22.24V26.224H22.144C23.76 26.224 24.432 25.616 24.432 24.256C24.432 22.864 23.744 22.24 22.144 22.24H19.168ZM35.5325 28.4H29.1645C29.3405 29.952 30.3485 30.864 31.8685 30.864C32.8765 30.864 33.7245 30.464 34.3805 29.664L35.3565 30.528C34.5725 31.616 33.3245 32.224 31.8365 32.224C29.3405 32.224 27.6285 30.48 27.6285 27.968C27.6285 25.488 29.3245 23.664 31.7085 23.664C33.9645 23.664 35.5805 25.296 35.5805 27.68C35.5805 27.92 35.5645 28.16 35.5325 28.4ZM29.1965 27.248H34.0605C33.9325 25.84 33.0365 25.04 31.7085 25.04C30.3485 25.04 29.4365 25.856 29.1965 27.248ZM37.015 30.512L38.007 29.664C38.599 30.48 39.543 30.896 40.647 30.896C41.735 30.896 42.391 30.448 42.391 29.76C42.391 29.232 42.007 28.88 41.047 28.672L39.751 28.384C38.087 27.984 37.303 27.264 37.303 26.112C37.303 24.656 38.535 23.664 40.519 23.664C41.943 23.664 43.079 24.176 43.767 25.024L42.807 25.936C42.215 25.312 41.431 25.008 40.455 25.008C39.367 25.008 38.807 25.408 38.807 26.064C38.807 26.56 39.143 26.848 40.167 27.088L41.591 27.408C43.207 27.776 43.895 28.496 43.895 29.648C43.895 31.232 42.695 32.224 40.647 32.224C38.999 32.224 37.655 31.552 37.015 30.512ZM53.3138 28.4H46.9457C47.1218 29.952 48.1298 30.864 49.6498 30.864C50.6578 30.864 51.5058 30.464 52.1618 29.664L53.1378 30.528C52.3538 31.616 51.1058 32.224 49.6178 32.224C47.1218 32.224 45.4098 30.48 45.4098 27.968C45.4098 25.488 47.1058 23.664 49.4898 23.664C51.7458 23.664 53.3618 25.296 53.3618 27.68C53.3618 27.92 53.3458 28.16 53.3138 28.4ZM46.9778 27.248H51.8418C51.7138 25.84 50.8178 25.04 49.4898 25.04C48.1298 25.04 47.2178 25.856 46.9778 27.248ZM56 29.84V25.184H54.4V23.888H56V21.488H57.504V23.888H59.984V25.184H57.504V29.696C57.504 30.48 57.872 30.8 58.768 30.8C59.136 30.8 59.552 30.752 60.016 30.656V31.92C59.552 32.064 59.056 32.128 58.528 32.128C56.848 32.128 56 31.36 56 29.84ZM65.4016 21.28C65.4016 20.704 65.8176 20.272 66.4096 20.272C67.0016 20.272 67.4176 20.704 67.4176 21.28C67.4176 21.856 67.0016 22.288 66.4096 22.288C65.8176 22.288 65.4016 21.856 65.4016 21.28ZM65.6576 32V23.888H67.1616V32H65.6576ZM70.5949 32V25.184H68.9469V23.888H70.5949V22.704C70.5949 20.96 71.4109 20.144 73.1869 20.144C73.6189 20.144 74.0349 20.192 74.4509 20.288V21.552C74.0349 21.488 73.6829 21.456 73.4109 21.456C72.4989 21.456 72.0989 21.856 72.0989 22.768V23.888H74.4189V25.184H72.0989V32H70.5949ZM86.7468 26.784V32H85.2428V27.152C85.2428 25.696 84.6828 25.056 83.4668 25.056C82.0748 25.056 81.0988 25.888 81.0988 27.216V32H79.5948V23.888H81.0988V25.216C81.5628 24.24 82.5868 23.664 83.8668 23.664C85.6748 23.664 86.7468 24.8 86.7468 26.784ZM96.7825 28.4H90.4145C90.5905 29.952 91.5985 30.864 93.1185 30.864C94.1265 30.864 94.9745 30.464 95.6305 29.664L96.6065 30.528C95.8225 31.616 94.5745 32.224 93.0865 32.224C90.5905 32.224 88.8785 30.48 88.8785 27.968C88.8785 25.488 90.5745 23.664 92.9585 23.664C95.2145 23.664 96.8305 25.296 96.8305 27.68C96.8305 27.92 96.8145 28.16 96.7825 28.4ZM90.4465 27.248H95.3105C95.1825 25.84 94.2865 25.04 92.9585 25.04C91.5985 25.04 90.6865 25.856 90.4465 27.248ZM106.345 28.4H99.977C100.153 29.952 101.161 30.864 102.681 30.864C103.689 30.864 104.537 30.464 105.193 29.664L106.169 30.528C105.385 31.616 104.137 32.224 102.649 32.224C100.153 32.224 98.441 30.48 98.441 27.968C98.441 25.488 100.137 23.664 102.521 23.664C104.777 23.664 106.393 25.296 106.393 27.68C106.393 27.92 106.377 28.16 106.345 28.4ZM100.009 27.248H104.873C104.745 25.84 103.849 25.04 102.521 25.04C101.161 25.04 100.249 25.856 100.009 27.248ZM114.772 20.288H116.276V32H114.772V30.56C114.308 31.584 113.156 32.224 111.828 32.224C109.636 32.224 108.004 30.448 108.004 27.952C108.004 25.44 109.636 23.664 111.828 23.664C113.156 23.664 114.308 24.304 114.772 25.328V20.288ZM114.836 27.952C114.836 26.24 113.796 25.056 112.212 25.056C111.428 25.056 110.788 25.328 110.292 25.872C109.812 26.4 109.572 27.104 109.572 27.952C109.572 28.8 109.812 29.488 110.292 30.032C110.788 30.56 111.428 30.832 112.212 30.832C112.996 30.832 113.636 30.56 114.116 30.032C114.596 29.488 114.836 28.8 114.836 27.952ZM126.376 28.4H120.008C120.184 29.952 121.192 30.864 122.712 30.864C123.72 30.864 124.568 30.464 125.224 29.664L126.2 30.528C125.416 31.616 124.168 32.224 122.68 32.224C120.184 32.224 118.472 30.48 118.472 27.968C118.472 25.488 120.168 23.664 122.552 23.664C124.808 23.664 126.424 25.296 126.424 27.68C126.424 27.92 126.408 28.16 126.376 28.4ZM120.04 27.248H124.904C124.776 25.84 123.88 25.04 122.552 25.04C121.192 25.04 120.28 25.856 120.04 27.248ZM134.803 20.288H136.307V32H134.803V30.56C134.339 31.584 133.187 32.224 131.859 32.224C129.667 32.224 128.035 30.448 128.035 27.952C128.035 25.44 129.667 23.664 131.859 23.664C133.187 23.664 134.339 24.304 134.803 25.328V20.288ZM134.867 27.952C134.867 26.24 133.827 25.056 132.243 25.056C131.459 25.056 130.819 25.328 130.323 25.872C129.843 26.4 129.603 27.104 129.603 27.952C129.603 28.8 129.843 29.488 130.323 30.032C130.819 30.56 131.459 30.832 132.243 30.832C133.027 30.832 133.667 30.56 134.147 30.032C134.627 29.488 134.867 28.8 134.867 27.952Z" fill="#C46217"/>
</svg>
