<svg width="300" height="456" viewBox="0 0 300 456" fill="none" xmlns="http://www.w3.org/2000/svg">
<rect width="300" height="300" rx="16" fill="white"/>
<g clip-path="url(#clip0_104_15702)">
<path d="M135.515 43.9912C127.591 43.9912 121.081 50.5121 121.081 58.437V63.5189C117.046 64.8795 113.117 66.5228 109.31 68.4314L105.678 64.7988C100.076 59.1957 90.8341 59.1957 85.2318 64.7988L64.8232 85.2582C59.2209 90.8614 59.221 100.105 64.8232 105.708L68.4081 109.265C66.5111 113.09 64.8797 117.015 63.5341 121.067H58.4155C50.4921 121.067 43.9818 127.625 43.9818 135.55V164.432C43.9818 172.357 50.4921 178.906 58.4155 178.906H63.5341C64.894 182.929 66.5415 186.847 68.4457 190.642L64.8232 194.274C59.221 199.878 59.2209 209.121 64.8232 214.724L85.2318 235.174C90.8341 240.777 100.076 240.777 105.678 235.174L109.272 231.579C113.091 233.473 117.036 235.111 121.081 236.454V241.546C121.081 249.47 127.591 255.982 135.515 255.982H164.429C172.353 255.982 178.863 249.47 178.863 241.546V236.454C182.904 235.091 186.831 233.464 190.643 231.551L194.266 235.174C199.868 240.777 209.072 240.778 214.674 235.174L235.13 214.724C240.732 209.121 240.732 199.878 235.13 194.274L231.536 190.679C233.427 186.864 235.068 182.948 236.41 178.906H241.491C249.414 178.906 255.971 172.357 255.971 164.432V135.55C255.971 127.625 249.414 121.067 241.491 121.067H236.372C235.015 117.046 233.399 113.125 231.498 109.331L235.13 105.708V105.67C240.703 100.064 240.723 90.8508 235.13 85.2573L214.674 64.7979C209.072 59.1946 199.868 59.1947 194.266 64.7979L190.672 68.3929C186.848 66.4954 182.914 64.8637 178.863 63.518V58.437C178.863 50.5121 172.353 43.9912 164.429 43.9912H135.515ZM135.515 53.6374H164.429C167.181 53.6374 169.228 55.6842 169.228 58.437V66.7186C169.222 67.7696 169.56 68.7937 170.19 69.6347C170.821 70.4757 171.709 71.0875 172.719 71.377C178.55 73.0504 184.185 75.3683 189.505 78.2846C190.419 78.7852 191.47 78.976 192.502 78.8284C193.533 78.6808 194.489 78.2027 195.226 77.4659L201.059 71.6311C203.006 69.6842 205.944 69.6843 207.89 71.6311L228.337 92.0434C230.283 93.9904 230.283 96.9288 228.337 98.8758C228.324 98.8757 228.311 98.8757 228.298 98.8758L222.427 104.776C221.688 105.514 221.209 106.472 221.061 107.505C220.913 108.539 221.105 109.593 221.608 110.508C224.545 115.808 226.881 121.442 228.58 127.259C228.875 128.258 229.486 129.134 230.321 129.757C231.155 130.38 232.169 130.715 233.211 130.713H241.491C244.243 130.713 246.327 132.797 246.327 135.55V164.432C246.327 167.185 244.243 169.27 241.491 169.27H233.211C232.166 169.269 231.149 169.609 230.314 170.237C229.479 170.865 228.871 171.748 228.581 172.752C226.908 178.584 224.562 184.22 221.647 189.541C221.144 190.456 220.952 191.509 221.1 192.543C221.247 193.577 221.726 194.534 222.465 195.272L228.299 201.097C228.312 201.097 228.325 201.097 228.338 201.097C230.284 203.044 230.284 205.945 228.338 207.892L207.891 228.351C205.945 230.298 203.007 230.298 201.06 228.351L195.161 222.441C194.419 221.708 193.459 221.236 192.426 221.095C191.392 220.954 190.341 221.153 189.43 221.66C184.131 224.598 178.535 226.934 172.72 228.634C171.716 228.921 170.832 229.528 170.203 230.361C169.573 231.194 169.231 232.21 169.229 233.254V241.546C169.229 244.298 167.182 246.345 164.43 246.345H135.515C132.762 246.345 130.678 244.298 130.678 241.546V233.217C130.676 232.173 130.336 231.159 129.708 230.326C129.08 229.493 128.199 228.886 127.197 228.596C121.366 226.923 115.768 224.614 110.448 221.698C109.534 221.195 108.48 221.003 107.447 221.151C106.413 221.298 105.456 221.778 104.718 222.517L98.8563 228.351C96.9096 230.298 94.0096 230.298 92.0629 228.351L71.6072 207.892C69.6607 205.945 69.6607 203.044 71.6072 201.097L77.5162 195.197C78.2554 194.452 78.7317 193.487 78.8726 192.448C79.0136 191.408 78.8115 190.351 78.2972 189.437C75.3573 184.137 73.0273 178.531 71.325 172.714C71.0288 171.719 70.419 170.846 69.5865 170.225C68.754 169.604 67.7434 169.269 66.705 169.27H58.4155C55.6633 169.27 53.6168 167.185 53.6168 164.432V135.55C53.6168 132.797 55.6633 130.713 58.4155 130.713H66.7427C67.787 130.71 68.8023 130.368 69.6356 129.739C70.4688 129.109 71.0749 128.226 71.3626 127.221C73.0357 121.389 75.3437 115.753 78.2596 110.432C78.76 109.518 78.9507 108.467 78.8032 107.435C78.6556 106.404 78.1776 105.448 77.441 104.711L71.6072 98.8758C69.6607 96.9288 69.6607 93.9904 71.6072 92.0434L92.0629 71.6311C94.0096 69.6841 96.9096 69.6841 98.8563 71.6311L104.756 77.5035C105.495 78.2489 106.458 78.7322 107.498 78.88C108.537 79.0278 109.596 78.832 110.514 78.3223C115.814 75.385 121.419 73.0486 127.235 71.3488C128.231 71.0521 129.105 70.4408 129.726 69.6063C130.347 68.7718 130.681 67.7587 130.678 66.7186V58.437C130.678 55.6842 132.762 53.6374 135.515 53.6374ZM149.958 82.5102C135.527 82.5102 122.13 87.0791 111.154 94.8197L116.706 102.678C126.117 96.0402 137.547 92.1564 149.958 92.1564C181.943 92.1564 207.777 117.996 207.777 149.987C207.777 181.977 181.943 207.826 149.958 207.826C117.973 207.826 92.1664 181.977 92.1664 149.987C92.1664 134.424 98.265 120.366 108.237 109.971L101.303 103.289C89.6795 115.405 82.5313 131.89 82.5313 149.987C82.5313 187.185 112.766 217.425 149.958 217.425C187.15 217.425 217.422 187.185 217.422 149.987C217.422 112.788 187.15 82.5102 149.958 82.5102ZM173.942 125.753C173.889 125.756 173.835 125.759 173.782 125.763C173.688 125.773 173.593 125.786 173.5 125.802C173.5 125.802 155.285 128.318 140.285 135.156C132.785 138.575 125.7 142.982 122.426 150.167C120.79 153.759 120.401 158.104 121.683 162.335C122.965 166.566 125.697 170.65 129.897 174.851C134.098 179.053 138.219 181.823 142.449 183.105C146.679 184.387 151.024 183.998 154.615 182.361C161.798 179.087 166.167 171.973 169.585 164.471C176.422 149.468 178.976 131.241 178.976 131.241C179.075 130.536 179.018 129.818 178.807 129.138C178.596 128.457 178.237 127.833 177.755 127.308C177.274 126.783 176.682 126.372 176.023 126.103C175.363 125.835 174.653 125.714 173.942 125.753ZM167.308 137.47C166.296 142.985 165.321 150.635 160.835 160.48C157.854 167.022 153.946 172.044 150.598 173.57C148.923 174.334 147.447 174.515 145.263 173.853C143.909 173.443 142.243 172.572 140.379 171.199L153.477 158.099L146.646 151.304L133.567 164.385C132.19 162.527 131.304 160.87 130.895 159.52C130.233 157.335 130.414 155.858 131.177 154.184C132.703 150.835 137.761 146.927 144.303 143.945C154.145 139.458 161.795 138.483 167.308 137.47Z" fill="#FFA600"/>
</g>
<path d="M1.075 343.3L3 342.125C3.925 344.05 5.85 345.125 8.275 345.125C10.775 345.125 12.3 344 12.3 342.225C12.3 340.9 11.4 340.05 9.3 339.525L6.475 338.85C3.225 338.075 1.6 336.5 1.6 334.125C1.6 331.225 4.025 329.15 7.95 329.15C11.075 329.15 13.475 330.425 14.4 332.35L12.525 333.575C11.65 332.15 10 331.375 7.925 331.375C5.525 331.375 4.1 332.4 4.1 334.1C4.1 335.4 4.95 336.175 7.15 336.675L9.975 337.375C13.3 338.175 14.825 339.725 14.825 342.125C14.825 345.25 12.4 347.35 8.225 347.35C4.7 347.35 2.15 345.825 1.075 343.3ZM17.8424 342.25V334.325H20.1924V342.075C20.1924 344.1 21.3424 345.175 23.3674 345.175C25.3924 345.175 26.5424 344.1 26.5424 342.075V334.325H28.8924V342.25C28.8924 343.8 28.3924 345.05 27.3924 345.975C26.3924 346.9 25.0424 347.35 23.3674 347.35C20.0674 347.35 17.8424 345.3 17.8424 342.25ZM31.8105 344.675L33.3605 343.35C34.2855 344.625 35.7605 345.275 37.4855 345.275C39.1855 345.275 40.2105 344.575 40.2105 343.5C40.2105 342.675 39.6105 342.125 38.1105 341.8L36.0855 341.35C33.4855 340.725 32.2605 339.6 32.2605 337.8C32.2605 335.525 34.1855 333.975 37.2855 333.975C39.5105 333.975 41.2855 334.775 42.3605 336.1L40.8605 337.525C39.9355 336.55 38.7105 336.075 37.1855 336.075C35.4855 336.075 34.6105 336.7 34.6105 337.725C34.6105 338.5 35.1355 338.95 36.7355 339.325L38.9605 339.825C41.4855 340.4 42.5605 341.525 42.5605 343.325C42.5605 345.8 40.6855 347.35 37.4855 347.35C34.9105 347.35 32.8105 346.3 31.8105 344.675ZM46.7285 343.625V336.35H44.2285V334.325H46.7285V330.575H49.0785V334.325H52.9535V336.35H49.0785V343.4C49.0785 344.625 49.6535 345.125 51.0535 345.125C51.6285 345.125 52.2785 345.05 53.0035 344.9V346.875C52.2785 347.1 51.5035 347.2 50.6785 347.2C48.0535 347.2 46.7285 346 46.7285 343.625ZM65.5365 334.325H67.8865V347H65.5365V344.75C64.8115 346.35 63.0365 347.35 60.9615 347.35C57.5115 347.35 54.9615 344.575 54.9615 340.675C54.9615 336.75 57.5115 333.975 60.9615 333.975C63.0365 333.975 64.8115 334.975 65.5365 336.575V334.325ZM65.6365 340.675C65.6365 338 64.0115 336.15 61.5365 336.15C60.3115 336.15 59.3115 336.575 58.5365 337.425C57.7865 338.25 57.4115 339.35 57.4115 340.675C57.4115 342 57.7865 343.075 58.5365 343.925C59.3115 344.75 60.3115 345.175 61.5365 345.175C62.7615 345.175 63.7615 344.75 64.5115 343.925C65.2615 343.075 65.6365 342 65.6365 340.675ZM71.8189 330.25C71.8189 329.35 72.4689 328.675 73.3939 328.675C74.3189 328.675 74.9689 329.35 74.9689 330.25C74.9689 331.15 74.3189 331.825 73.3939 331.825C72.4689 331.825 71.8189 331.15 71.8189 330.25ZM72.2189 347V334.325H74.5689V347H72.2189ZM90.0584 338.85V347H87.7084V339.425C87.7084 337.15 86.8334 336.15 84.9334 336.15C82.7584 336.15 81.2334 337.45 81.2334 339.525V347H78.8834V334.325H81.2334V336.4C81.9584 334.875 83.5584 333.975 85.5584 333.975C88.3834 333.975 90.0584 335.75 90.0584 338.85ZM103.964 334.325H106.314V347H103.964V344.75C103.239 346.35 101.464 347.35 99.3893 347.35C95.9393 347.35 93.3893 344.575 93.3893 340.675C93.3893 336.75 95.9393 333.975 99.3893 333.975C101.464 333.975 103.239 334.975 103.964 336.575V334.325ZM104.064 340.675C104.064 338 102.439 336.15 99.9643 336.15C98.7393 336.15 97.7393 336.575 96.9643 337.425C96.2143 338.25 95.8393 339.35 95.8393 340.675C95.8393 342 96.2143 343.075 96.9643 343.925C97.7393 344.75 98.7393 345.175 99.9643 345.175C101.189 345.175 102.189 344.75 102.939 343.925C103.689 343.075 104.064 342 104.064 340.675ZM123.522 340.675C123.522 344.575 121.022 347.35 117.572 347.35C115.472 347.35 113.697 346.35 112.972 344.75V347H110.622V328.7H112.972V336.575C113.697 334.975 115.472 333.975 117.572 333.975C121.022 333.975 123.522 336.75 123.522 340.675ZM121.097 340.675C121.097 339.35 120.722 338.25 119.947 337.425C119.197 336.575 118.197 336.15 116.972 336.15C114.497 336.15 112.872 338 112.872 340.675C112.872 342 113.247 343.075 113.997 343.925C114.747 344.75 115.747 345.175 116.972 345.175C118.197 345.175 119.197 344.75 119.947 343.925C120.722 343.075 121.097 342 121.097 340.675ZM126.979 347V328.7H129.329V347H126.979ZM145.095 341.375H135.145C135.42 343.8 136.995 345.225 139.37 345.225C140.945 345.225 142.27 344.6 143.295 343.35L144.82 344.7C143.595 346.4 141.645 347.35 139.32 347.35C135.42 347.35 132.745 344.625 132.745 340.7C132.745 336.825 135.395 333.975 139.12 333.975C142.645 333.975 145.17 336.525 145.17 340.25C145.17 340.625 145.145 341 145.095 341.375ZM135.195 339.575H142.795C142.595 337.375 141.195 336.125 139.12 336.125C136.995 336.125 135.57 337.4 135.195 339.575ZM163.974 328.7H166.324V347H163.974V344.75C163.249 346.35 161.449 347.35 159.374 347.35C155.949 347.35 153.399 344.575 153.399 340.675C153.399 336.75 155.949 333.975 159.374 333.975C161.449 333.975 163.249 334.975 163.974 336.575V328.7ZM164.074 340.675C164.074 338 162.449 336.15 159.974 336.15C158.749 336.15 157.749 336.575 156.974 337.425C156.224 338.25 155.849 339.35 155.849 340.675C155.849 342 156.224 343.075 156.974 343.925C157.749 344.75 158.749 345.175 159.974 345.175C161.199 345.175 162.199 344.75 162.949 343.925C163.699 343.075 164.074 342 164.074 340.675ZM182.106 341.375H172.156C172.431 343.8 174.006 345.225 176.381 345.225C177.956 345.225 179.281 344.6 180.306 343.35L181.831 344.7C180.606 346.4 178.656 347.35 176.331 347.35C172.431 347.35 169.756 344.625 169.756 340.7C169.756 336.825 172.406 333.975 176.131 333.975C179.656 333.975 182.181 336.525 182.181 340.25C182.181 340.625 182.156 341 182.106 341.375ZM172.206 339.575H179.806C179.606 337.375 178.206 336.125 176.131 336.125C174.006 336.125 172.581 337.4 172.206 339.575ZM184.423 344.675L185.973 343.35C186.898 344.625 188.373 345.275 190.098 345.275C191.798 345.275 192.823 344.575 192.823 343.5C192.823 342.675 192.223 342.125 190.723 341.8L188.698 341.35C186.098 340.725 184.873 339.6 184.873 337.8C184.873 335.525 186.798 333.975 189.898 333.975C192.123 333.975 193.898 334.775 194.973 336.1L193.473 337.525C192.548 336.55 191.323 336.075 189.798 336.075C188.098 336.075 187.223 336.7 187.223 337.725C187.223 338.5 187.748 338.95 189.348 339.325L191.573 339.825C194.098 340.4 195.173 341.525 195.173 343.325C195.173 345.8 193.298 347.35 190.098 347.35C187.523 347.35 185.423 346.3 184.423 344.675ZM198.04 330.25C198.04 329.35 198.69 328.675 199.615 328.675C200.54 328.675 201.19 329.35 201.19 330.25C201.19 331.15 200.54 331.825 199.615 331.825C198.69 331.825 198.04 331.15 198.04 330.25ZM198.44 347V334.325H200.79V347H198.44ZM214.804 334.325H217.154V345.55C217.154 349.925 214.729 352.35 210.504 352.35C208.104 352.35 206.004 351.575 204.704 350.275L205.979 348.55C207.154 349.575 208.754 350.2 210.454 350.2C213.254 350.2 214.804 348.625 214.804 345.55V344.45C214.079 346.025 212.329 346.975 210.229 346.975C206.779 346.975 204.229 344.3 204.229 340.475C204.229 336.675 206.779 333.975 210.229 333.975C212.304 333.975 214.079 334.975 214.804 336.55V334.325ZM214.904 340.475C214.904 339.2 214.529 338.175 213.779 337.375C213.029 336.55 212.029 336.15 210.804 336.15C209.579 336.15 208.579 336.55 207.804 337.375C207.054 338.175 206.679 339.2 206.679 340.475C206.679 343.05 208.329 344.825 210.804 344.825C212.029 344.825 213.029 344.425 213.779 343.6C214.529 342.775 214.904 341.75 214.904 340.475ZM232.637 338.85V347H230.287V339.425C230.287 337.15 229.412 336.15 227.512 336.15C225.337 336.15 223.812 337.45 223.812 339.525V347H221.462V334.325H223.812V336.4C224.537 334.875 226.137 333.975 228.137 333.975C230.962 333.975 232.637 335.75 232.637 338.85ZM242.18 330.25C242.18 329.35 242.83 328.675 243.755 328.675C244.68 328.675 245.33 329.35 245.33 330.25C245.33 331.15 244.68 331.825 243.755 331.825C242.83 331.825 242.18 331.15 242.18 330.25ZM242.58 347V334.325H244.93V347H242.58ZM260.42 338.85V347H258.07V339.425C258.07 337.15 257.195 336.15 255.295 336.15C253.12 336.15 251.595 337.45 251.595 339.525V347H249.245V334.325H251.595V336.4C252.32 334.875 253.92 333.975 255.92 333.975C258.745 333.975 260.42 335.75 260.42 338.85ZM2.25 372.7V361.5H4.7V372.475C4.7 375.525 6.275 377.05 9.425 377.05C12.575 377.05 14.15 375.525 14.15 372.475V361.5H16.6V372.7C16.6 376.9 13.9 379.35 9.425 379.35C4.95 379.35 2.25 376.9 2.25 372.7ZM31.4238 379H28.7738L25.3488 374.05L21.9238 379H19.2738L23.7988 372.5L19.5238 366.325H22.1488L25.3488 371.025L28.5488 366.325H31.1738L26.8988 372.5L31.4238 379Z" fill="white"/>
<circle cx="16" cy="434" r="16" fill="white"/>
<path d="M16.8703 432.196H21.8023V437.218C20.8123 438.496 18.9583 439.252 16.7803 439.252C12.7303 439.306 10.0483 436.498 10.0843 432.736C10.0843 428.866 12.7843 426.148 16.5463 426.148C18.7603 426.148 20.5243 427.048 21.5323 428.614L20.1823 429.586C19.4083 428.434 18.1483 427.804 16.5643 427.804C13.7923 427.804 11.9383 429.784 11.9383 432.754C11.9383 435.778 13.8283 437.614 16.7803 437.614C18.2203 437.614 19.4443 437.2 20.1103 436.552V433.78H16.8703V432.196Z" fill="black"/>
<path d="M49.0854 422.4C49.0214 419.168 51.4854 416.528 54.7494 416.576C56.9094 416.576 58.7174 417.584 59.6614 419.488L58.3494 420.224C57.5974 418.768 56.3814 418.048 54.8454 418.048C52.3974 418.048 50.7334 419.888 50.7334 422.4C50.7334 424.912 52.3974 426.752 54.8454 426.752C56.3814 426.752 57.6134 426.032 58.3654 424.576L59.6614 425.312C58.7174 427.216 56.9094 428.224 54.7494 428.224C51.4694 428.272 49.0374 425.68 49.0854 422.4ZM68.7468 422.784V428H67.2428V423.152C67.2428 421.696 66.6828 421.056 65.4668 421.056C64.0748 421.056 63.0988 421.888 63.0988 423.216V428H61.5948V416.288H63.0988V421.216C63.5628 420.24 64.5868 419.664 65.8668 419.664C67.6748 419.664 68.7468 420.8 68.7468 422.784ZM71.1985 417.28C71.1985 416.704 71.6145 416.272 72.2065 416.272C72.7985 416.272 73.2145 416.704 73.2145 417.28C73.2145 417.856 72.7985 418.288 72.2065 418.288C71.6145 418.288 71.1985 417.856 71.1985 417.28ZM71.4545 428V419.888H72.9585V428H71.4545ZM82.8718 422.784V428H81.3678V423.152C81.3678 421.696 80.8078 421.056 79.5918 421.056C78.1998 421.056 77.2238 421.888 77.2238 423.216V428H75.7198V419.888H77.2238V421.216C77.6878 420.24 78.7118 419.664 79.9918 419.664C81.7998 419.664 82.8718 420.8 82.8718 422.784ZM92.9075 424.4H86.5395C86.7155 425.952 87.7235 426.864 89.2435 426.864C90.2515 426.864 91.0995 426.464 91.7555 425.664L92.7315 426.528C91.9475 427.616 90.6995 428.224 89.2115 428.224C86.7155 428.224 85.0035 426.48 85.0035 423.968C85.0035 421.488 86.6995 419.664 89.0835 419.664C91.3395 419.664 92.9555 421.296 92.9555 423.68C92.9555 423.92 92.9395 424.16 92.9075 424.4ZM86.5715 423.248H91.4355C91.3075 421.84 90.4115 421.04 89.0835 421.04C87.7235 421.04 86.8115 421.856 86.5715 423.248ZM101.334 416.288H102.838V428H101.334V426.56C100.87 427.584 99.718 428.224 98.39 428.224C96.198 428.224 94.566 426.448 94.566 423.952C94.566 421.44 96.198 419.664 98.39 419.664C99.718 419.664 100.87 420.304 101.334 421.328V416.288ZM101.398 423.952C101.398 422.24 100.358 421.056 98.774 421.056C97.99 421.056 97.35 421.328 96.854 421.872C96.374 422.4 96.134 423.104 96.134 423.952C96.134 424.8 96.374 425.488 96.854 426.032C97.35 426.56 97.99 426.832 98.774 426.832C99.558 426.832 100.198 426.56 100.678 426.032C101.158 425.488 101.398 424.8 101.398 423.952ZM105.435 424.96V419.888H106.939V424.848C106.939 426.144 107.675 426.832 108.971 426.832C110.267 426.832 111.003 426.144 111.003 424.848V419.888H112.507V424.96C112.507 425.952 112.187 426.752 111.547 427.344C110.907 427.936 110.043 428.224 108.971 428.224C106.859 428.224 105.435 426.912 105.435 424.96ZM118.367 422.4C118.303 419.168 120.767 416.528 124.031 416.576C126.191 416.576 127.999 417.584 128.943 419.488L127.631 420.224C126.879 418.768 125.663 418.048 124.127 418.048C121.679 418.048 120.015 419.888 120.015 422.4C120.015 424.912 121.679 426.752 124.127 426.752C125.663 426.752 126.895 426.032 127.647 424.576L128.943 425.312C127.999 427.216 126.191 428.224 124.031 428.224C120.751 428.272 118.319 425.68 118.367 422.4ZM138.028 422.784V428H136.524V423.152C136.524 421.696 135.964 421.056 134.748 421.056C133.356 421.056 132.38 421.888 132.38 423.216V428H130.876V416.288H132.38V421.216C132.844 420.24 133.868 419.664 135.148 419.664C136.956 419.664 138.028 420.8 138.028 422.784ZM140.56 424.96V419.888H142.064V424.848C142.064 426.144 142.8 426.832 144.096 426.832C145.392 426.832 146.128 426.144 146.128 424.848V419.888H147.632V424.96C147.632 425.952 147.312 426.752 146.672 427.344C146.032 427.936 145.168 428.224 144.096 428.224C141.984 428.224 140.56 426.912 140.56 424.96ZM155.787 428L152.971 424.4H151.739V428H150.235V416.288H151.739V423.072H153.019L155.723 419.888H157.483L154.203 423.744L157.547 428H155.787ZM158.312 426.512L159.304 425.664C159.896 426.48 160.84 426.896 161.944 426.896C163.032 426.896 163.688 426.448 163.688 425.76C163.688 425.232 163.304 424.88 162.344 424.672L161.048 424.384C159.384 423.984 158.6 423.264 158.6 422.112C158.6 420.656 159.832 419.664 161.816 419.664C163.24 419.664 164.376 420.176 165.064 421.024L164.104 421.936C163.512 421.312 162.728 421.008 161.752 421.008C160.664 421.008 160.104 421.408 160.104 422.064C160.104 422.56 160.44 422.848 161.464 423.088L162.888 423.408C164.504 423.776 165.192 424.496 165.192 425.648C165.192 427.232 163.992 428.224 161.944 428.224C160.296 428.224 158.952 427.552 158.312 426.512Z" fill="white"/>
<path d="M58.6399 440.2H60.1379V450H58.7939V442.286L55.5319 447.48H54.4119L51.1499 442.286V450H49.8199V440.2H51.3179L54.9859 446.038L58.6399 440.2ZM68.1673 442.902H69.4833V450H68.1673V448.74C67.7613 449.636 66.7673 450.196 65.6053 450.196C63.6733 450.196 62.2453 448.642 62.2453 446.458C62.2453 444.26 63.6733 442.706 65.6053 442.706C66.7673 442.706 67.7613 443.266 68.1673 444.162V442.902ZM68.2233 446.458C68.2233 444.96 67.3133 443.924 65.9273 443.924C65.2413 443.924 64.6813 444.162 64.2473 444.638C63.8273 445.1 63.6173 445.716 63.6173 446.458C63.6173 447.2 63.8273 447.802 64.2473 448.278C64.6813 448.74 65.2413 448.978 65.9273 448.978C66.6133 448.978 67.1733 448.74 67.5933 448.278C68.0133 447.802 68.2233 447.2 68.2233 446.458ZM75.9834 442.888V444.078C75.7874 444.036 75.5634 444.022 75.3254 444.022C73.9674 444.022 73.2114 444.792 73.2114 446.402V450H71.8954V442.902H73.2114V444.176C73.5474 443.294 74.3314 442.79 75.3534 442.79C75.5914 442.79 75.8014 442.818 75.9834 442.888ZM83.0358 440.2H84.1558V450H82.8118V441.642L80.2638 442.944V441.628L83.0358 440.2ZM88.1691 448.754H93.1111V450H86.2231V448.88L89.7931 445.548C90.4651 444.918 90.9271 444.414 91.1651 444.022C91.4171 443.63 91.5431 443.238 91.5431 442.832C91.5431 441.824 90.8991 441.236 89.8211 441.236C88.7151 441.236 87.8471 441.824 87.2171 443L86.1811 442.3C86.9511 440.802 88.2111 440.004 89.7931 440.004C91.6831 440.004 92.9291 441.152 92.9291 442.804C92.9291 443.854 92.4251 444.792 91.0951 446.024L88.1691 448.754ZM94.3849 452.1L95.0709 448.264H96.4289L95.4209 452.1H94.3849ZM102.976 448.754H107.918V450H101.03V448.88L104.6 445.548C105.272 444.918 105.734 444.414 105.972 444.022C106.224 443.63 106.35 443.238 106.35 442.832C106.35 441.824 105.706 441.236 104.628 441.236C103.522 441.236 102.654 441.824 102.024 443L100.988 442.3C101.758 440.802 103.018 440.004 104.6 440.004C106.49 440.004 107.736 441.152 107.736 442.804C107.736 443.854 107.232 444.792 105.902 446.024L102.976 448.754ZM109.528 445.1C109.528 441.894 111.054 440.004 113.49 440.004C115.912 440.004 117.452 441.894 117.452 445.1C117.452 448.306 115.912 450.196 113.49 450.196C111.054 450.196 109.528 448.306 109.528 445.1ZM116.038 445.1C116.038 442.524 115.128 441.25 113.49 441.25C111.824 441.25 110.928 442.524 110.928 445.1C110.928 447.676 111.824 448.95 113.49 448.95C115.128 448.95 116.038 447.676 116.038 445.1ZM120.872 448.754H125.814V450H118.926V448.88L122.496 445.548C123.168 444.918 123.63 444.414 123.868 444.022C124.12 443.63 124.246 443.238 124.246 442.832C124.246 441.824 123.602 441.236 122.524 441.236C121.418 441.236 120.55 441.824 119.92 443L118.884 442.3C119.654 440.802 120.914 440.004 122.496 440.004C124.386 440.004 125.632 441.152 125.632 442.804C125.632 443.854 125.128 444.792 123.798 446.024L120.872 448.754ZM133.878 447.172C133.878 448.992 132.492 450.196 130.308 450.196C128.894 450.196 127.69 449.706 126.808 448.74L127.62 447.844C128.362 448.586 129.244 448.964 130.294 448.964C131.708 448.964 132.506 448.264 132.506 447.13C132.506 445.954 131.652 445.38 129.58 445.38H129.034V444.456L131.904 441.418H127.326V440.2H133.514V441.32L130.63 444.372C132.688 444.47 133.878 445.45 133.878 447.172Z" fill="#737373"/>
<defs>
<clipPath id="clip0_104_15702">
<rect width="212" height="212" fill="white" transform="translate(44 44)"/>
</clipPath>
</defs>
</svg>
