<svg width="300" height="456" viewBox="0 0 300 456" fill="none" xmlns="http://www.w3.org/2000/svg">
<rect width="300" height="300" rx="16" fill="white"/>
<path d="M65.995 166.872C58.9346 163.072 53.2254 157.178 49.6533 150C40.82 128.093 78.8033 110.427 134.277 110.427C189.75 110.427 241.69 128.093 250.347 150C254.498 160.423 248.05 169.875 234.27 176.942" stroke="#E53F30" stroke-width="6" stroke-linecap="round" stroke-linejoin="round"/>
<path d="M128.093 227.822C119.939 233.874 109.976 236.987 99.8267 236.655C76.4183 233.21 79.9517 191.693 107.688 143.905C135.425 96.1167 176.5 60.0767 200.173 63.5217C212.805 65.3767 217.84 78.2734 215.013 97.1767" stroke="#E53F30" stroke-width="6" stroke-linecap="round" stroke-linejoin="round"/>
<path d="M187.188 136.838C206.798 178.708 212.805 220.578 200.173 236.478C185.51 254.94 151.148 231.178 123.412 183.478C95.675 135.778 85.1634 81.895 99.8267 63.5216C107.777 53.54 121.38 55.925 136.573 67.6733" stroke="#E53F30" stroke-width="6" stroke-linecap="round" stroke-linejoin="round"/>
<path d="M150 163.25C157.318 163.25 163.25 157.318 163.25 150C163.25 142.682 157.318 136.75 150 136.75C142.682 136.75 136.75 142.682 136.75 150C136.75 157.318 142.682 163.25 150 163.25Z" stroke="#E53F30" stroke-width="6" stroke-linecap="round" stroke-linejoin="round"/>
<path d="M14.825 347L13.025 342.4H4.85L3.05 347H0.5L7.575 329.5H10.325L17.375 347H14.825ZM5.7 340.225H12.175L8.95 331.9L5.7 340.225ZM20.7031 343.625V336.35H18.2031V334.325H20.7031V330.575H23.0531V334.325H26.9281V336.35H23.0531V343.4C23.0531 344.625 23.6281 345.125 25.0281 345.125C25.6031 345.125 26.2531 345.05 26.9781 344.9V346.875C26.2531 347.1 25.4781 347.2 24.6531 347.2C22.0281 347.2 20.7031 346 20.7031 343.625ZM28.9361 340.675C28.9361 337.025 31.5611 333.975 35.5111 333.975C39.4111 333.975 42.0611 337.025 42.0611 340.675C42.0611 344.35 39.4111 347.35 35.5111 347.35C31.5611 347.35 28.9361 344.35 28.9361 340.675ZM39.6111 340.675C39.6111 338 37.9861 336.15 35.5111 336.15C34.2861 336.15 33.2861 336.575 32.5111 337.425C31.7611 338.25 31.3861 339.35 31.3861 340.675C31.3861 342 31.7611 343.075 32.5111 343.925C33.2861 344.75 34.2861 345.175 35.5111 345.175C36.7361 345.175 37.7361 344.75 38.4861 343.925C39.2361 343.075 39.6111 342 39.6111 340.675ZM64.61 338.825V347H62.26V339.375C62.26 337.15 61.51 336.15 59.71 336.15C57.635 336.15 56.235 337.45 56.235 339.525V347H53.885V339.375C53.885 337.15 53.11 336.15 51.31 336.15C49.235 336.15 47.835 337.45 47.835 339.525V347H45.485V334.325H47.835V336.4C48.535 334.875 50.06 333.975 51.96 333.975C53.885 333.975 55.26 334.9 55.86 336.575C56.56 334.975 58.21 333.975 60.31 333.975C63.085 333.975 64.61 335.725 64.61 338.825ZM68.4498 330.25C68.4498 329.35 69.0998 328.675 70.0248 328.675C70.9498 328.675 71.5998 329.35 71.5998 330.25C71.5998 331.15 70.9498 331.825 70.0248 331.825C69.0998 331.825 68.4498 331.15 68.4498 330.25ZM68.8498 347V334.325H71.1998V347H68.8498ZM74.6393 340.675C74.6393 336.8 77.3143 333.975 81.1893 333.975C83.5143 333.975 85.4643 335 86.5393 336.775L84.7143 338.025C83.9393 336.825 82.7143 336.15 81.2143 336.15C78.7393 336.15 77.0893 337.975 77.0893 340.675C77.0893 343.375 78.7393 345.175 81.2143 345.175C82.7143 345.175 83.9393 344.525 84.7143 343.3L86.5393 344.575C85.4643 346.35 83.5143 347.35 81.1893 347.35C77.3143 347.35 74.6393 344.525 74.6393 340.675ZM110.891 338.25C110.891 343.675 107.341 347 102.266 347H95.5664V329.5H102.266C107.341 329.5 110.891 332.825 110.891 338.25ZM108.316 338.25C108.316 334.125 106.066 331.775 102.266 331.775H98.0164V344.725H102.266C106.066 344.725 108.316 342.375 108.316 338.25ZM126.052 341.375H116.102C116.377 343.8 117.952 345.225 120.327 345.225C121.902 345.225 123.227 344.6 124.252 343.35L125.777 344.7C124.552 346.4 122.602 347.35 120.277 347.35C116.377 347.35 113.702 344.625 113.702 340.7C113.702 336.825 116.352 333.975 120.077 333.975C123.602 333.975 126.127 336.525 126.127 340.25C126.127 340.625 126.102 341 126.052 341.375ZM116.152 339.575H123.752C123.552 337.375 122.152 336.125 120.077 336.125C117.952 336.125 116.527 337.4 116.152 339.575ZM128.368 344.675L129.918 343.35C130.843 344.625 132.318 345.275 134.043 345.275C135.743 345.275 136.768 344.575 136.768 343.5C136.768 342.675 136.168 342.125 134.668 341.8L132.643 341.35C130.043 340.725 128.818 339.6 128.818 337.8C128.818 335.525 130.743 333.975 133.843 333.975C136.068 333.975 137.843 334.775 138.918 336.1L137.418 337.525C136.493 336.55 135.268 336.075 133.743 336.075C132.043 336.075 131.168 336.7 131.168 337.725C131.168 338.5 131.693 338.95 133.293 339.325L135.518 339.825C138.043 340.4 139.118 341.525 139.118 343.325C139.118 345.8 137.243 347.35 134.043 347.35C131.468 347.35 129.368 346.3 128.368 344.675ZM141.985 330.25C141.985 329.35 142.635 328.675 143.56 328.675C144.485 328.675 145.135 329.35 145.135 330.25C145.135 331.15 144.485 331.825 143.56 331.825C142.635 331.825 141.985 331.15 141.985 330.25ZM142.385 347V334.325H144.735V347H142.385ZM158.749 334.325H161.099V345.55C161.099 349.925 158.674 352.35 154.449 352.35C152.049 352.35 149.949 351.575 148.649 350.275L149.924 348.55C151.099 349.575 152.699 350.2 154.399 350.2C157.199 350.2 158.749 348.625 158.749 345.55V344.45C158.024 346.025 156.274 346.975 154.174 346.975C150.724 346.975 148.174 344.3 148.174 340.475C148.174 336.675 150.724 333.975 154.174 333.975C156.249 333.975 158.024 334.975 158.749 336.55V334.325ZM158.849 340.475C158.849 339.2 158.474 338.175 157.724 337.375C156.974 336.55 155.974 336.15 154.749 336.15C153.524 336.15 152.524 336.55 151.749 337.375C150.999 338.175 150.624 339.2 150.624 340.475C150.624 343.05 152.274 344.825 154.749 344.825C155.974 344.825 156.974 344.425 157.724 343.6C158.474 342.775 158.849 341.75 158.849 340.475ZM176.582 338.85V347H174.232V339.425C174.232 337.15 173.357 336.15 171.457 336.15C169.282 336.15 167.757 337.45 167.757 339.525V347H165.407V334.325H167.757V336.4C168.482 334.875 170.082 333.975 172.082 333.975C174.907 333.975 176.582 335.75 176.582 338.85ZM180.313 345.55C180.313 344.575 180.963 343.95 181.963 343.95C182.963 343.95 183.588 344.575 183.588 345.55C183.588 346.55 182.963 347.225 181.963 347.225C180.963 347.225 180.313 346.55 180.313 345.55ZM180.313 336.325C180.313 335.35 180.963 334.725 181.963 334.725C182.963 334.725 183.588 335.35 183.588 336.325C183.588 337.325 182.963 338 181.963 338C180.963 338 180.313 337.325 180.313 336.325ZM16.075 374.275C16.075 377.15 13.95 379 10.525 379H2.5V361.5H9.925C13.3 361.5 15.425 363.3 15.425 366.025C15.425 367.95 14.375 369.35 12.475 369.975C14.775 370.5 16.075 372 16.075 374.275ZM9.75 363.7H4.95V368.975H9.75C11.85 368.975 12.925 368.025 12.925 366.325C12.925 364.625 11.85 363.7 9.75 363.7ZM13.525 373.975C13.525 372.175 12.45 371.15 10.35 371.15H4.95V376.8H10.35C12.45 376.8 13.525 375.775 13.525 373.975ZM19.3287 362.25C19.3287 361.35 19.9787 360.675 20.9037 360.675C21.8287 360.675 22.4787 361.35 22.4787 362.25C22.4787 363.15 21.8287 363.825 20.9037 363.825C19.9787 363.825 19.3287 363.15 19.3287 362.25ZM19.7287 379V366.325H22.0787V379H19.7287ZM25.5182 372.675C25.5182 369.025 28.1432 365.975 32.0932 365.975C35.9932 365.975 38.6432 369.025 38.6432 372.675C38.6432 376.35 35.9932 379.35 32.0932 379.35C28.1432 379.35 25.5182 376.35 25.5182 372.675ZM36.1932 372.675C36.1932 370 34.5682 368.15 32.0932 368.15C30.8682 368.15 29.8682 368.575 29.0932 369.425C28.3432 370.25 27.9682 371.35 27.9682 372.675C27.9682 374 28.3432 375.075 29.0932 375.925C29.8682 376.75 30.8682 377.175 32.0932 377.175C33.3182 377.175 34.3182 376.75 35.0682 375.925C35.8182 375.075 36.1932 374 36.1932 372.675ZM61.192 370.825V379H58.842V371.375C58.842 369.15 58.092 368.15 56.292 368.15C54.217 368.15 52.817 369.45 52.817 371.525V379H50.467V371.375C50.467 369.15 49.692 368.15 47.892 368.15C45.817 368.15 44.417 369.45 44.417 371.525V379H42.067V366.325H44.417V368.4C45.117 366.875 46.642 365.975 48.542 365.975C50.467 365.975 51.842 366.9 52.442 368.575C53.142 366.975 54.792 365.975 56.892 365.975C59.667 365.975 61.192 367.725 61.192 370.825ZM65.0318 362.25C65.0318 361.35 65.6818 360.675 66.6068 360.675C67.5318 360.675 68.1818 361.35 68.1818 362.25C68.1818 363.15 67.5318 363.825 66.6068 363.825C65.6818 363.825 65.0318 363.15 65.0318 362.25ZM65.4318 379V366.325H67.7818V379H65.4318ZM91.2213 370.825V379H88.8713V371.375C88.8713 369.15 88.1213 368.15 86.3213 368.15C84.2463 368.15 82.8463 369.45 82.8463 371.525V379H80.4963V371.375C80.4963 369.15 79.7213 368.15 77.9213 368.15C75.8463 368.15 74.4463 369.45 74.4463 371.525V379H72.0963V366.325H74.4463V368.4C75.1463 366.875 76.6713 365.975 78.5713 365.975C80.4963 365.975 81.8713 366.9 82.4713 368.575C83.1713 366.975 84.8213 365.975 86.9213 365.975C89.6963 365.975 91.2213 367.725 91.2213 370.825ZM95.0611 362.25C95.0611 361.35 95.7111 360.675 96.6361 360.675C97.5611 360.675 98.2111 361.35 98.2111 362.25C98.2111 363.15 97.5611 363.825 96.6361 363.825C95.7111 363.825 95.0611 363.15 95.0611 362.25ZM95.4611 379V366.325H97.8111V379H95.4611ZM101.251 372.675C101.251 368.8 103.926 365.975 107.801 365.975C110.126 365.975 112.076 367 113.151 368.775L111.326 370.025C110.551 368.825 109.326 368.15 107.826 368.15C105.351 368.15 103.701 369.975 103.701 372.675C103.701 375.375 105.351 377.175 107.826 377.175C109.326 377.175 110.551 376.525 111.326 375.3L113.151 376.575C112.076 378.35 110.126 379.35 107.801 379.35C103.926 379.35 101.251 376.525 101.251 372.675ZM123.415 366.3V368.425C123.065 368.35 122.665 368.325 122.24 368.325C119.815 368.325 118.465 369.7 118.465 372.575V379H116.115V366.325H118.465V368.6C119.065 367.025 120.465 366.125 122.29 366.125C122.715 366.125 123.09 366.175 123.415 366.3ZM134.821 366.325H137.171V377.75C137.171 382.025 134.896 384.35 130.896 384.35C128.721 384.35 126.796 383.675 125.596 382.475L126.871 380.8C127.896 381.7 129.321 382.2 130.796 382.2C133.396 382.2 134.821 380.725 134.821 377.75V376.55C134.096 378.075 132.471 378.975 130.446 378.975C127.646 378.975 125.996 377.225 125.996 374.1V366.325H128.346V373.525C128.346 375.825 129.221 376.8 131.096 376.8C133.296 376.8 134.821 375.45 134.821 373.425V366.325Z" fill="white"/>
<circle cx="16" cy="434" r="16" fill="white"/>
<path d="M16.8703 432.196H21.8023V437.218C20.8123 438.496 18.9583 439.252 16.7803 439.252C12.7303 439.306 10.0483 436.498 10.0843 432.736C10.0843 428.866 12.7843 426.148 16.5463 426.148C18.7603 426.148 20.5243 427.048 21.5323 428.614L20.1823 429.586C19.4083 428.434 18.1483 427.804 16.5643 427.804C13.7923 427.804 11.9383 429.784 11.9383 432.754C11.9383 435.778 13.8283 437.614 16.7803 437.614C18.2203 437.614 19.4443 437.2 20.1103 436.552V433.78H16.8703V432.196Z" fill="black"/>
<path d="M49.0854 422.4C49.0214 419.168 51.4854 416.528 54.7494 416.576C56.9094 416.576 58.7174 417.584 59.6614 419.488L58.3494 420.224C57.5974 418.768 56.3814 418.048 54.8454 418.048C52.3974 418.048 50.7334 419.888 50.7334 422.4C50.7334 424.912 52.3974 426.752 54.8454 426.752C56.3814 426.752 57.6134 426.032 58.3654 424.576L59.6614 425.312C58.7174 427.216 56.9094 428.224 54.7494 428.224C51.4694 428.272 49.0374 425.68 49.0854 422.4ZM68.7468 422.784V428H67.2428V423.152C67.2428 421.696 66.6828 421.056 65.4668 421.056C64.0748 421.056 63.0988 421.888 63.0988 423.216V428H61.5948V416.288H63.0988V421.216C63.5628 420.24 64.5868 419.664 65.8668 419.664C67.6748 419.664 68.7468 420.8 68.7468 422.784ZM71.1985 417.28C71.1985 416.704 71.6145 416.272 72.2065 416.272C72.7985 416.272 73.2145 416.704 73.2145 417.28C73.2145 417.856 72.7985 418.288 72.2065 418.288C71.6145 418.288 71.1985 417.856 71.1985 417.28ZM71.4545 428V419.888H72.9585V428H71.4545ZM82.8718 422.784V428H81.3678V423.152C81.3678 421.696 80.8078 421.056 79.5918 421.056C78.1998 421.056 77.2238 421.888 77.2238 423.216V428H75.7198V419.888H77.2238V421.216C77.6878 420.24 78.7118 419.664 79.9918 419.664C81.7998 419.664 82.8718 420.8 82.8718 422.784ZM92.9075 424.4H86.5395C86.7155 425.952 87.7235 426.864 89.2435 426.864C90.2515 426.864 91.0995 426.464 91.7555 425.664L92.7315 426.528C91.9475 427.616 90.6995 428.224 89.2115 428.224C86.7155 428.224 85.0035 426.48 85.0035 423.968C85.0035 421.488 86.6995 419.664 89.0835 419.664C91.3395 419.664 92.9555 421.296 92.9555 423.68C92.9555 423.92 92.9395 424.16 92.9075 424.4ZM86.5715 423.248H91.4355C91.3075 421.84 90.4115 421.04 89.0835 421.04C87.7235 421.04 86.8115 421.856 86.5715 423.248ZM101.334 416.288H102.838V428H101.334V426.56C100.87 427.584 99.718 428.224 98.39 428.224C96.198 428.224 94.566 426.448 94.566 423.952C94.566 421.44 96.198 419.664 98.39 419.664C99.718 419.664 100.87 420.304 101.334 421.328V416.288ZM101.398 423.952C101.398 422.24 100.358 421.056 98.774 421.056C97.99 421.056 97.35 421.328 96.854 421.872C96.374 422.4 96.134 423.104 96.134 423.952C96.134 424.8 96.374 425.488 96.854 426.032C97.35 426.56 97.99 426.832 98.774 426.832C99.558 426.832 100.198 426.56 100.678 426.032C101.158 425.488 101.398 424.8 101.398 423.952ZM105.435 424.96V419.888H106.939V424.848C106.939 426.144 107.675 426.832 108.971 426.832C110.267 426.832 111.003 426.144 111.003 424.848V419.888H112.507V424.96C112.507 425.952 112.187 426.752 111.547 427.344C110.907 427.936 110.043 428.224 108.971 428.224C106.859 428.224 105.435 426.912 105.435 424.96ZM118.367 422.4C118.303 419.168 120.767 416.528 124.031 416.576C126.191 416.576 127.999 417.584 128.943 419.488L127.631 420.224C126.879 418.768 125.663 418.048 124.127 418.048C121.679 418.048 120.015 419.888 120.015 422.4C120.015 424.912 121.679 426.752 124.127 426.752C125.663 426.752 126.895 426.032 127.647 424.576L128.943 425.312C127.999 427.216 126.191 428.224 124.031 428.224C120.751 428.272 118.319 425.68 118.367 422.4ZM138.028 422.784V428H136.524V423.152C136.524 421.696 135.964 421.056 134.748 421.056C133.356 421.056 132.38 421.888 132.38 423.216V428H130.876V416.288H132.38V421.216C132.844 420.24 133.868 419.664 135.148 419.664C136.956 419.664 138.028 420.8 138.028 422.784ZM140.56 424.96V419.888H142.064V424.848C142.064 426.144 142.8 426.832 144.096 426.832C145.392 426.832 146.128 426.144 146.128 424.848V419.888H147.632V424.96C147.632 425.952 147.312 426.752 146.672 427.344C146.032 427.936 145.168 428.224 144.096 428.224C141.984 428.224 140.56 426.912 140.56 424.96ZM155.787 428L152.971 424.4H151.739V428H150.235V416.288H151.739V423.072H153.019L155.723 419.888H157.483L154.203 423.744L157.547 428H155.787ZM158.312 426.512L159.304 425.664C159.896 426.48 160.84 426.896 161.944 426.896C163.032 426.896 163.688 426.448 163.688 425.76C163.688 425.232 163.304 424.88 162.344 424.672L161.048 424.384C159.384 423.984 158.6 423.264 158.6 422.112C158.6 420.656 159.832 419.664 161.816 419.664C163.24 419.664 164.376 420.176 165.064 421.024L164.104 421.936C163.512 421.312 162.728 421.008 161.752 421.008C160.664 421.008 160.104 421.408 160.104 422.064C160.104 422.56 160.44 422.848 161.464 423.088L162.888 423.408C164.504 423.776 165.192 424.496 165.192 425.648C165.192 427.232 163.992 428.224 161.944 428.224C160.296 428.224 158.952 427.552 158.312 426.512Z" fill="white"/>
<path d="M58.6399 440.2H60.1379V450H58.7939V442.286L55.5319 447.48H54.4119L51.1499 442.286V450H49.8199V440.2H51.3179L54.9859 446.038L58.6399 440.2ZM68.1673 442.902H69.4833V450H68.1673V448.74C67.7613 449.636 66.7673 450.196 65.6053 450.196C63.6733 450.196 62.2453 448.642 62.2453 446.458C62.2453 444.26 63.6733 442.706 65.6053 442.706C66.7673 442.706 67.7613 443.266 68.1673 444.162V442.902ZM68.2233 446.458C68.2233 444.96 67.3133 443.924 65.9273 443.924C65.2413 443.924 64.6813 444.162 64.2473 444.638C63.8273 445.1 63.6173 445.716 63.6173 446.458C63.6173 447.2 63.8273 447.802 64.2473 448.278C64.6813 448.74 65.2413 448.978 65.9273 448.978C66.6133 448.978 67.1733 448.74 67.5933 448.278C68.0133 447.802 68.2233 447.2 68.2233 446.458ZM75.9834 442.888V444.078C75.7874 444.036 75.5634 444.022 75.3254 444.022C73.9674 444.022 73.2114 444.792 73.2114 446.402V450H71.8954V442.902H73.2114V444.176C73.5474 443.294 74.3314 442.79 75.3534 442.79C75.5914 442.79 75.8014 442.818 75.9834 442.888ZM83.0358 440.2H84.1558V450H82.8118V441.642L80.2638 442.944V441.628L83.0358 440.2ZM88.1691 448.754H93.1111V450H86.2231V448.88L89.7931 445.548C90.4651 444.918 90.9271 444.414 91.1651 444.022C91.4171 443.63 91.5431 443.238 91.5431 442.832C91.5431 441.824 90.8991 441.236 89.8211 441.236C88.7151 441.236 87.8471 441.824 87.2171 443L86.1811 442.3C86.9511 440.802 88.2111 440.004 89.7931 440.004C91.6831 440.004 92.9291 441.152 92.9291 442.804C92.9291 443.854 92.4251 444.792 91.0951 446.024L88.1691 448.754ZM94.3849 452.1L95.0709 448.264H96.4289L95.4209 452.1H94.3849ZM102.976 448.754H107.918V450H101.03V448.88L104.6 445.548C105.272 444.918 105.734 444.414 105.972 444.022C106.224 443.63 106.35 443.238 106.35 442.832C106.35 441.824 105.706 441.236 104.628 441.236C103.522 441.236 102.654 441.824 102.024 443L100.988 442.3C101.758 440.802 103.018 440.004 104.6 440.004C106.49 440.004 107.736 441.152 107.736 442.804C107.736 443.854 107.232 444.792 105.902 446.024L102.976 448.754ZM109.528 445.1C109.528 441.894 111.054 440.004 113.49 440.004C115.912 440.004 117.452 441.894 117.452 445.1C117.452 448.306 115.912 450.196 113.49 450.196C111.054 450.196 109.528 448.306 109.528 445.1ZM116.038 445.1C116.038 442.524 115.128 441.25 113.49 441.25C111.824 441.25 110.928 442.524 110.928 445.1C110.928 447.676 111.824 448.95 113.49 448.95C115.128 448.95 116.038 447.676 116.038 445.1ZM120.872 448.754H125.814V450H118.926V448.88L122.496 445.548C123.168 444.918 123.63 444.414 123.868 444.022C124.12 443.63 124.246 443.238 124.246 442.832C124.246 441.824 123.602 441.236 122.524 441.236C121.418 441.236 120.55 441.824 119.92 443L118.884 442.3C119.654 440.802 120.914 440.004 122.496 440.004C124.386 440.004 125.632 441.152 125.632 442.804C125.632 443.854 125.128 444.792 123.798 446.024L120.872 448.754ZM133.878 447.172C133.878 448.992 132.492 450.196 130.308 450.196C128.894 450.196 127.69 449.706 126.808 448.74L127.62 447.844C128.362 448.586 129.244 448.964 130.294 448.964C131.708 448.964 132.506 448.264 132.506 447.13C132.506 445.954 131.652 445.38 129.58 445.38H129.034V444.456L131.904 441.418H127.326V440.2H133.514V441.32L130.63 444.372C132.688 444.47 133.878 445.45 133.878 447.172Z" fill="#737373"/>
</svg>
