<svg width="169" height="80" viewBox="0 0 169 80" fill="none" xmlns="http://www.w3.org/2000/svg">
<rect width="169" height="80" rx="8" fill="#FFF6F0"/>
<path d="M19.3164 30.56H25.6364V32H17.7484V20.8H25.4764V22.24H19.3164V25.632H25.1404V27.056H19.3164V30.56ZM34.2324 20.288H35.7364V32H34.2324V30.56C33.7684 31.584 32.6164 32.224 31.2884 32.224C29.0964 32.224 27.4644 30.448 27.4644 27.952C27.4644 25.44 29.0964 23.664 31.2884 23.664C32.6164 23.664 33.7684 24.304 34.2324 25.328V20.288ZM34.2964 27.952C34.2964 26.24 33.2564 25.056 31.6724 25.056C30.8884 25.056 30.2484 25.328 29.7524 25.872C29.2724 26.4 29.0324 27.104 29.0324 27.952C29.0324 28.8 29.2724 29.488 29.7524 30.032C30.2484 30.56 30.8884 30.832 31.6724 30.832C32.4564 30.832 33.0964 30.56 33.5764 30.032C34.0564 29.488 34.2964 28.8 34.2964 27.952ZM44.7012 23.888H46.2052V31.072C46.2052 33.872 44.6532 35.424 41.9492 35.424C40.4132 35.424 39.0692 34.928 38.2372 34.096L39.0532 32.992C39.8052 33.648 40.8292 34.048 41.9172 34.048C43.7092 34.048 44.7012 33.04 44.7012 31.072V30.368C44.2372 31.376 43.1172 31.984 41.7732 31.984C39.5652 31.984 37.9332 30.272 37.9332 27.824C37.9332 25.392 39.5652 23.664 41.7732 23.664C43.1012 23.664 44.2372 24.304 44.7012 25.312V23.888ZM44.7652 27.824C44.7652 27.008 44.5252 26.352 44.0452 25.84C43.5652 25.312 42.9252 25.056 42.1412 25.056C41.3572 25.056 40.7172 25.312 40.2212 25.84C39.7412 26.352 39.5012 27.008 39.5012 27.824C39.5012 29.472 40.5572 30.608 42.1412 30.608C42.9252 30.608 43.5652 30.352 44.0452 29.824C44.5252 29.296 44.7652 28.64 44.7652 27.824ZM56.3059 28.4H49.9379C50.1139 29.952 51.1219 30.864 52.6419 30.864C53.6499 30.864 54.4979 30.464 55.1539 29.664L56.1299 30.528C55.3459 31.616 54.0979 32.224 52.6099 32.224C50.1139 32.224 48.4019 30.48 48.4019 27.968C48.4019 25.488 50.0979 23.664 52.4819 23.664C54.7379 23.664 56.3539 25.296 56.3539 27.68C56.3539 27.92 56.3379 28.16 56.3059 28.4ZM49.9699 27.248H54.8339C54.7059 25.84 53.8099 25.04 52.4819 25.04C51.1219 25.04 50.2099 25.856 49.9699 27.248ZM61.6207 27.952C61.6207 25.472 63.3327 23.664 65.8127 23.664C67.3007 23.664 68.5487 24.32 69.2367 25.456L68.0687 26.256C67.5727 25.488 66.7887 25.056 65.8287 25.056C64.2447 25.056 63.1887 26.224 63.1887 27.952C63.1887 29.68 64.2447 30.832 65.8287 30.832C66.7887 30.832 67.5727 30.416 68.0687 29.632L69.2367 30.448C68.5487 31.584 67.3007 32.224 65.8127 32.224C63.3327 32.224 61.6207 30.416 61.6207 27.952ZM77.3106 23.888H78.8146V32H77.3106V30.56C76.8466 31.584 75.7106 32.224 74.3826 32.224C72.1746 32.224 70.5426 30.448 70.5426 27.952C70.5426 25.44 72.1746 23.664 74.3826 23.664C75.7106 23.664 76.8466 24.304 77.3106 25.328V23.888ZM77.3746 27.952C77.3746 26.24 76.3346 25.056 74.7506 25.056C73.9666 25.056 73.3266 25.328 72.8306 25.872C72.3506 26.4 72.1106 27.104 72.1106 27.952C72.1106 28.8 72.3506 29.488 72.8306 30.032C73.3266 30.56 73.9666 30.832 74.7506 30.832C75.5346 30.832 76.1746 30.56 76.6546 30.032C77.1346 29.488 77.3746 28.8 77.3746 27.952ZM80.8353 30.512L81.8273 29.664C82.4193 30.48 83.3633 30.896 84.4673 30.896C85.5553 30.896 86.2113 30.448 86.2113 29.76C86.2113 29.232 85.8273 28.88 84.8673 28.672L83.5713 28.384C81.9073 27.984 81.1233 27.264 81.1233 26.112C81.1233 24.656 82.3553 23.664 84.3393 23.664C85.7633 23.664 86.8993 24.176 87.5873 25.024L86.6273 25.936C86.0353 25.312 85.2513 25.008 84.2753 25.008C83.1873 25.008 82.6273 25.408 82.6273 26.064C82.6273 26.56 82.9633 26.848 83.9873 27.088L85.4113 27.408C87.0273 27.776 87.7153 28.496 87.7153 29.648C87.7153 31.232 86.5153 32.224 84.4673 32.224C82.8193 32.224 81.4753 31.552 80.8353 30.512ZM97.1341 28.4H90.7661C90.9421 29.952 91.9501 30.864 93.4701 30.864C94.4781 30.864 95.3261 30.464 95.9821 29.664L96.9581 30.528C96.1741 31.616 94.9261 32.224 93.4381 32.224C90.9421 32.224 89.2301 30.48 89.2301 27.968C89.2301 25.488 90.9261 23.664 93.3101 23.664C95.5661 23.664 97.1821 25.296 97.1821 27.68C97.1821 27.92 97.1661 28.16 97.1341 28.4ZM90.7981 27.248H95.6621C95.5341 25.84 94.6381 25.04 93.3101 25.04C91.9501 25.04 91.0381 25.856 90.7981 27.248ZM107.681 23.872V25.232C107.457 25.184 107.201 25.168 106.929 25.168C105.377 25.168 104.513 26.048 104.513 27.888V32H103.009V23.888H104.513V25.344C104.897 24.336 105.793 23.76 106.961 23.76C107.233 23.76 107.473 23.792 107.681 23.872ZM116.478 28.4H110.11C110.286 29.952 111.294 30.864 112.814 30.864C113.822 30.864 114.67 30.464 115.326 29.664L116.302 30.528C115.518 31.616 114.27 32.224 112.782 32.224C110.286 32.224 108.574 30.48 108.574 27.968C108.574 25.488 110.27 23.664 112.654 23.664C114.91 23.664 116.526 25.296 116.526 27.68C116.526 27.92 116.51 28.16 116.478 28.4ZM110.142 27.248H115.006C114.878 25.84 113.982 25.04 112.654 25.04C111.294 25.04 110.382 25.856 110.142 27.248ZM123.87 23.888H125.486L122.222 32H120.606L117.358 23.888H118.958L121.422 30.352L123.87 23.888ZM126.894 21.28C126.894 20.704 127.31 20.272 127.902 20.272C128.494 20.272 128.91 20.704 128.91 21.28C128.91 21.856 128.494 22.288 127.902 22.288C127.31 22.288 126.894 21.856 126.894 21.28ZM127.15 32V23.888H128.654V32H127.15ZM138.759 28.4H132.391C132.567 29.952 133.575 30.864 135.095 30.864C136.103 30.864 136.951 30.464 137.607 29.664L138.583 30.528C137.799 31.616 136.551 32.224 135.063 32.224C132.567 32.224 130.855 30.48 130.855 27.968C130.855 25.488 132.551 23.664 134.935 23.664C137.191 23.664 138.807 25.296 138.807 27.68C138.807 27.92 138.791 28.16 138.759 28.4ZM132.423 27.248H137.287C137.159 25.84 136.263 25.04 134.935 25.04C133.575 25.04 132.663 25.856 132.423 27.248ZM150.997 23.888H152.517L149.893 32H148.229L146.149 25.648L144.069 32H142.421L139.797 23.888H141.317L143.285 30.208L145.365 23.888H146.949L149.013 30.192L150.997 23.888ZM57.3308 56H55.5868L54.6268 54.912C53.7468 55.792 52.6908 56.224 51.4268 56.224C49.3148 56.224 47.7948 54.896 47.7948 53.136C47.7948 51.92 48.4988 50.88 50.0988 49.968L50.1948 49.92C49.1868 48.784 48.8028 48.032 48.8028 47.184C48.8028 45.728 50.0348 44.576 51.7788 44.576C53.4748 44.576 54.7388 45.616 54.7388 47.136C54.7388 48.208 54.0988 49.184 52.8028 49.952L52.2908 50.24L54.4668 52.72C54.7388 52.16 54.9468 51.456 55.0588 50.608H56.4668C56.2748 51.904 55.9228 52.976 55.4268 53.84L57.3308 56ZM50.2748 47.184C50.2748 47.696 50.5788 48.288 51.1708 48.96L51.4428 49.28L52.1308 48.88C52.9468 48.416 53.2988 47.92 53.2988 47.28C53.2988 46.448 52.6588 45.904 51.7788 45.904C50.8988 45.904 50.2748 46.464 50.2748 47.184ZM53.6668 53.888L51.0588 50.896L50.9468 50.96C49.8108 51.616 49.3628 52.288 49.3628 53.072C49.3628 54.144 50.1948 54.848 51.4268 54.848C52.2908 54.848 53.0428 54.528 53.6668 53.888ZM67.3839 47.872V49.232C67.1599 49.184 66.9039 49.168 66.6319 49.168C65.0799 49.168 64.2159 50.048 64.2159 51.888V56H62.7119V47.888H64.2159V49.344C64.5999 48.336 65.4959 47.76 66.6639 47.76C66.9359 47.76 67.1759 47.792 67.3839 47.872ZM76.1809 52.4H69.8129C69.9889 53.952 70.9969 54.864 72.5169 54.864C73.5249 54.864 74.3729 54.464 75.0289 53.664L76.0049 54.528C75.2209 55.616 73.9729 56.224 72.4849 56.224C69.9889 56.224 68.2769 54.48 68.2769 51.968C68.2769 49.488 69.9729 47.664 72.3569 47.664C74.6129 47.664 76.2289 49.296 76.2289 51.68C76.2289 51.92 76.2129 52.16 76.1809 52.4ZM69.8449 51.248H74.7089C74.5809 49.84 73.6849 49.04 72.3569 49.04C70.9969 49.04 70.0849 49.856 69.8449 51.248ZM83.5731 47.888H85.1891L81.9251 56H80.3091L77.0611 47.888H78.6611L81.1251 54.352L83.5731 47.888ZM86.5969 45.28C86.5969 44.704 87.0129 44.272 87.6049 44.272C88.1969 44.272 88.6129 44.704 88.6129 45.28C88.6129 45.856 88.1969 46.288 87.6049 46.288C87.0129 46.288 86.5969 45.856 86.5969 45.28ZM86.8529 56V47.888H88.3569V56H86.8529ZM90.3822 54.512L91.3742 53.664C91.9662 54.48 92.9102 54.896 94.0142 54.896C95.1022 54.896 95.7582 54.448 95.7582 53.76C95.7582 53.232 95.3742 52.88 94.4142 52.672L93.1182 52.384C91.4542 51.984 90.6702 51.264 90.6702 50.112C90.6702 48.656 91.9022 47.664 93.8862 47.664C95.3102 47.664 96.4462 48.176 97.1342 49.024L96.1742 49.936C95.5822 49.312 94.7982 49.008 93.8222 49.008C92.7342 49.008 92.1742 49.408 92.1742 50.064C92.1742 50.56 92.5102 50.848 93.5342 51.088L94.9582 51.408C96.5742 51.776 97.2622 52.496 97.2622 53.648C97.2622 55.232 96.0622 56.224 94.0142 56.224C92.3662 56.224 91.0222 55.552 90.3822 54.512ZM99.0969 45.28C99.0969 44.704 99.5129 44.272 100.105 44.272C100.697 44.272 101.113 44.704 101.113 45.28C101.113 45.856 100.697 46.288 100.105 46.288C99.5129 46.288 99.0969 45.856 99.0969 45.28ZM99.3529 56V47.888H100.857V56H99.3529ZM103.058 51.952C103.058 49.616 104.738 47.664 107.266 47.664C109.762 47.664 111.458 49.616 111.458 51.952C111.458 54.304 109.762 56.224 107.266 56.224C104.738 56.224 103.058 54.304 103.058 51.952ZM109.89 51.952C109.89 50.24 108.85 49.056 107.266 49.056C106.482 49.056 105.842 49.328 105.346 49.872C104.866 50.4 104.626 51.104 104.626 51.952C104.626 52.8 104.866 53.488 105.346 54.032C105.842 54.56 106.482 54.832 107.266 54.832C108.05 54.832 108.69 54.56 109.17 54.032C109.65 53.488 109.89 52.8 109.89 51.952ZM120.801 50.784V56H119.297V51.152C119.297 49.696 118.737 49.056 117.521 49.056C116.129 49.056 115.153 49.888 115.153 51.216V56H113.649V47.888H115.153V49.216C115.617 48.24 116.641 47.664 117.921 47.664C119.729 47.664 120.801 48.8 120.801 50.784Z" fill="#C46217"/>
</svg>
