<svg width="300" height="456" viewBox="0 0 300 456" fill="none" xmlns="http://www.w3.org/2000/svg">
<rect width="300" height="300" rx="16" fill="white"/>
<path d="M113.274 249.765C112.935 249.767 112.598 249.715 112.276 249.609C111.495 249.34 110.853 248.771 110.491 248.029C110.128 247.287 110.075 246.431 110.344 245.649L174.941 56.4707H121.505L56.3147 247.645C56.0244 248.398 55.4534 249.009 54.7218 249.349C53.9902 249.69 53.155 249.734 52.3919 249.471C51.6287 249.209 50.9971 248.661 50.6298 247.942C50.2625 247.224 50.1881 246.391 50.4224 245.618L116.361 52.3242C116.573 51.7158 116.969 51.1883 117.494 50.8142C118.019 50.4402 118.647 50.2379 119.291 50.2354H179.212C179.708 50.2341 180.197 50.351 180.638 50.5765C181.08 50.802 181.461 51.1295 181.751 51.5318C182.04 51.9342 182.23 52.3998 182.304 52.89C182.377 53.3803 182.333 53.881 182.174 54.3507L116.236 247.645C116.027 248.264 115.628 248.802 115.097 249.182C114.565 249.563 113.928 249.766 113.274 249.765Z" fill="#21B56D"/>
<path d="M186.726 249.765C186.072 249.766 185.435 249.563 184.903 249.182C184.372 248.802 183.973 248.264 183.764 247.645L117.826 54.3505C117.675 53.9595 117.605 53.5421 117.619 53.1233C117.633 52.7045 117.732 52.2929 117.909 51.913C118.085 51.5331 118.337 51.1927 118.648 50.9123C118.96 50.6319 119.325 50.4171 119.721 50.2808C120.117 50.1445 120.537 50.0895 120.955 50.1191C121.373 50.1487 121.781 50.2622 122.154 50.453C122.527 50.6437 122.858 50.9077 123.127 51.2292C123.395 51.5507 123.597 51.923 123.718 52.3241L189.656 245.618C189.925 246.4 189.872 247.255 189.509 247.998C189.147 248.74 188.505 249.308 187.724 249.578C187.403 249.694 187.066 249.757 186.726 249.765ZM246.647 249.765C245.993 249.766 245.356 249.563 244.824 249.182C244.293 248.802 243.894 248.264 243.685 247.645L177.747 54.3505C177.513 53.5783 177.587 52.7452 177.954 52.0267C178.322 51.3081 178.953 50.7599 179.717 50.4975C180.48 50.235 181.315 50.2787 182.047 50.6193C182.778 50.96 183.349 51.5711 183.639 52.3241L249.578 245.618C249.846 246.4 249.793 247.255 249.43 247.998C249.068 248.74 248.426 249.308 247.645 249.578C247.325 249.694 246.988 249.757 246.647 249.765Z" fill="#21B56D"/>
<path d="M170.701 81.4116H110.78C109.953 81.4116 109.16 81.0831 108.575 80.4984C107.991 79.9138 107.662 79.1208 107.662 78.2939C107.662 77.4671 107.991 76.6741 108.575 76.0894C109.16 75.5047 109.953 75.1763 110.78 75.1763H170.701C171.528 75.1763 172.321 75.5047 172.906 76.0894C173.49 76.6741 173.819 77.4671 173.819 78.2939C173.819 79.1208 173.49 79.9138 172.906 80.4984C172.321 81.0831 171.528 81.4116 170.701 81.4116ZM162.19 106.353H102.269C101.442 106.353 100.649 106.024 100.064 105.44C99.4796 104.855 99.1512 104.062 99.1512 103.235C99.1512 102.408 99.4796 101.615 100.064 101.031C100.649 100.446 101.442 100.117 102.269 100.117H162.19C163.017 100.117 163.81 100.446 164.394 101.031C164.979 101.615 165.308 102.408 165.308 103.235C165.308 104.062 164.979 104.855 164.394 105.44C163.81 106.024 163.017 106.353 162.19 106.353ZM153.679 131.294H93.8823C93.0555 131.294 92.2625 130.965 91.6778 130.381C91.0932 129.796 90.7647 129.003 90.7647 128.176C90.7647 127.349 91.0932 126.556 91.6778 125.972C92.2625 125.387 93.0555 125.059 93.8823 125.059H153.679C154.506 125.059 155.299 125.387 155.883 125.972C156.468 126.556 156.796 127.349 156.796 128.176C156.796 129.003 156.468 129.796 155.883 130.381C155.299 130.965 154.506 131.294 153.679 131.294ZM145.199 156.235H85.2776C84.4508 156.235 83.6578 155.907 83.0731 155.322C82.4885 154.737 82.16 153.944 82.16 153.117C82.16 152.291 82.4885 151.498 83.0731 150.913C83.6578 150.328 84.4508 150 85.2776 150H145.199C146.026 150 146.819 150.328 147.403 150.913C147.988 151.498 148.316 152.291 148.316 153.117C148.316 153.944 147.988 154.737 147.403 155.322C146.819 155.907 146.026 156.235 145.199 156.235ZM136.688 181.176H76.7665C75.9396 181.176 75.1466 180.848 74.562 180.263C73.9773 179.678 73.6488 178.885 73.6488 178.059C73.6488 177.232 73.9773 176.439 74.562 175.854C75.1466 175.269 75.9396 174.941 76.7665 174.941H136.688C137.514 174.941 138.307 175.269 138.892 175.854C139.477 176.439 139.805 177.232 139.805 178.059C139.805 178.885 139.477 179.678 138.892 180.263C138.307 180.848 137.514 181.176 136.688 181.176ZM128.176 206.117H68.2553C67.4284 206.117 66.6354 205.789 66.0508 205.204C65.4661 204.62 65.1376 203.827 65.1376 203C65.1376 202.173 65.4661 201.38 66.0508 200.795C66.6354 200.211 67.4284 199.882 68.2553 199.882H128.176C129.003 199.882 129.796 200.211 130.381 200.795C130.966 201.38 131.294 202.173 131.294 203C131.294 203.827 130.966 204.62 130.381 205.204C129.796 205.789 129.003 206.117 128.176 206.117ZM119.665 231.059H59.5882C58.7614 231.059 57.9684 230.73 57.3837 230.145C56.799 229.561 56.4706 228.768 56.4706 227.941C56.4706 227.114 56.799 226.321 57.3837 225.736C57.9684 225.152 58.7614 224.823 59.5882 224.823H119.665C120.492 224.823 121.285 225.152 121.87 225.736C122.454 226.321 122.783 227.114 122.783 227.941C122.783 228.768 122.454 229.561 121.87 230.145C121.285 230.73 120.492 231.059 119.665 231.059Z" fill="#21B56D"/>
<path d="M14.55 329.5H17.025V347H14.55V339.175H4.95V347H2.5V329.5H4.95V336.875H14.55V329.5ZM20.7818 340.675C20.7818 337.025 23.4068 333.975 27.3568 333.975C31.2568 333.975 33.9068 337.025 33.9068 340.675C33.9068 344.35 31.2568 347.35 27.3568 347.35C23.4068 347.35 20.7818 344.35 20.7818 340.675ZM31.4568 340.675C31.4568 338 29.8318 336.15 27.3568 336.15C26.1318 336.15 25.1318 336.575 24.3568 337.425C23.6068 338.25 23.2318 339.35 23.2318 340.675C23.2318 342 23.6068 343.075 24.3568 343.925C25.1318 344.75 26.1318 345.175 27.3568 345.175C28.5818 345.175 29.5818 344.75 30.3318 343.925C31.0818 343.075 31.4568 342 31.4568 340.675ZM52.9859 334.325H55.3609L51.2609 347H48.6609L45.4109 337.075L42.1609 347H39.5859L35.4859 334.325H37.8609L40.9359 344.2L44.1859 334.325H46.6609L49.8859 344.175L52.9859 334.325ZM64.1113 343.625V336.35H61.6113V334.325H64.1113V330.575H66.4613V334.325H70.3363V336.35H66.4613V343.4C66.4613 344.625 67.0363 345.125 68.4363 345.125C69.0113 345.125 69.6613 345.05 70.3863 344.9V346.875C69.6613 347.1 68.8863 347.2 68.0613 347.2C65.4363 347.2 64.1113 346 64.1113 343.625ZM72.3443 340.675C72.3443 337.025 74.9693 333.975 78.9193 333.975C82.8193 333.975 85.4693 337.025 85.4693 340.675C85.4693 344.35 82.8193 347.35 78.9193 347.35C74.9693 347.35 72.3443 344.35 72.3443 340.675ZM83.0193 340.675C83.0193 338 81.3943 336.15 78.9193 336.15C77.6943 336.15 76.6943 336.575 75.9193 337.425C75.1693 338.25 74.7943 339.35 74.7943 340.675C74.7943 342 75.1693 343.075 75.9193 343.925C76.6943 344.75 77.6943 345.175 78.9193 345.175C80.1443 345.175 81.1443 344.75 81.8943 343.925C82.6443 343.075 83.0193 342 83.0193 340.675ZM104.306 334.325H106.656V347H104.306V344.75C103.581 346.35 101.806 347.35 99.7311 347.35C96.2811 347.35 93.7311 344.575 93.7311 340.675C93.7311 336.75 96.2811 333.975 99.7311 333.975C101.806 333.975 103.581 334.975 104.306 336.575V334.325ZM104.406 340.675C104.406 338 102.781 336.15 100.306 336.15C99.0811 336.15 98.0811 336.575 97.3061 337.425C96.5561 338.25 96.1811 339.35 96.1811 340.675C96.1811 342 96.5561 343.075 97.3061 343.925C98.0811 344.75 99.0811 345.175 100.306 345.175C101.531 345.175 102.531 344.75 103.281 343.925C104.031 343.075 104.406 342 104.406 340.675ZM118.263 334.3V336.425C117.913 336.35 117.513 336.325 117.088 336.325C114.663 336.325 113.313 337.7 113.313 340.575V347H110.963V334.325H113.313V336.6C113.913 335.025 115.313 334.125 117.138 334.125C117.563 334.125 117.938 334.175 118.263 334.3ZM119.659 340.675C119.659 336.8 122.334 333.975 126.209 333.975C128.534 333.975 130.484 335 131.559 336.775L129.734 338.025C128.959 336.825 127.734 336.15 126.234 336.15C123.759 336.15 122.109 337.975 122.109 340.675C122.109 343.375 123.759 345.175 126.234 345.175C127.734 345.175 128.959 344.525 129.734 343.3L131.559 344.575C130.484 346.35 128.534 347.35 126.209 347.35C122.334 347.35 119.659 344.525 119.659 340.675ZM145.698 338.85V347H143.348V339.425C143.348 337.15 142.473 336.15 140.573 336.15C138.398 336.15 136.873 337.45 136.873 339.525V347H134.523V328.7H136.873V336.4C137.598 334.875 139.198 333.975 141.198 333.975C144.023 333.975 145.698 335.75 145.698 338.85ZM149.529 330.25C149.529 329.35 150.179 328.675 151.104 328.675C152.029 328.675 152.679 329.35 152.679 330.25C152.679 331.15 152.029 331.825 151.104 331.825C150.179 331.825 149.529 331.15 149.529 330.25ZM149.929 347V334.325H152.279V347H149.929ZM157.568 343.625V336.35H155.068V334.325H157.568V330.575H159.918V334.325H163.793V336.35H159.918V343.4C159.918 344.625 160.493 345.125 161.893 345.125C162.468 345.125 163.118 345.05 163.843 344.9V346.875C163.118 347.1 162.343 347.2 161.518 347.2C158.893 347.2 157.568 346 157.568 343.625ZM178.151 341.375H168.201C168.476 343.8 170.051 345.225 172.426 345.225C174.001 345.225 175.326 344.6 176.351 343.35L177.876 344.7C176.651 346.4 174.701 347.35 172.376 347.35C168.476 347.35 165.801 344.625 165.801 340.7C165.801 336.825 168.451 333.975 172.176 333.975C175.701 333.975 178.226 336.525 178.226 340.25C178.226 340.625 178.201 341 178.151 341.375ZM168.251 339.575H175.851C175.651 337.375 174.251 336.125 172.176 336.125C170.051 336.125 168.626 337.4 168.251 339.575ZM180.743 340.675C180.743 336.8 183.418 333.975 187.293 333.975C189.618 333.975 191.568 335 192.643 336.775L190.818 338.025C190.043 336.825 188.818 336.15 187.318 336.15C184.843 336.15 183.193 337.975 183.193 340.675C183.193 343.375 184.843 345.175 187.318 345.175C188.818 345.175 190.043 344.525 190.818 343.3L192.643 344.575C191.568 346.35 189.618 347.35 187.293 347.35C183.418 347.35 180.743 344.525 180.743 340.675ZM196.777 343.625V336.35H194.277V334.325H196.777V330.575H199.127V334.325H203.002V336.35H199.127V343.4C199.127 344.625 199.702 345.125 201.102 345.125C201.677 345.125 202.327 345.05 203.052 344.9V346.875C202.327 347.1 201.552 347.2 200.727 347.2C198.102 347.2 196.777 346 196.777 343.625ZM221.542 334.325H223.892V347H221.542V344.75C220.817 346.35 219.042 347.35 216.967 347.35C213.517 347.35 210.967 344.575 210.967 340.675C210.967 336.75 213.517 333.975 216.967 333.975C219.042 333.975 220.817 334.975 221.542 336.575V334.325ZM221.642 340.675C221.642 338 220.017 336.15 217.542 336.15C216.317 336.15 215.317 336.575 214.542 337.425C213.792 338.25 213.417 339.35 213.417 340.675C213.417 342 213.792 343.075 214.542 343.925C215.317 344.75 216.317 345.175 217.542 345.175C218.767 345.175 219.767 344.75 220.517 343.925C221.267 343.075 221.642 342 221.642 340.675ZM11.85 360.7H14.2V379H11.85V376.75C11.125 378.35 9.325 379.35 7.25 379.35C3.825 379.35 1.275 376.575 1.275 372.675C1.275 368.75 3.825 365.975 7.25 365.975C9.325 365.975 11.125 366.975 11.85 368.575V360.7ZM11.95 372.675C11.95 370 10.325 368.15 7.85 368.15C6.625 368.15 5.625 368.575 4.85 369.425C4.1 370.25 3.725 371.35 3.725 372.675C3.725 374 4.1 375.075 4.85 375.925C5.625 376.75 6.625 377.175 7.85 377.175C9.075 377.175 10.075 376.75 10.825 375.925C11.575 375.075 11.95 374 11.95 372.675ZM29.9824 373.375H20.0324C20.3074 375.8 21.8824 377.225 24.2574 377.225C25.8324 377.225 27.1574 376.6 28.1824 375.35L29.7074 376.7C28.4824 378.4 26.5324 379.35 24.2074 379.35C20.3074 379.35 17.6324 376.625 17.6324 372.7C17.6324 368.825 20.2824 365.975 24.0074 365.975C27.5324 365.975 30.0574 368.525 30.0574 372.25C30.0574 372.625 30.0324 373 29.9824 373.375ZM20.0824 371.575H27.6824C27.4824 369.375 26.0824 368.125 24.0074 368.125C21.8824 368.125 20.4574 369.4 20.0824 371.575ZM32.2988 376.675L33.8488 375.35C34.7738 376.625 36.2488 377.275 37.9738 377.275C39.6738 377.275 40.6988 376.575 40.6988 375.5C40.6988 374.675 40.0988 374.125 38.5988 373.8L36.5738 373.35C33.9738 372.725 32.7488 371.6 32.7488 369.8C32.7488 367.525 34.6738 365.975 37.7738 365.975C39.9988 365.975 41.7738 366.775 42.8488 368.1L41.3488 369.525C40.4238 368.55 39.1988 368.075 37.6738 368.075C35.9738 368.075 35.0988 368.7 35.0988 369.725C35.0988 370.5 35.6238 370.95 37.2238 371.325L39.4488 371.825C41.9738 372.4 43.0488 373.525 43.0488 375.325C43.0488 377.8 41.1738 379.35 37.9738 379.35C35.3988 379.35 33.2988 378.3 32.2988 376.675ZM45.9156 362.25C45.9156 361.35 46.5656 360.675 47.4906 360.675C48.4156 360.675 49.0656 361.35 49.0656 362.25C49.0656 363.15 48.4156 363.825 47.4906 363.825C46.5656 363.825 45.9156 363.15 45.9156 362.25ZM46.3156 379V366.325H48.6656V379H46.3156ZM62.6801 366.325H65.0301V377.55C65.0301 381.925 62.6051 384.35 58.3801 384.35C55.9801 384.35 53.8801 383.575 52.5801 382.275L53.8551 380.55C55.0301 381.575 56.6301 382.2 58.3301 382.2C61.1301 382.2 62.6801 380.625 62.6801 377.55V376.45C61.9551 378.025 60.2051 378.975 58.1051 378.975C54.6551 378.975 52.1051 376.3 52.1051 372.475C52.1051 368.675 54.6551 365.975 58.1051 365.975C60.1801 365.975 61.9551 366.975 62.6801 368.55V366.325ZM62.7801 372.475C62.7801 371.2 62.4051 370.175 61.6551 369.375C60.9051 368.55 59.9051 368.15 58.6801 368.15C57.4551 368.15 56.4551 368.55 55.6801 369.375C54.9301 370.175 54.5551 371.2 54.5551 372.475C54.5551 375.05 56.2051 376.825 58.6801 376.825C59.9051 376.825 60.9051 376.425 61.6551 375.6C62.4051 374.775 62.7801 373.75 62.7801 372.475ZM80.5125 370.85V379H78.1625V371.425C78.1625 369.15 77.2875 368.15 75.3875 368.15C73.2125 368.15 71.6875 369.45 71.6875 371.525V379H69.3375V366.325H71.6875V368.4C72.4125 366.875 74.0125 365.975 76.0125 365.975C78.8375 365.975 80.5125 367.75 80.5125 370.85ZM89.2813 376.675L90.8313 375.35C91.7563 376.625 93.2313 377.275 94.9563 377.275C96.6563 377.275 97.6813 376.575 97.6813 375.5C97.6813 374.675 97.0813 374.125 95.5813 373.8L93.5563 373.35C90.9563 372.725 89.7313 371.6 89.7313 369.8C89.7313 367.525 91.6563 365.975 94.7563 365.975C96.9813 365.975 98.7563 366.775 99.8313 368.1L98.3313 369.525C97.4063 368.55 96.1813 368.075 94.6563 368.075C92.9563 368.075 92.0813 368.7 92.0813 369.725C92.0813 370.5 92.6063 370.95 94.2063 371.325L96.4313 371.825C98.9563 372.4 100.031 373.525 100.031 375.325C100.031 377.8 98.1563 379.35 94.9563 379.35C92.3813 379.35 90.2813 378.3 89.2813 376.675ZM111.798 366.325H114.148V377.75C114.148 382.025 111.873 384.35 107.873 384.35C105.698 384.35 103.773 383.675 102.573 382.475L103.848 380.8C104.873 381.7 106.298 382.2 107.773 382.2C110.373 382.2 111.798 380.725 111.798 377.75V376.55C111.073 378.075 109.448 378.975 107.423 378.975C104.623 378.975 102.973 377.225 102.973 374.1V366.325H105.323V373.525C105.323 375.825 106.198 376.8 108.073 376.8C110.273 376.8 111.798 375.45 111.798 373.425V366.325ZM117.309 376.675L118.859 375.35C119.784 376.625 121.259 377.275 122.984 377.275C124.684 377.275 125.709 376.575 125.709 375.5C125.709 374.675 125.109 374.125 123.609 373.8L121.584 373.35C118.984 372.725 117.759 371.6 117.759 369.8C117.759 367.525 119.684 365.975 122.784 365.975C125.009 365.975 126.784 366.775 127.859 368.1L126.359 369.525C125.434 368.55 124.209 368.075 122.684 368.075C120.984 368.075 120.109 368.7 120.109 369.725C120.109 370.5 120.634 370.95 122.234 371.325L124.459 371.825C126.984 372.4 128.059 373.525 128.059 375.325C128.059 377.8 126.184 379.35 122.984 379.35C120.409 379.35 118.309 378.3 117.309 376.675ZM132.227 375.625V368.35H129.727V366.325H132.227V362.575H134.577V366.325H138.452V368.35H134.577V375.4C134.577 376.625 135.152 377.125 136.552 377.125C137.127 377.125 137.777 377.05 138.502 376.9V378.875C137.777 379.1 137.002 379.2 136.177 379.2C133.552 379.2 132.227 378 132.227 375.625ZM152.81 373.375H142.86C143.135 375.8 144.71 377.225 147.085 377.225C148.66 377.225 149.985 376.6 151.01 375.35L152.535 376.7C151.31 378.4 149.36 379.35 147.035 379.35C143.135 379.35 140.46 376.625 140.46 372.7C140.46 368.825 143.11 365.975 146.835 365.975C150.36 365.975 152.885 368.525 152.885 372.25C152.885 372.625 152.86 373 152.81 373.375ZM142.91 371.575H150.51C150.31 369.375 148.91 368.125 146.835 368.125C144.71 368.125 143.285 369.4 142.91 371.575ZM175.401 370.825V379H173.051V371.375C173.051 369.15 172.301 368.15 170.501 368.15C168.426 368.15 167.026 369.45 167.026 371.525V379H164.676V371.375C164.676 369.15 163.901 368.15 162.101 368.15C160.026 368.15 158.626 369.45 158.626 371.525V379H156.276V366.325H158.626V368.4C159.326 366.875 160.851 365.975 162.751 365.975C164.676 365.975 166.051 366.9 166.651 368.575C167.351 366.975 169.001 365.975 171.101 365.975C173.876 365.975 175.401 367.725 175.401 370.825Z" fill="white"/>
<circle cx="16" cy="434" r="16" fill="white"/>
<path d="M16.8703 432.196H21.8023V437.218C20.8123 438.496 18.9583 439.252 16.7803 439.252C12.7303 439.306 10.0483 436.498 10.0843 432.736C10.0843 428.866 12.7843 426.148 16.5463 426.148C18.7603 426.148 20.5243 427.048 21.5323 428.614L20.1823 429.586C19.4083 428.434 18.1483 427.804 16.5643 427.804C13.7923 427.804 11.9383 429.784 11.9383 432.754C11.9383 435.778 13.8283 437.614 16.7803 437.614C18.2203 437.614 19.4443 437.2 20.1103 436.552V433.78H16.8703V432.196Z" fill="black"/>
<path d="M49.0854 422.4C49.0214 419.168 51.4854 416.528 54.7494 416.576C56.9094 416.576 58.7174 417.584 59.6614 419.488L58.3494 420.224C57.5974 418.768 56.3814 418.048 54.8454 418.048C52.3974 418.048 50.7334 419.888 50.7334 422.4C50.7334 424.912 52.3974 426.752 54.8454 426.752C56.3814 426.752 57.6134 426.032 58.3654 424.576L59.6614 425.312C58.7174 427.216 56.9094 428.224 54.7494 428.224C51.4694 428.272 49.0374 425.68 49.0854 422.4ZM68.7468 422.784V428H67.2428V423.152C67.2428 421.696 66.6828 421.056 65.4668 421.056C64.0748 421.056 63.0988 421.888 63.0988 423.216V428H61.5948V416.288H63.0988V421.216C63.5628 420.24 64.5868 419.664 65.8668 419.664C67.6748 419.664 68.7468 420.8 68.7468 422.784ZM71.1985 417.28C71.1985 416.704 71.6145 416.272 72.2065 416.272C72.7985 416.272 73.2145 416.704 73.2145 417.28C73.2145 417.856 72.7985 418.288 72.2065 418.288C71.6145 418.288 71.1985 417.856 71.1985 417.28ZM71.4545 428V419.888H72.9585V428H71.4545ZM82.8718 422.784V428H81.3678V423.152C81.3678 421.696 80.8078 421.056 79.5918 421.056C78.1998 421.056 77.2238 421.888 77.2238 423.216V428H75.7198V419.888H77.2238V421.216C77.6878 420.24 78.7118 419.664 79.9918 419.664C81.7998 419.664 82.8718 420.8 82.8718 422.784ZM92.9075 424.4H86.5395C86.7155 425.952 87.7235 426.864 89.2435 426.864C90.2515 426.864 91.0995 426.464 91.7555 425.664L92.7315 426.528C91.9475 427.616 90.6995 428.224 89.2115 428.224C86.7155 428.224 85.0035 426.48 85.0035 423.968C85.0035 421.488 86.6995 419.664 89.0835 419.664C91.3395 419.664 92.9555 421.296 92.9555 423.68C92.9555 423.92 92.9395 424.16 92.9075 424.4ZM86.5715 423.248H91.4355C91.3075 421.84 90.4115 421.04 89.0835 421.04C87.7235 421.04 86.8115 421.856 86.5715 423.248ZM101.334 416.288H102.838V428H101.334V426.56C100.87 427.584 99.718 428.224 98.39 428.224C96.198 428.224 94.566 426.448 94.566 423.952C94.566 421.44 96.198 419.664 98.39 419.664C99.718 419.664 100.87 420.304 101.334 421.328V416.288ZM101.398 423.952C101.398 422.24 100.358 421.056 98.774 421.056C97.99 421.056 97.35 421.328 96.854 421.872C96.374 422.4 96.134 423.104 96.134 423.952C96.134 424.8 96.374 425.488 96.854 426.032C97.35 426.56 97.99 426.832 98.774 426.832C99.558 426.832 100.198 426.56 100.678 426.032C101.158 425.488 101.398 424.8 101.398 423.952ZM105.435 424.96V419.888H106.939V424.848C106.939 426.144 107.675 426.832 108.971 426.832C110.267 426.832 111.003 426.144 111.003 424.848V419.888H112.507V424.96C112.507 425.952 112.187 426.752 111.547 427.344C110.907 427.936 110.043 428.224 108.971 428.224C106.859 428.224 105.435 426.912 105.435 424.96ZM118.367 422.4C118.303 419.168 120.767 416.528 124.031 416.576C126.191 416.576 127.999 417.584 128.943 419.488L127.631 420.224C126.879 418.768 125.663 418.048 124.127 418.048C121.679 418.048 120.015 419.888 120.015 422.4C120.015 424.912 121.679 426.752 124.127 426.752C125.663 426.752 126.895 426.032 127.647 424.576L128.943 425.312C127.999 427.216 126.191 428.224 124.031 428.224C120.751 428.272 118.319 425.68 118.367 422.4ZM138.028 422.784V428H136.524V423.152C136.524 421.696 135.964 421.056 134.748 421.056C133.356 421.056 132.38 421.888 132.38 423.216V428H130.876V416.288H132.38V421.216C132.844 420.24 133.868 419.664 135.148 419.664C136.956 419.664 138.028 420.8 138.028 422.784ZM140.56 424.96V419.888H142.064V424.848C142.064 426.144 142.8 426.832 144.096 426.832C145.392 426.832 146.128 426.144 146.128 424.848V419.888H147.632V424.96C147.632 425.952 147.312 426.752 146.672 427.344C146.032 427.936 145.168 428.224 144.096 428.224C141.984 428.224 140.56 426.912 140.56 424.96ZM155.787 428L152.971 424.4H151.739V428H150.235V416.288H151.739V423.072H153.019L155.723 419.888H157.483L154.203 423.744L157.547 428H155.787ZM158.312 426.512L159.304 425.664C159.896 426.48 160.84 426.896 161.944 426.896C163.032 426.896 163.688 426.448 163.688 425.76C163.688 425.232 163.304 424.88 162.344 424.672L161.048 424.384C159.384 423.984 158.6 423.264 158.6 422.112C158.6 420.656 159.832 419.664 161.816 419.664C163.24 419.664 164.376 420.176 165.064 421.024L164.104 421.936C163.512 421.312 162.728 421.008 161.752 421.008C160.664 421.008 160.104 421.408 160.104 422.064C160.104 422.56 160.44 422.848 161.464 423.088L162.888 423.408C164.504 423.776 165.192 424.496 165.192 425.648C165.192 427.232 163.992 428.224 161.944 428.224C160.296 428.224 158.952 427.552 158.312 426.512Z" fill="white"/>
<path d="M58.6399 440.2H60.1379V450H58.7939V442.286L55.5319 447.48H54.4119L51.1499 442.286V450H49.8199V440.2H51.3179L54.9859 446.038L58.6399 440.2ZM68.1673 442.902H69.4833V450H68.1673V448.74C67.7613 449.636 66.7673 450.196 65.6053 450.196C63.6733 450.196 62.2453 448.642 62.2453 446.458C62.2453 444.26 63.6733 442.706 65.6053 442.706C66.7673 442.706 67.7613 443.266 68.1673 444.162V442.902ZM68.2233 446.458C68.2233 444.96 67.3133 443.924 65.9273 443.924C65.2413 443.924 64.6813 444.162 64.2473 444.638C63.8273 445.1 63.6173 445.716 63.6173 446.458C63.6173 447.2 63.8273 447.802 64.2473 448.278C64.6813 448.74 65.2413 448.978 65.9273 448.978C66.6133 448.978 67.1733 448.74 67.5933 448.278C68.0133 447.802 68.2233 447.2 68.2233 446.458ZM75.9834 442.888V444.078C75.7874 444.036 75.5634 444.022 75.3254 444.022C73.9674 444.022 73.2114 444.792 73.2114 446.402V450H71.8954V442.902H73.2114V444.176C73.5474 443.294 74.3314 442.79 75.3534 442.79C75.5914 442.79 75.8014 442.818 75.9834 442.888ZM83.0358 440.2H84.1558V450H82.8118V441.642L80.2638 442.944V441.628L83.0358 440.2ZM88.1691 448.754H93.1111V450H86.2231V448.88L89.7931 445.548C90.4651 444.918 90.9271 444.414 91.1651 444.022C91.4171 443.63 91.5431 443.238 91.5431 442.832C91.5431 441.824 90.8991 441.236 89.8211 441.236C88.7151 441.236 87.8471 441.824 87.2171 443L86.1811 442.3C86.9511 440.802 88.2111 440.004 89.7931 440.004C91.6831 440.004 92.9291 441.152 92.9291 442.804C92.9291 443.854 92.4251 444.792 91.0951 446.024L88.1691 448.754ZM94.3849 452.1L95.0709 448.264H96.4289L95.4209 452.1H94.3849ZM102.976 448.754H107.918V450H101.03V448.88L104.6 445.548C105.272 444.918 105.734 444.414 105.972 444.022C106.224 443.63 106.35 443.238 106.35 442.832C106.35 441.824 105.706 441.236 104.628 441.236C103.522 441.236 102.654 441.824 102.024 443L100.988 442.3C101.758 440.802 103.018 440.004 104.6 440.004C106.49 440.004 107.736 441.152 107.736 442.804C107.736 443.854 107.232 444.792 105.902 446.024L102.976 448.754ZM109.528 445.1C109.528 441.894 111.054 440.004 113.49 440.004C115.912 440.004 117.452 441.894 117.452 445.1C117.452 448.306 115.912 450.196 113.49 450.196C111.054 450.196 109.528 448.306 109.528 445.1ZM116.038 445.1C116.038 442.524 115.128 441.25 113.49 441.25C111.824 441.25 110.928 442.524 110.928 445.1C110.928 447.676 111.824 448.95 113.49 448.95C115.128 448.95 116.038 447.676 116.038 445.1ZM120.872 448.754H125.814V450H118.926V448.88L122.496 445.548C123.168 444.918 123.63 444.414 123.868 444.022C124.12 443.63 124.246 443.238 124.246 442.832C124.246 441.824 123.602 441.236 122.524 441.236C121.418 441.236 120.55 441.824 119.92 443L118.884 442.3C119.654 440.802 120.914 440.004 122.496 440.004C124.386 440.004 125.632 441.152 125.632 442.804C125.632 443.854 125.128 444.792 123.798 446.024L120.872 448.754ZM133.878 447.172C133.878 448.992 132.492 450.196 130.308 450.196C128.894 450.196 127.69 449.706 126.808 448.74L127.62 447.844C128.362 448.586 129.244 448.964 130.294 448.964C131.708 448.964 132.506 448.264 132.506 447.13C132.506 445.954 131.652 445.38 129.58 445.38H129.034V444.456L131.904 441.418H127.326V440.2H133.514V441.32L130.63 444.372C132.688 444.47 133.878 445.45 133.878 447.172Z" fill="#737373"/>
</svg>
