<svg width="300" height="456" viewBox="0 0 300 456" fill="none" xmlns="http://www.w3.org/2000/svg">
<rect width="300" height="300" rx="16" fill="white"/>
<g clip-path="url(#clip0_104_15704)">
<path d="M233.917 158.233C247.512 145.125 255.438 127.218 256 108.342C256 58.3983 231.558 53.01 221.055 53.01C194.838 53.01 169.08 78.6267 150.027 101.779C131.114 78.821 105.277 53.01 78.9888 53.01C42.3393 50.7133 28.9303 124.304 66.1363 158.242C67.691 159.779 69.3075 161.218 70.9417 162.57C63.1632 170.026 57.62 179.506 54.9358 189.941C52.2516 200.377 52.533 211.354 55.7483 221.638C57.2337 226.699 59.8277 231.366 63.342 235.299C66.8563 239.231 71.2025 242.332 76.065 244.375C80.7813 246.393 85.8874 247.336 91.0133 247.136C96.1392 246.936 101.156 245.598 105.701 243.218C118.772 236.44 130.731 227.706 141.167 217.319V238.333C141.167 240.676 142.097 242.923 143.754 244.579C145.41 246.236 147.657 247.167 150 247.167C152.343 247.167 154.59 246.236 156.246 244.579C157.903 242.923 158.833 240.676 158.833 238.333V217.319C169.275 227.708 181.244 236.439 194.326 243.209C198.869 245.592 203.886 246.933 209.012 247.134C214.138 247.336 219.245 246.394 223.962 244.375C228.823 242.333 233.168 239.233 236.682 235.302C240.196 231.37 242.791 226.706 244.278 221.647C247.602 211.35 247.98 200.328 245.368 189.828C242.757 179.327 237.26 169.766 229.5 162.225C231.011 160.971 232.486 159.646 233.917 158.233ZM141.167 182.118C141.167 195.174 122.793 214.289 97.4682 227.574C95.2404 228.755 92.7743 229.416 90.2547 229.508C87.7351 229.599 85.2274 229.12 82.9197 228.104C80.4687 227.07 78.2789 225.503 76.5095 223.517C74.7401 221.53 73.4356 219.175 72.6907 216.621C70.1527 208.68 70.1187 200.151 72.5932 192.19C75.0678 184.229 79.9312 177.222 86.5237 172.119C93.21 174.955 100.39 176.444 107.653 176.5C119.128 176.658 130.519 174.535 141.167 170.255V182.118ZM141.167 149.868C131.172 156.398 119.342 159.542 107.423 158.833C101.968 158.711 96.5948 157.481 91.6294 155.218C86.664 152.956 82.2102 149.708 78.5383 145.672C68.3577 135.849 62.3479 122.485 61.755 108.351C61.755 84.4125 68.0532 70.6855 79.0242 70.6855C94.7563 70.6767 115.603 86.9123 141.167 119.004V149.868ZM158.833 119.083C184.273 87.0183 205.226 70.6767 221.055 70.6767C232.035 70.6767 238.333 84.4037 238.333 108.342C237.739 122.476 231.729 135.839 221.55 145.663C214.138 153.629 203.889 158.36 193.018 158.833C180.955 159.54 168.981 156.384 158.833 149.823V119.083ZM227.309 216.674C226.566 219.228 225.261 221.585 223.492 223.571C221.722 225.558 219.532 227.124 217.08 228.157C214.772 229.171 212.264 229.649 209.744 229.555C207.225 229.462 204.759 228.8 202.532 227.619C177.207 214.289 158.833 195.174 158.833 182.118V170.237C169.496 174.53 180.907 176.659 192.4 176.5C199.77 176.48 207.058 174.947 213.812 171.995C220.441 177.096 225.307 184.144 227.728 192.15C230.148 200.156 230.002 208.72 227.309 216.639V216.674ZM132.333 61.6667C132.333 56.9812 134.195 52.4876 137.508 49.1744C140.821 45.8613 145.315 44 150 44C154.686 44 159.179 45.8613 162.492 49.1744C165.805 52.4876 167.667 56.9812 167.667 61.6667C167.667 66.3522 165.805 70.8457 162.492 74.1589C159.179 77.472 154.686 79.3333 150 79.3333C145.315 79.3333 140.821 77.472 137.508 74.1589C134.195 70.8457 132.333 66.3522 132.333 61.6667Z" fill="#1064FF"/>
</g>
<path d="M4.95 344.75H14.825V347H2.5V329.5H14.575V331.75H4.95V337.05H14.05V339.275H4.95V344.75ZM27.1039 334.325H29.6289L24.5289 347H22.0039L16.9289 334.325H19.4289L23.2789 344.425L27.1039 334.325ZM30.9625 340.675C30.9625 337.025 33.5875 333.975 37.5375 333.975C41.4375 333.975 44.0875 337.025 44.0875 340.675C44.0875 344.35 41.4375 347.35 37.5375 347.35C33.5875 347.35 30.9625 344.35 30.9625 340.675ZM41.6375 340.675C41.6375 338 40.0125 336.15 37.5375 336.15C36.3125 336.15 35.3125 336.575 34.5375 337.425C33.7875 338.25 33.4125 339.35 33.4125 340.675C33.4125 342 33.7875 343.075 34.5375 343.925C35.3125 344.75 36.3125 345.175 37.5375 345.175C38.7625 345.175 39.7625 344.75 40.5125 343.925C41.2625 343.075 41.6375 342 41.6375 340.675ZM47.5113 347V328.7H49.8613V347H47.5113ZM62.602 334.325H65.127L60.027 347H57.502L52.427 334.325H54.927L58.777 344.425L62.602 334.325ZM67.3268 330.25C67.3268 329.35 67.9768 328.675 68.9018 328.675C69.8268 328.675 70.4768 329.35 70.4768 330.25C70.4768 331.15 69.8268 331.825 68.9018 331.825C67.9768 331.825 67.3268 331.15 67.3268 330.25ZM67.7268 347V334.325H70.0768V347H67.7268ZM85.5662 338.85V347H83.2162V339.425C83.2162 337.15 82.3412 336.15 80.4412 336.15C78.2662 336.15 76.7412 337.45 76.7412 339.525V347H74.3912V334.325H76.7412V336.4C77.4662 334.875 79.0662 333.975 81.0662 333.975C83.8912 333.975 85.5662 335.75 85.5662 338.85ZM99.4721 334.325H101.822V345.55C101.822 349.925 99.3971 352.35 95.1721 352.35C92.7721 352.35 90.6721 351.575 89.3721 350.275L90.6471 348.55C91.8221 349.575 93.4221 350.2 95.1221 350.2C97.9221 350.2 99.4721 348.625 99.4721 345.55V344.45C98.7471 346.025 96.9971 346.975 94.8971 346.975C91.4471 346.975 88.8971 344.3 88.8971 340.475C88.8971 336.675 91.4471 333.975 94.8971 333.975C96.9721 333.975 98.7471 334.975 99.4721 336.55V334.325ZM99.5721 340.475C99.5721 339.2 99.1971 338.175 98.4471 337.375C97.6971 336.55 96.6971 336.15 95.4721 336.15C94.2471 336.15 93.2471 336.55 92.4721 337.375C91.7221 338.175 91.3471 339.2 91.3471 340.475C91.3471 343.05 92.9971 344.825 95.4721 344.825C96.6971 344.825 97.6971 344.425 98.4471 343.6C99.1971 342.775 99.5721 341.75 99.5721 340.475ZM112.451 343.625V336.35H109.951V334.325H112.451V330.575H114.801V334.325H118.676V336.35H114.801V343.4C114.801 344.625 115.376 345.125 116.776 345.125C117.351 345.125 118.001 345.05 118.726 344.9V346.875C118.001 347.1 117.226 347.2 116.401 347.2C113.776 347.2 112.451 346 112.451 343.625ZM132.978 338.85V347H130.628V339.425C130.628 337.15 129.753 336.15 127.853 336.15C125.678 336.15 124.153 337.45 124.153 339.525V347H121.803V328.7H124.153V336.4C124.878 334.875 126.478 333.975 128.478 333.975C131.303 333.975 132.978 335.75 132.978 338.85ZM148.659 341.375H138.709C138.984 343.8 140.559 345.225 142.934 345.225C144.509 345.225 145.834 344.6 146.859 343.35L148.384 344.7C147.159 346.4 145.209 347.35 142.884 347.35C138.984 347.35 136.309 344.625 136.309 340.7C136.309 336.825 138.959 333.975 142.684 333.975C146.209 333.975 148.734 336.525 148.734 340.25C148.734 340.625 148.709 341 148.659 341.375ZM138.759 339.575H146.359C146.159 337.375 144.759 336.125 142.684 336.125C140.559 336.125 139.134 337.4 138.759 339.575ZM167.538 328.7H169.888V347H167.538V344.75C166.813 346.35 165.013 347.35 162.938 347.35C159.513 347.35 156.963 344.575 156.963 340.675C156.963 336.75 159.513 333.975 162.938 333.975C165.013 333.975 166.813 334.975 167.538 336.575V328.7ZM167.638 340.675C167.638 338 166.013 336.15 163.538 336.15C162.313 336.15 161.313 336.575 160.538 337.425C159.788 338.25 159.413 339.35 159.413 340.675C159.413 342 159.788 343.075 160.538 343.925C161.313 344.75 162.313 345.175 163.538 345.175C164.763 345.175 165.763 344.75 166.513 343.925C167.263 343.075 167.638 342 167.638 340.675ZM185.671 341.375H175.721C175.996 343.8 177.571 345.225 179.946 345.225C181.521 345.225 182.846 344.6 183.871 343.35L185.396 344.7C184.171 346.4 182.221 347.35 179.896 347.35C175.996 347.35 173.321 344.625 173.321 340.7C173.321 336.825 175.971 333.975 179.696 333.975C183.221 333.975 185.746 336.525 185.746 340.25C185.746 340.625 185.721 341 185.671 341.375ZM175.771 339.575H183.371C183.171 337.375 181.771 336.125 179.696 336.125C177.571 336.125 176.146 337.4 175.771 339.575ZM187.987 344.675L189.537 343.35C190.462 344.625 191.937 345.275 193.662 345.275C195.362 345.275 196.387 344.575 196.387 343.5C196.387 342.675 195.787 342.125 194.287 341.8L192.262 341.35C189.662 340.725 188.437 339.6 188.437 337.8C188.437 335.525 190.362 333.975 193.462 333.975C195.687 333.975 197.462 334.775 198.537 336.1L197.037 337.525C196.112 336.55 194.887 336.075 193.362 336.075C191.662 336.075 190.787 336.7 190.787 337.725C190.787 338.5 191.312 338.95 192.912 339.325L195.137 339.825C197.662 340.4 198.737 341.525 198.737 343.325C198.737 345.8 196.862 347.35 193.662 347.35C191.087 347.35 188.987 346.3 187.987 344.675ZM201.604 330.25C201.604 329.35 202.254 328.675 203.179 328.675C204.104 328.675 204.754 329.35 204.754 330.25C204.754 331.15 204.104 331.825 203.179 331.825C202.254 331.825 201.604 331.15 201.604 330.25ZM202.004 347V334.325H204.354V347H202.004ZM218.369 334.325H220.719V345.55C220.719 349.925 218.294 352.35 214.069 352.35C211.669 352.35 209.569 351.575 208.269 350.275L209.544 348.55C210.719 349.575 212.319 350.2 214.019 350.2C216.819 350.2 218.369 348.625 218.369 345.55V344.45C217.644 346.025 215.894 346.975 213.794 346.975C210.344 346.975 207.794 344.3 207.794 340.475C207.794 336.675 210.344 333.975 213.794 333.975C215.869 333.975 217.644 334.975 218.369 336.55V334.325ZM218.469 340.475C218.469 339.2 218.094 338.175 217.344 337.375C216.594 336.55 215.594 336.15 214.369 336.15C213.144 336.15 212.144 336.55 211.369 337.375C210.619 338.175 210.244 339.2 210.244 340.475C210.244 343.05 211.894 344.825 214.369 344.825C215.594 344.825 216.594 344.425 217.344 343.6C218.094 342.775 218.469 341.75 218.469 340.475ZM236.201 338.85V347H233.851V339.425C233.851 337.15 232.976 336.15 231.076 336.15C228.901 336.15 227.376 337.45 227.376 339.525V347H225.026V334.325H227.376V336.4C228.101 334.875 229.701 333.975 231.701 333.975C234.526 333.975 236.201 335.75 236.201 338.85ZM21.275 370.825V379H18.925V371.375C18.925 369.15 18.175 368.15 16.375 368.15C14.3 368.15 12.9 369.45 12.9 371.525V379H10.55V371.375C10.55 369.15 9.775 368.15 7.975 368.15C5.9 368.15 4.5 369.45 4.5 371.525V379H2.15V366.325H4.5V368.4C5.2 366.875 6.725 365.975 8.625 365.975C10.55 365.975 11.925 366.9 12.525 368.575C13.225 366.975 14.875 365.975 16.975 365.975C19.75 365.975 21.275 367.725 21.275 370.825ZM25.1148 362.25C25.1148 361.35 25.7648 360.675 26.6898 360.675C27.6148 360.675 28.2648 361.35 28.2648 362.25C28.2648 363.15 27.6148 363.825 26.6898 363.825C25.7648 363.825 25.1148 363.15 25.1148 362.25ZM25.5148 379V366.325H27.8648V379H25.5148ZM43.3543 370.85V379H41.0043V371.425C41.0043 369.15 40.1293 368.15 38.2293 368.15C36.0543 368.15 34.5293 369.45 34.5293 371.525V379H32.1793V366.325H34.5293V368.4C35.2543 366.875 36.8543 365.975 38.8543 365.975C41.6793 365.975 43.3543 367.75 43.3543 370.85ZM57.2602 360.7H59.6102V379H57.2602V376.75C56.5352 378.35 54.7352 379.35 52.6602 379.35C49.2352 379.35 46.6852 376.575 46.6852 372.675C46.6852 368.75 49.2352 365.975 52.6602 365.975C54.7352 365.975 56.5352 366.975 57.2602 368.575V360.7ZM57.3602 372.675C57.3602 370 55.7352 368.15 53.2602 368.15C52.0352 368.15 51.0352 368.575 50.2602 369.425C49.5102 370.25 49.1352 371.35 49.1352 372.675C49.1352 374 49.5102 375.075 50.2602 375.925C51.0352 376.75 52.0352 377.175 53.2602 377.175C54.4852 377.175 55.4852 376.75 56.2352 375.925C56.9852 375.075 57.3602 374 57.3602 372.675ZM62.7676 376.675L64.3176 375.35C65.2426 376.625 66.7176 377.275 68.4426 377.275C70.1426 377.275 71.1676 376.575 71.1676 375.5C71.1676 374.675 70.5676 374.125 69.0676 373.8L67.0426 373.35C64.4426 372.725 63.2176 371.6 63.2176 369.8C63.2176 367.525 65.1426 365.975 68.2426 365.975C70.4676 365.975 72.2426 366.775 73.3176 368.1L71.8176 369.525C70.8926 368.55 69.6676 368.075 68.1426 368.075C66.4426 368.075 65.5676 368.7 65.5676 369.725C65.5676 370.5 66.0926 370.95 67.6926 371.325L69.9176 371.825C72.4426 372.4 73.5176 373.525 73.5176 375.325C73.5176 377.8 71.6426 379.35 68.4426 379.35C65.8676 379.35 63.7676 378.3 62.7676 376.675ZM88.2344 373.375H78.2844C78.5594 375.8 80.1344 377.225 82.5094 377.225C84.0844 377.225 85.4094 376.6 86.4344 375.35L87.9594 376.7C86.7344 378.4 84.7844 379.35 82.4594 379.35C78.5594 379.35 75.8844 376.625 75.8844 372.7C75.8844 368.825 78.5344 365.975 82.2594 365.975C85.7844 365.975 88.3094 368.525 88.3094 372.25C88.3094 372.625 88.2844 373 88.2344 373.375ZM78.3344 371.575H85.9344C85.7344 369.375 84.3344 368.125 82.2594 368.125C80.1344 368.125 78.7094 369.4 78.3344 371.575ZM92.4316 375.625V368.35H89.9316V366.325H92.4316V362.575H94.7816V366.325H98.6566V368.35H94.7816V375.4C94.7816 376.625 95.3566 377.125 96.7566 377.125C97.3316 377.125 97.9816 377.05 98.7066 376.9V378.875C97.9816 379.1 97.2066 379.2 96.3816 379.2C93.7566 379.2 92.4316 378 92.4316 375.625Z" fill="white"/>
<circle cx="16" cy="434" r="16" fill="white"/>
<path d="M16.8703 432.196H21.8023V437.218C20.8123 438.496 18.9583 439.252 16.7803 439.252C12.7303 439.306 10.0483 436.498 10.0843 432.736C10.0843 428.866 12.7843 426.148 16.5463 426.148C18.7603 426.148 20.5243 427.048 21.5323 428.614L20.1823 429.586C19.4083 428.434 18.1483 427.804 16.5643 427.804C13.7923 427.804 11.9383 429.784 11.9383 432.754C11.9383 435.778 13.8283 437.614 16.7803 437.614C18.2203 437.614 19.4443 437.2 20.1103 436.552V433.78H16.8703V432.196Z" fill="black"/>
<path d="M49.0854 422.4C49.0214 419.168 51.4854 416.528 54.7494 416.576C56.9094 416.576 58.7174 417.584 59.6614 419.488L58.3494 420.224C57.5974 418.768 56.3814 418.048 54.8454 418.048C52.3974 418.048 50.7334 419.888 50.7334 422.4C50.7334 424.912 52.3974 426.752 54.8454 426.752C56.3814 426.752 57.6134 426.032 58.3654 424.576L59.6614 425.312C58.7174 427.216 56.9094 428.224 54.7494 428.224C51.4694 428.272 49.0374 425.68 49.0854 422.4ZM68.7468 422.784V428H67.2428V423.152C67.2428 421.696 66.6828 421.056 65.4668 421.056C64.0748 421.056 63.0988 421.888 63.0988 423.216V428H61.5948V416.288H63.0988V421.216C63.5628 420.24 64.5868 419.664 65.8668 419.664C67.6748 419.664 68.7468 420.8 68.7468 422.784ZM71.1985 417.28C71.1985 416.704 71.6145 416.272 72.2065 416.272C72.7985 416.272 73.2145 416.704 73.2145 417.28C73.2145 417.856 72.7985 418.288 72.2065 418.288C71.6145 418.288 71.1985 417.856 71.1985 417.28ZM71.4545 428V419.888H72.9585V428H71.4545ZM82.8718 422.784V428H81.3678V423.152C81.3678 421.696 80.8078 421.056 79.5918 421.056C78.1998 421.056 77.2238 421.888 77.2238 423.216V428H75.7198V419.888H77.2238V421.216C77.6878 420.24 78.7118 419.664 79.9918 419.664C81.7998 419.664 82.8718 420.8 82.8718 422.784ZM92.9075 424.4H86.5395C86.7155 425.952 87.7235 426.864 89.2435 426.864C90.2515 426.864 91.0995 426.464 91.7555 425.664L92.7315 426.528C91.9475 427.616 90.6995 428.224 89.2115 428.224C86.7155 428.224 85.0035 426.48 85.0035 423.968C85.0035 421.488 86.6995 419.664 89.0835 419.664C91.3395 419.664 92.9555 421.296 92.9555 423.68C92.9555 423.92 92.9395 424.16 92.9075 424.4ZM86.5715 423.248H91.4355C91.3075 421.84 90.4115 421.04 89.0835 421.04C87.7235 421.04 86.8115 421.856 86.5715 423.248ZM101.334 416.288H102.838V428H101.334V426.56C100.87 427.584 99.718 428.224 98.39 428.224C96.198 428.224 94.566 426.448 94.566 423.952C94.566 421.44 96.198 419.664 98.39 419.664C99.718 419.664 100.87 420.304 101.334 421.328V416.288ZM101.398 423.952C101.398 422.24 100.358 421.056 98.774 421.056C97.99 421.056 97.35 421.328 96.854 421.872C96.374 422.4 96.134 423.104 96.134 423.952C96.134 424.8 96.374 425.488 96.854 426.032C97.35 426.56 97.99 426.832 98.774 426.832C99.558 426.832 100.198 426.56 100.678 426.032C101.158 425.488 101.398 424.8 101.398 423.952ZM105.435 424.96V419.888H106.939V424.848C106.939 426.144 107.675 426.832 108.971 426.832C110.267 426.832 111.003 426.144 111.003 424.848V419.888H112.507V424.96C112.507 425.952 112.187 426.752 111.547 427.344C110.907 427.936 110.043 428.224 108.971 428.224C106.859 428.224 105.435 426.912 105.435 424.96ZM118.367 422.4C118.303 419.168 120.767 416.528 124.031 416.576C126.191 416.576 127.999 417.584 128.943 419.488L127.631 420.224C126.879 418.768 125.663 418.048 124.127 418.048C121.679 418.048 120.015 419.888 120.015 422.4C120.015 424.912 121.679 426.752 124.127 426.752C125.663 426.752 126.895 426.032 127.647 424.576L128.943 425.312C127.999 427.216 126.191 428.224 124.031 428.224C120.751 428.272 118.319 425.68 118.367 422.4ZM138.028 422.784V428H136.524V423.152C136.524 421.696 135.964 421.056 134.748 421.056C133.356 421.056 132.38 421.888 132.38 423.216V428H130.876V416.288H132.38V421.216C132.844 420.24 133.868 419.664 135.148 419.664C136.956 419.664 138.028 420.8 138.028 422.784ZM140.56 424.96V419.888H142.064V424.848C142.064 426.144 142.8 426.832 144.096 426.832C145.392 426.832 146.128 426.144 146.128 424.848V419.888H147.632V424.96C147.632 425.952 147.312 426.752 146.672 427.344C146.032 427.936 145.168 428.224 144.096 428.224C141.984 428.224 140.56 426.912 140.56 424.96ZM155.787 428L152.971 424.4H151.739V428H150.235V416.288H151.739V423.072H153.019L155.723 419.888H157.483L154.203 423.744L157.547 428H155.787ZM158.312 426.512L159.304 425.664C159.896 426.48 160.84 426.896 161.944 426.896C163.032 426.896 163.688 426.448 163.688 425.76C163.688 425.232 163.304 424.88 162.344 424.672L161.048 424.384C159.384 423.984 158.6 423.264 158.6 422.112C158.6 420.656 159.832 419.664 161.816 419.664C163.24 419.664 164.376 420.176 165.064 421.024L164.104 421.936C163.512 421.312 162.728 421.008 161.752 421.008C160.664 421.008 160.104 421.408 160.104 422.064C160.104 422.56 160.44 422.848 161.464 423.088L162.888 423.408C164.504 423.776 165.192 424.496 165.192 425.648C165.192 427.232 163.992 428.224 161.944 428.224C160.296 428.224 158.952 427.552 158.312 426.512Z" fill="white"/>
<path d="M58.6399 440.2H60.1379V450H58.7939V442.286L55.5319 447.48H54.4119L51.1499 442.286V450H49.8199V440.2H51.3179L54.9859 446.038L58.6399 440.2ZM68.1673 442.902H69.4833V450H68.1673V448.74C67.7613 449.636 66.7673 450.196 65.6053 450.196C63.6733 450.196 62.2453 448.642 62.2453 446.458C62.2453 444.26 63.6733 442.706 65.6053 442.706C66.7673 442.706 67.7613 443.266 68.1673 444.162V442.902ZM68.2233 446.458C68.2233 444.96 67.3133 443.924 65.9273 443.924C65.2413 443.924 64.6813 444.162 64.2473 444.638C63.8273 445.1 63.6173 445.716 63.6173 446.458C63.6173 447.2 63.8273 447.802 64.2473 448.278C64.6813 448.74 65.2413 448.978 65.9273 448.978C66.6133 448.978 67.1733 448.74 67.5933 448.278C68.0133 447.802 68.2233 447.2 68.2233 446.458ZM75.9834 442.888V444.078C75.7874 444.036 75.5634 444.022 75.3254 444.022C73.9674 444.022 73.2114 444.792 73.2114 446.402V450H71.8954V442.902H73.2114V444.176C73.5474 443.294 74.3314 442.79 75.3534 442.79C75.5914 442.79 75.8014 442.818 75.9834 442.888ZM83.0358 440.2H84.1558V450H82.8118V441.642L80.2638 442.944V441.628L83.0358 440.2ZM88.1691 448.754H93.1111V450H86.2231V448.88L89.7931 445.548C90.4651 444.918 90.9271 444.414 91.1651 444.022C91.4171 443.63 91.5431 443.238 91.5431 442.832C91.5431 441.824 90.8991 441.236 89.8211 441.236C88.7151 441.236 87.8471 441.824 87.2171 443L86.1811 442.3C86.9511 440.802 88.2111 440.004 89.7931 440.004C91.6831 440.004 92.9291 441.152 92.9291 442.804C92.9291 443.854 92.4251 444.792 91.0951 446.024L88.1691 448.754ZM94.3849 452.1L95.0709 448.264H96.4289L95.4209 452.1H94.3849ZM102.976 448.754H107.918V450H101.03V448.88L104.6 445.548C105.272 444.918 105.734 444.414 105.972 444.022C106.224 443.63 106.35 443.238 106.35 442.832C106.35 441.824 105.706 441.236 104.628 441.236C103.522 441.236 102.654 441.824 102.024 443L100.988 442.3C101.758 440.802 103.018 440.004 104.6 440.004C106.49 440.004 107.736 441.152 107.736 442.804C107.736 443.854 107.232 444.792 105.902 446.024L102.976 448.754ZM109.528 445.1C109.528 441.894 111.054 440.004 113.49 440.004C115.912 440.004 117.452 441.894 117.452 445.1C117.452 448.306 115.912 450.196 113.49 450.196C111.054 450.196 109.528 448.306 109.528 445.1ZM116.038 445.1C116.038 442.524 115.128 441.25 113.49 441.25C111.824 441.25 110.928 442.524 110.928 445.1C110.928 447.676 111.824 448.95 113.49 448.95C115.128 448.95 116.038 447.676 116.038 445.1ZM120.872 448.754H125.814V450H118.926V448.88L122.496 445.548C123.168 444.918 123.63 444.414 123.868 444.022C124.12 443.63 124.246 443.238 124.246 442.832C124.246 441.824 123.602 441.236 122.524 441.236C121.418 441.236 120.55 441.824 119.92 443L118.884 442.3C119.654 440.802 120.914 440.004 122.496 440.004C124.386 440.004 125.632 441.152 125.632 442.804C125.632 443.854 125.128 444.792 123.798 446.024L120.872 448.754ZM133.878 447.172C133.878 448.992 132.492 450.196 130.308 450.196C128.894 450.196 127.69 449.706 126.808 448.74L127.62 447.844C128.362 448.586 129.244 448.964 130.294 448.964C131.708 448.964 132.506 448.264 132.506 447.13C132.506 445.954 131.652 445.38 129.58 445.38H129.034V444.456L131.904 441.418H127.326V440.2H133.514V441.32L130.63 444.372C132.688 444.47 133.878 445.45 133.878 447.172Z" fill="#737373"/>
<defs>
<clipPath id="clip0_104_15704">
<rect width="212" height="212" fill="white" transform="translate(44 44)"/>
</clipPath>
</defs>
</svg>
