<svg width="185" height="154" viewBox="0 0 185 154" fill="none" xmlns="http://www.w3.org/2000/svg">
<rect y="20" width="185" height="134" fill="white"/>
<path d="M0 8.5C0 3.80558 3.80558 0 8.5 0H176.5C181.194 0 185 3.80558 185 8.5V20H0V8.5Z" fill="#EFBA93"/>
<circle cx="15" cy="10" r="3" fill="#ED5957"/>
<circle cx="23" cy="10" r="3" fill="#F4994B"/>
<circle cx="31" cy="10" r="3" fill="#26B065"/>
<path d="M53.616 93L48.688 86.994H46.356V93H44.2V77.6H50.624C53.902 77.6 55.86 79.382 55.86 82.352C55.86 85.102 54.166 86.774 51.196 86.972L56.212 93H53.616ZM46.356 79.58V85.058H50.448C52.67 85.058 53.594 84.222 53.594 82.352C53.594 80.438 52.648 79.58 50.448 79.58H46.356ZM68.8572 88.05H60.1012C60.3432 90.184 61.7292 91.438 63.8192 91.438C65.2052 91.438 66.3712 90.888 67.2732 89.788L68.6152 90.976C67.5372 92.472 65.8212 93.308 63.7752 93.308C60.3432 93.308 57.9892 90.91 57.9892 87.456C57.9892 84.046 60.3212 81.538 63.5992 81.538C66.7012 81.538 68.9232 83.782 68.9232 87.06C68.9232 87.39 68.9012 87.72 68.8572 88.05ZM60.1452 86.466H66.8332C66.6572 84.53 65.4252 83.43 63.5992 83.43C61.7292 83.43 60.4752 84.552 60.1452 86.466ZM70.8956 90.954L72.2596 89.788C73.0736 90.91 74.3716 91.482 75.8896 91.482C77.3856 91.482 78.2876 90.866 78.2876 89.92C78.2876 89.194 77.7596 88.71 76.4396 88.424L74.6576 88.028C72.3696 87.478 71.2916 86.488 71.2916 84.904C71.2916 82.902 72.9856 81.538 75.7136 81.538C77.6716 81.538 79.2336 82.242 80.1796 83.408L78.8596 84.662C78.0456 83.804 76.9676 83.386 75.6256 83.386C74.1296 83.386 73.3596 83.936 73.3596 84.838C73.3596 85.52 73.8216 85.916 75.2296 86.246L77.1876 86.686C79.4096 87.192 80.3556 88.182 80.3556 89.766C80.3556 91.944 78.7056 93.308 75.8896 93.308C73.6236 93.308 71.7756 92.384 70.8956 90.954ZM93.3064 88.05H84.5504C84.7924 90.184 86.1784 91.438 88.2684 91.438C89.6544 91.438 90.8204 90.888 91.7224 89.788L93.0644 90.976C91.9864 92.472 90.2704 93.308 88.2244 93.308C84.7924 93.308 82.4384 90.91 82.4384 87.456C82.4384 84.046 84.7704 81.538 88.0484 81.538C91.1504 81.538 93.3724 83.782 93.3724 87.06C93.3724 87.39 93.3504 87.72 93.3064 88.05ZM84.5944 86.466H91.2824C91.1064 84.53 89.8744 83.43 88.0484 83.43C86.1784 83.43 84.9244 84.552 84.5944 86.466ZM104.893 81.846H106.961V93H104.893V91.02C104.255 92.428 102.693 93.308 100.867 93.308C97.8308 93.308 95.5868 90.866 95.5868 87.434C95.5868 83.98 97.8308 81.538 100.867 81.538C102.693 81.538 104.255 82.418 104.893 83.826V81.846ZM104.981 87.434C104.981 85.08 103.551 83.452 101.373 83.452C100.295 83.452 99.4148 83.826 98.7328 84.574C98.0728 85.3 97.7428 86.268 97.7428 87.434C97.7428 88.6 98.0728 89.546 98.7328 90.294C99.4148 91.02 100.295 91.394 101.373 91.394C102.451 91.394 103.331 91.02 103.991 90.294C104.651 89.546 104.981 88.6 104.981 87.434ZM117.175 81.824V83.694C116.867 83.628 116.515 83.606 116.141 83.606C114.007 83.606 112.819 84.816 112.819 87.346V93H110.751V81.846H112.819V83.848C113.347 82.462 114.579 81.67 116.185 81.67C116.559 81.67 116.889 81.714 117.175 81.824ZM118.403 87.434C118.403 84.024 120.757 81.538 124.167 81.538C126.213 81.538 127.929 82.44 128.875 84.002L127.269 85.102C126.587 84.046 125.509 83.452 124.189 83.452C122.011 83.452 120.559 85.058 120.559 87.434C120.559 89.81 122.011 91.394 124.189 91.394C125.509 91.394 126.587 90.822 127.269 89.744L128.875 90.866C127.929 92.428 126.213 93.308 124.167 93.308C120.757 93.308 118.403 90.822 118.403 87.434ZM141.318 85.828V93H139.25V86.334C139.25 84.332 138.48 83.452 136.808 83.452C134.894 83.452 133.552 84.596 133.552 86.422V93H131.484V76.896H133.552V83.672C134.19 82.33 135.598 81.538 137.358 81.538C139.844 81.538 141.318 83.1 141.318 85.828Z" fill="#C46217"/>
</svg>
