<svg width="185" height="154" viewBox="0 0 185 154" fill="none" xmlns="http://www.w3.org/2000/svg">
<rect y="20" width="185" height="134" fill="white"/>
<path d="M0 8.5C0 3.80558 3.80558 0 8.5 0H176.5C181.194 0 185 3.80558 185 8.5V20H0V8.5Z" fill="#EFBA93"/>
<circle cx="15" cy="10" r="3" fill="#ED5957"/>
<circle cx="23" cy="10" r="3" fill="#F4994B"/>
<circle cx="31" cy="10" r="3" fill="#26B065"/>
<path d="M51.794 82.44C51.794 85.454 49.88 87.258 46.514 87.258H42.356V93H40.2V77.6H46.514C49.88 77.6 51.794 79.426 51.794 82.44ZM49.55 82.44C49.55 80.438 48.582 79.58 46.36 79.58H42.356V85.278H46.36C48.582 85.278 49.55 84.398 49.55 82.44ZM61.1187 81.824V83.694C60.8107 83.628 60.4587 83.606 60.0847 83.606C57.9507 83.606 56.7627 84.816 56.7627 87.346V93H54.6947V81.846H56.7627V83.848C57.2907 82.462 58.5227 81.67 60.1287 81.67C60.5027 81.67 60.8327 81.714 61.1187 81.824ZM62.3466 87.434C62.3466 84.222 64.6566 81.538 68.1326 81.538C71.5646 81.538 73.8966 84.222 73.8966 87.434C73.8966 90.668 71.5646 93.308 68.1326 93.308C64.6566 93.308 62.3466 90.668 62.3466 87.434ZM71.7406 87.434C71.7406 85.08 70.3106 83.452 68.1326 83.452C67.0546 83.452 66.1746 83.826 65.4926 84.574C64.8326 85.3 64.5026 86.268 64.5026 87.434C64.5026 88.6 64.8326 89.546 65.4926 90.294C66.1746 91.02 67.0546 91.394 68.1326 91.394C69.2106 91.394 70.0906 91.02 70.7506 90.294C71.4106 89.546 71.7406 88.6 71.7406 87.434ZM77.5527 90.03V83.628H75.3527V81.846H77.5527V78.546H79.6207V81.846H83.0307V83.628H79.6207V89.832C79.6207 90.91 80.1267 91.35 81.3587 91.35C81.8647 91.35 82.4367 91.284 83.0747 91.152V92.89C82.4367 93.088 81.7547 93.176 81.0287 93.176C78.7187 93.176 77.5527 92.12 77.5527 90.03ZM84.7978 87.434C84.7978 84.222 87.1078 81.538 90.5838 81.538C94.0158 81.538 96.3478 84.222 96.3478 87.434C96.3478 90.668 94.0158 93.308 90.5838 93.308C87.1078 93.308 84.7978 90.668 84.7978 87.434ZM94.1918 87.434C94.1918 85.08 92.7618 83.452 90.5838 83.452C89.5058 83.452 88.6258 83.826 87.9438 84.574C87.2838 85.3 86.9538 86.268 86.9538 87.434C86.9538 88.6 87.2838 89.546 87.9438 90.294C88.6258 91.02 89.5058 91.394 90.5838 91.394C91.6618 91.394 92.5418 91.02 93.2018 90.294C93.8618 89.546 94.1918 88.6 94.1918 87.434ZM100.004 90.03V83.628H97.8039V81.846H100.004V78.546H102.072V81.846H105.482V83.628H102.072V89.832C102.072 90.91 102.578 91.35 103.81 91.35C104.316 91.35 104.888 91.284 105.526 91.152V92.89C104.888 93.088 104.206 93.176 103.48 93.176C101.17 93.176 100.004 92.12 100.004 90.03ZM115.736 81.846H117.804V91.9C117.804 95.662 115.802 97.708 112.282 97.708C110.368 97.708 108.674 97.114 107.618 96.058L108.74 94.584C109.642 95.376 110.896 95.816 112.194 95.816C114.482 95.816 115.736 94.518 115.736 91.9V90.844C115.098 92.186 113.668 92.978 111.886 92.978C109.422 92.978 107.97 91.438 107.97 88.688V81.846H110.038V88.182C110.038 90.206 110.808 91.064 112.458 91.064C114.394 91.064 115.736 89.876 115.736 88.094V81.846ZM132.949 87.434C132.949 90.866 130.749 93.308 127.713 93.308C125.865 93.308 124.303 92.428 123.665 91.02V97.4H121.597V81.846H123.665V83.826C124.303 82.418 125.865 81.538 127.713 81.538C130.749 81.538 132.949 83.98 132.949 87.434ZM130.815 87.434C130.815 86.268 130.485 85.3 129.803 84.574C129.143 83.826 128.263 83.452 127.185 83.452C125.007 83.452 123.577 85.08 123.577 87.434C123.577 88.6 123.907 89.546 124.567 90.294C125.227 91.02 126.107 91.394 127.185 91.394C128.263 91.394 129.143 91.02 129.803 90.294C130.485 89.546 130.815 88.6 130.815 87.434ZM146.09 88.05H137.334C137.576 90.184 138.962 91.438 141.052 91.438C142.438 91.438 143.604 90.888 144.506 89.788L145.848 90.976C144.77 92.472 143.054 93.308 141.008 93.308C137.576 93.308 135.222 90.91 135.222 87.456C135.222 84.046 137.554 81.538 140.832 81.538C143.934 81.538 146.156 83.782 146.156 87.06C146.156 87.39 146.134 87.72 146.09 88.05ZM137.378 86.466H144.066C143.89 84.53 142.658 83.43 140.832 83.43C138.962 83.43 137.708 84.552 137.378 86.466Z" fill="#C46217"/>
</svg>
