<svg width="185" height="154" viewBox="0 0 185 154" fill="none" xmlns="http://www.w3.org/2000/svg">
<rect y="20" width="185" height="134" fill="white"/>
<path d="M0 8.5C0 3.80558 3.80558 0 8.5 0H176.5C181.194 0 185 3.80558 185 8.5V20H0V8.5Z" fill="#EFBA93"/>
<circle cx="15" cy="10" r="3" fill="#ED5957"/>
<circle cx="23" cy="10" r="3" fill="#F4994B"/>
<circle cx="31" cy="10" r="3" fill="#26B065"/>
<path d="M18.61 93V79.602H13.55V77.6H25.826V79.602H20.766V93H18.61ZM36.5056 88.05H27.7496C27.9916 90.184 29.3776 91.438 31.4676 91.438C32.8536 91.438 34.0196 90.888 34.9216 89.788L36.2636 90.976C35.1856 92.472 33.4696 93.308 31.4236 93.308C27.9916 93.308 25.6376 90.91 25.6376 87.456C25.6376 84.046 27.9696 81.538 31.2476 81.538C34.3496 81.538 36.5716 83.782 36.5716 87.06C36.5716 87.39 36.5496 87.72 36.5056 88.05ZM27.7936 86.466H34.4816C34.3056 84.53 33.0736 83.43 31.2476 83.43C29.3776 83.43 28.1236 84.552 27.7936 86.466ZM38.5441 90.954L39.9081 89.788C40.7221 90.91 42.0201 91.482 43.5381 91.482C45.0341 91.482 45.9361 90.866 45.9361 89.92C45.9361 89.194 45.4081 88.71 44.0881 88.424L42.3061 88.028C40.0181 87.478 38.9401 86.488 38.9401 84.904C38.9401 82.902 40.6341 81.538 43.3621 81.538C45.3201 81.538 46.8821 82.242 47.8281 83.408L46.5081 84.662C45.6941 83.804 44.6161 83.386 43.2741 83.386C41.7781 83.386 41.0081 83.936 41.0081 84.838C41.0081 85.52 41.4701 85.916 42.8781 86.246L44.8361 86.686C47.0581 87.192 48.0041 88.182 48.0041 89.766C48.0041 91.944 46.3541 93.308 43.5381 93.308C41.2721 93.308 39.4241 92.384 38.5441 90.954ZM51.6719 90.03V83.628H49.4719V81.846H51.6719V78.546H53.7399V81.846H57.1499V83.628H53.7399V89.832C53.7399 90.91 54.2459 91.35 55.4779 91.35C55.9839 91.35 56.5559 91.284 57.1939 91.152V92.89C56.5559 93.088 55.8739 93.176 55.1479 93.176C52.8379 93.176 51.6719 92.12 51.6719 90.03ZM76.8311 82.44C76.8311 85.454 74.9171 87.258 71.5511 87.258H67.3931V93H65.2371V77.6H71.5511C74.9171 77.6 76.8311 79.426 76.8311 82.44ZM74.5871 82.44C74.5871 80.438 73.6191 79.58 71.3971 79.58H67.3931V85.278H71.3971C73.6191 85.278 74.5871 84.398 74.5871 82.44ZM86.1558 81.824V83.694C85.8478 83.628 85.4958 83.606 85.1218 83.606C82.9878 83.606 81.7998 84.816 81.7998 87.346V93H79.7318V81.846H81.7998V83.848C82.3278 82.462 83.5598 81.67 85.1658 81.67C85.5398 81.67 85.8698 81.714 86.1558 81.824ZM87.3837 87.434C87.3837 84.222 89.6937 81.538 93.1697 81.538C96.6017 81.538 98.9337 84.222 98.9337 87.434C98.9337 90.668 96.6017 93.308 93.1697 93.308C89.6937 93.308 87.3837 90.668 87.3837 87.434ZM96.7777 87.434C96.7777 85.08 95.3477 83.452 93.1697 83.452C92.0917 83.452 91.2117 83.826 90.5297 84.574C89.8697 85.3 89.5397 86.268 89.5397 87.434C89.5397 88.6 89.8697 89.546 90.5297 90.294C91.2117 91.02 92.0917 91.394 93.1697 91.394C94.2477 91.394 95.1277 91.02 95.7877 90.294C96.4477 89.546 96.7777 88.6 96.7777 87.434ZM102.59 90.03V83.628H100.39V81.846H102.59V78.546H104.658V81.846H108.068V83.628H104.658V89.832C104.658 90.91 105.164 91.35 106.396 91.35C106.902 91.35 107.474 91.284 108.112 91.152V92.89C107.474 93.088 106.792 93.176 106.066 93.176C103.756 93.176 102.59 92.12 102.59 90.03ZM109.835 87.434C109.835 84.222 112.145 81.538 115.621 81.538C119.053 81.538 121.385 84.222 121.385 87.434C121.385 90.668 119.053 93.308 115.621 93.308C112.145 93.308 109.835 90.668 109.835 87.434ZM119.229 87.434C119.229 85.08 117.799 83.452 115.621 83.452C114.543 83.452 113.663 83.826 112.981 84.574C112.321 85.3 111.991 86.268 111.991 87.434C111.991 88.6 112.321 89.546 112.981 90.294C113.663 91.02 114.543 91.394 115.621 91.394C116.699 91.394 117.579 91.02 118.239 90.294C118.899 89.546 119.229 88.6 119.229 87.434ZM125.041 90.03V83.628H122.841V81.846H125.041V78.546H127.109V81.846H130.519V83.628H127.109V89.832C127.109 90.91 127.615 91.35 128.847 91.35C129.353 91.35 129.925 91.284 130.563 91.152V92.89C129.925 93.088 129.243 93.176 128.517 93.176C126.207 93.176 125.041 92.12 125.041 90.03ZM140.773 81.846H142.841V91.9C142.841 95.662 140.839 97.708 137.319 97.708C135.405 97.708 133.711 97.114 132.655 96.058L133.777 94.584C134.679 95.376 135.933 95.816 137.231 95.816C139.519 95.816 140.773 94.518 140.773 91.9V90.844C140.135 92.186 138.705 92.978 136.923 92.978C134.459 92.978 133.007 91.438 133.007 88.688V81.846H135.075V88.182C135.075 90.206 135.845 91.064 137.495 91.064C139.431 91.064 140.773 89.876 140.773 88.094V81.846ZM157.986 87.434C157.986 90.866 155.786 93.308 152.75 93.308C150.902 93.308 149.34 92.428 148.702 91.02V97.4H146.634V81.846H148.702V83.826C149.34 82.418 150.902 81.538 152.75 81.538C155.786 81.538 157.986 83.98 157.986 87.434ZM155.852 87.434C155.852 86.268 155.522 85.3 154.84 84.574C154.18 83.826 153.3 83.452 152.222 83.452C150.044 83.452 148.614 85.08 148.614 87.434C148.614 88.6 148.944 89.546 149.604 90.294C150.264 91.02 151.144 91.394 152.222 91.394C153.3 91.394 154.18 91.02 154.84 90.294C155.522 89.546 155.852 88.6 155.852 87.434ZM171.127 88.05H162.371C162.613 90.184 163.999 91.438 166.089 91.438C167.475 91.438 168.641 90.888 169.543 89.788L170.885 90.976C169.807 92.472 168.091 93.308 166.045 93.308C162.613 93.308 160.259 90.91 160.259 87.456C160.259 84.046 162.591 81.538 165.869 81.538C168.971 81.538 171.193 83.782 171.193 87.06C171.193 87.39 171.171 87.72 171.127 88.05ZM162.415 86.466H169.103C168.927 84.53 167.695 83.43 165.869 83.43C163.999 83.43 162.745 84.552 162.415 86.466Z" fill="#C46217"/>
</svg>
