<svg width="185" height="154" viewBox="0 0 185 154" fill="none" xmlns="http://www.w3.org/2000/svg">
<rect y="20" width="185" height="134" fill="white"/>
<path d="M0 8.5C0 3.80558 3.80558 0 8.5 0H176.5C181.194 0 185 3.80558 185 8.5V20H0V8.5Z" fill="#EFBA93"/>
<circle cx="15" cy="10" r="3" fill="#ED5957"/>
<circle cx="23" cy="10" r="3" fill="#F4994B"/>
<circle cx="31" cy="10" r="3" fill="#26B065"/>
<path d="M29.356 91.02H38.046V93H27.2V77.6H37.826V79.58H29.356V84.244H37.364V86.202H29.356V91.02ZM51.3354 85.828V93H49.2674V86.334C49.2674 84.332 48.4974 83.452 46.8254 83.452C44.9114 83.452 43.5694 84.596 43.5694 86.422V93H41.5014V81.846H43.5694V83.672C44.2074 82.33 45.6154 81.538 47.3754 81.538C49.8614 81.538 51.3354 83.1 51.3354 85.828ZM63.5725 81.846H65.6405V91.724C65.6405 95.574 63.5065 97.708 59.7885 97.708C57.6765 97.708 55.8285 97.026 54.6845 95.882L55.8065 94.364C56.8405 95.266 58.2485 95.816 59.7445 95.816C62.2085 95.816 63.5725 94.43 63.5725 91.724V90.756C62.9345 92.142 61.3945 92.978 59.5465 92.978C56.5105 92.978 54.2665 90.624 54.2665 87.258C54.2665 83.914 56.5105 81.538 59.5465 81.538C61.3725 81.538 62.9345 82.418 63.5725 83.804V81.846ZM63.6605 87.258C63.6605 86.136 63.3305 85.234 62.6705 84.53C62.0105 83.804 61.1305 83.452 60.0525 83.452C58.9745 83.452 58.0945 83.804 57.4125 84.53C56.7525 85.234 56.4225 86.136 56.4225 87.258C56.4225 89.524 57.8745 91.086 60.0525 91.086C61.1305 91.086 62.0105 90.734 62.6705 90.008C63.3305 89.282 63.6605 88.38 63.6605 87.258ZM73.5124 89.744L75.2064 88.71C76.0204 90.404 77.7144 91.35 79.8484 91.35C82.0484 91.35 83.3904 90.36 83.3904 88.798C83.3904 87.632 82.5984 86.884 80.7504 86.422L78.2644 85.828C75.4044 85.146 73.9744 83.76 73.9744 81.67C73.9744 79.118 76.1084 77.292 79.5624 77.292C82.3124 77.292 84.4244 78.414 85.2384 80.108L83.5884 81.186C82.8184 79.932 81.3664 79.25 79.5404 79.25C77.4284 79.25 76.1744 80.152 76.1744 81.648C76.1744 82.792 76.9224 83.474 78.8584 83.914L81.3444 84.53C84.2704 85.234 85.6124 86.598 85.6124 88.71C85.6124 91.46 83.4784 93.308 79.8044 93.308C76.7024 93.308 74.4584 91.966 73.5124 89.744ZM88.2677 88.82V81.846H90.3357V88.666C90.3357 90.448 91.3477 91.394 93.1297 91.394C94.9117 91.394 95.9237 90.448 95.9237 88.666V81.846H97.9917V88.82C97.9917 90.184 97.5517 91.284 96.6717 92.098C95.7917 92.912 94.6037 93.308 93.1297 93.308C90.2257 93.308 88.2677 91.504 88.2677 88.82ZM112.924 87.434C112.924 90.866 110.724 93.308 107.688 93.308C105.84 93.308 104.278 92.428 103.64 91.02V97.4H101.572V81.846H103.64V83.826C104.278 82.418 105.84 81.538 107.688 81.538C110.724 81.538 112.924 83.98 112.924 87.434ZM110.79 87.434C110.79 86.268 110.46 85.3 109.778 84.574C109.118 83.826 108.238 83.452 107.16 83.452C104.982 83.452 103.552 85.08 103.552 87.434C103.552 88.6 103.882 89.546 104.542 90.294C105.202 91.02 106.082 91.394 107.16 91.394C108.238 91.394 109.118 91.02 109.778 90.294C110.46 89.546 110.79 88.6 110.79 87.434ZM127.318 87.434C127.318 90.866 125.118 93.308 122.082 93.308C120.234 93.308 118.672 92.428 118.034 91.02V97.4H115.966V81.846H118.034V83.826C118.672 82.418 120.234 81.538 122.082 81.538C125.118 81.538 127.318 83.98 127.318 87.434ZM125.184 87.434C125.184 86.268 124.854 85.3 124.172 84.574C123.512 83.826 122.632 83.452 121.554 83.452C119.376 83.452 117.946 85.08 117.946 87.434C117.946 88.6 118.276 89.546 118.936 90.294C119.596 91.02 120.476 91.394 121.554 91.394C122.632 91.394 123.512 91.02 124.172 90.294C124.854 89.546 125.184 88.6 125.184 87.434ZM129.591 87.434C129.591 84.222 131.901 81.538 135.377 81.538C138.809 81.538 141.141 84.222 141.141 87.434C141.141 90.668 138.809 93.308 135.377 93.308C131.901 93.308 129.591 90.668 129.591 87.434ZM138.985 87.434C138.985 85.08 137.555 83.452 135.377 83.452C134.299 83.452 133.419 83.826 132.737 84.574C132.077 85.3 131.747 86.268 131.747 87.434C131.747 88.6 132.077 89.546 132.737 90.294C133.419 91.02 134.299 91.394 135.377 91.394C136.455 91.394 137.335 91.02 137.995 90.294C138.655 89.546 138.985 88.6 138.985 87.434ZM150.578 81.824V83.694C150.27 83.628 149.918 83.606 149.544 83.606C147.41 83.606 146.222 84.816 146.222 87.346V93H144.154V81.846H146.222V83.848C146.75 82.462 147.982 81.67 149.588 81.67C149.962 81.67 150.292 81.714 150.578 81.824ZM154.25 90.03V83.628H152.05V81.846H154.25V78.546H156.318V81.846H159.728V83.628H156.318V89.832C156.318 90.91 156.824 91.35 158.056 91.35C158.562 91.35 159.134 91.284 159.772 91.152V92.89C159.134 93.088 158.452 93.176 157.726 93.176C155.416 93.176 154.25 92.12 154.25 90.03Z" fill="#C46217"/>
</svg>
