<svg width="1358" height="587" viewBox="0 0 1358 587" fill="none" xmlns="http://www.w3.org/2000/svg">
<rect x="452" y="349" width="185" height="134" fill="white"/>
<path d="M452 337.5C452 332.806 455.806 329 460.5 329H628.5C633.194 329 637 332.806 637 337.5V349H452V337.5Z" fill="#EFBA93"/>
<circle cx="467" cy="339" r="3" fill="#ED5957"/>
<circle cx="475" cy="339" r="3" fill="#F4994B"/>
<circle cx="483" cy="339" r="3" fill="#26B065"/>
<path d="M471.356 420.02H480.046V422H469.2V406.6H479.826V408.58H471.356V413.244H479.364V415.202H471.356V420.02ZM493.335 414.828V422H491.267V415.334C491.267 413.332 490.497 412.452 488.825 412.452C486.911 412.452 485.569 413.596 485.569 415.422V422H483.501V410.846H485.569V412.672C486.207 411.33 487.615 410.538 489.375 410.538C491.861 410.538 493.335 412.1 493.335 414.828ZM505.573 410.846H507.641V420.724C507.641 424.574 505.507 426.708 501.789 426.708C499.677 426.708 497.829 426.026 496.685 424.882L497.807 423.364C498.841 424.266 500.249 424.816 501.745 424.816C504.209 424.816 505.573 423.43 505.573 420.724V419.756C504.935 421.142 503.395 421.978 501.547 421.978C498.511 421.978 496.267 419.624 496.267 416.258C496.267 412.914 498.511 410.538 501.547 410.538C503.373 410.538 504.935 411.418 505.573 412.804V410.846ZM505.661 416.258C505.661 415.136 505.331 414.234 504.671 413.53C504.011 412.804 503.131 412.452 502.053 412.452C500.975 412.452 500.095 412.804 499.413 413.53C498.753 414.234 498.423 415.136 498.423 416.258C498.423 418.524 499.875 420.086 502.053 420.086C503.131 420.086 504.011 419.734 504.671 419.008C505.331 418.282 505.661 417.38 505.661 416.258ZM527.37 406.6H529.548V422H527.37V415.114H518.922V422H516.766V406.6H518.922V413.09H527.37V406.6ZM542.16 410.846H544.228V422H542.16V420.02C541.522 421.428 539.96 422.308 538.134 422.308C535.098 422.308 532.854 419.866 532.854 416.434C532.854 412.98 535.098 410.538 538.134 410.538C539.96 410.538 541.522 411.418 542.16 412.826V410.846ZM542.248 416.434C542.248 414.08 540.818 412.452 538.64 412.452C537.562 412.452 536.682 412.826 536 413.574C535.34 414.3 535.01 415.268 535.01 416.434C535.01 417.6 535.34 418.546 536 419.294C536.682 420.02 537.562 420.394 538.64 420.394C539.718 420.394 540.598 420.02 541.258 419.294C541.918 418.546 542.248 417.6 542.248 416.434ZM557.853 414.828V422H555.785V415.334C555.785 413.332 555.015 412.452 553.343 412.452C551.429 412.452 550.087 413.596 550.087 415.422V422H548.019V410.846H550.087V412.672C550.725 411.33 552.133 410.538 553.893 410.538C556.379 410.538 557.853 412.1 557.853 414.828ZM570.09 405.896H572.158V422H570.09V420.02C569.452 421.428 567.868 422.308 566.042 422.308C563.028 422.308 560.784 419.866 560.784 416.434C560.784 412.98 563.028 410.538 566.042 410.538C567.868 410.538 569.452 411.418 570.09 412.826V405.896ZM570.178 416.434C570.178 414.08 568.748 412.452 566.57 412.452C565.492 412.452 564.612 412.826 563.93 413.574C563.27 414.3 562.94 415.268 562.94 416.434C562.94 417.6 563.27 418.546 563.93 419.294C564.612 420.02 565.492 420.394 566.57 420.394C567.648 420.394 568.528 420.02 569.188 419.294C569.848 418.546 570.178 417.6 570.178 416.434ZM575.179 416.434C575.179 413.222 577.489 410.538 580.965 410.538C584.397 410.538 586.729 413.222 586.729 416.434C586.729 419.668 584.397 422.308 580.965 422.308C577.489 422.308 575.179 419.668 575.179 416.434ZM584.573 416.434C584.573 414.08 583.143 412.452 580.965 412.452C579.887 412.452 579.007 412.826 578.325 413.574C577.665 414.3 577.335 415.268 577.335 416.434C577.335 417.6 577.665 418.546 578.325 419.294C579.007 420.02 579.887 420.394 580.965 420.394C582.043 420.394 582.923 420.02 583.583 419.294C584.243 418.546 584.573 417.6 584.573 416.434ZM596.855 410.846H599.077L594.589 422H592.367L587.901 410.846H590.101L593.489 419.734L596.855 410.846ZM611.119 417.05H602.363C602.605 419.184 603.991 420.438 606.081 420.438C607.467 420.438 608.633 419.888 609.535 418.788L610.877 419.976C609.799 421.472 608.083 422.308 606.037 422.308C602.605 422.308 600.251 419.91 600.251 416.456C600.251 413.046 602.583 410.538 605.861 410.538C608.963 410.538 611.185 412.782 611.185 416.06C611.185 416.39 611.163 416.72 611.119 417.05ZM602.407 415.466H609.095C608.919 413.53 607.687 412.43 605.861 412.43C603.991 412.43 602.737 413.552 602.407 415.466ZM620.593 410.824V412.694C620.285 412.628 619.933 412.606 619.559 412.606C617.425 412.606 616.237 413.816 616.237 416.346V422H614.169V410.846H616.237V412.848C616.765 411.462 617.997 410.67 619.603 410.67C619.977 410.67 620.307 410.714 620.593 410.824Z" fill="#C46217"/>
<rect x="733" y="349" width="185" height="134" fill="white"/>
<path d="M733 337.5C733 332.806 736.806 329 741.5 329H909.5C914.194 329 918 332.806 918 337.5V349H733V337.5Z" fill="#EFBA93"/>
<circle cx="748" cy="339" r="3" fill="#ED5957"/>
<circle cx="756" cy="339" r="3" fill="#F4994B"/>
<circle cx="764" cy="339" r="3" fill="#26B065"/>
<path d="M762.356 420.02H771.046V422H760.2V406.6H770.826V408.58H762.356V413.244H770.364V415.202H762.356V420.02ZM784.335 414.828V422H782.267V415.334C782.267 413.332 781.497 412.452 779.825 412.452C777.911 412.452 776.569 413.596 776.569 415.422V422H774.501V410.846H776.569V412.672C777.207 411.33 778.615 410.538 780.375 410.538C782.861 410.538 784.335 412.1 784.335 414.828ZM796.573 410.846H798.641V420.724C798.641 424.574 796.507 426.708 792.789 426.708C790.677 426.708 788.829 426.026 787.685 424.882L788.807 423.364C789.841 424.266 791.249 424.816 792.745 424.816C795.209 424.816 796.573 423.43 796.573 420.724V419.756C795.935 421.142 794.395 421.978 792.547 421.978C789.511 421.978 787.267 419.624 787.267 416.258C787.267 412.914 789.511 410.538 792.547 410.538C794.373 410.538 795.935 411.418 796.573 412.804V410.846ZM796.661 416.258C796.661 415.136 796.331 414.234 795.671 413.53C795.011 412.804 794.131 412.452 793.053 412.452C791.975 412.452 791.095 412.804 790.413 413.53C789.753 414.234 789.423 415.136 789.423 416.258C789.423 418.524 790.875 420.086 793.053 420.086C794.131 420.086 795.011 419.734 795.671 419.008C796.331 418.282 796.661 417.38 796.661 416.258ZM806.512 418.744L808.206 417.71C809.02 419.404 810.714 420.35 812.848 420.35C815.048 420.35 816.39 419.36 816.39 417.798C816.39 416.632 815.598 415.884 813.75 415.422L811.264 414.828C808.404 414.146 806.974 412.76 806.974 410.67C806.974 408.118 809.108 406.292 812.562 406.292C815.312 406.292 817.424 407.414 818.238 409.108L816.588 410.186C815.818 408.932 814.366 408.25 812.54 408.25C810.428 408.25 809.174 409.152 809.174 410.648C809.174 411.792 809.922 412.474 811.858 412.914L814.344 413.53C817.27 414.234 818.612 415.598 818.612 417.71C818.612 420.46 816.478 422.308 812.804 422.308C809.702 422.308 807.458 420.966 806.512 418.744ZM821.268 417.82V410.846H823.336V417.666C823.336 419.448 824.348 420.394 826.13 420.394C827.912 420.394 828.924 419.448 828.924 417.666V410.846H830.992V417.82C830.992 419.184 830.552 420.284 829.672 421.098C828.792 421.912 827.604 422.308 826.13 422.308C823.226 422.308 821.268 420.504 821.268 417.82ZM845.924 416.434C845.924 419.866 843.724 422.308 840.688 422.308C838.84 422.308 837.278 421.428 836.64 420.02V426.4H834.572V410.846H836.64V412.826C837.278 411.418 838.84 410.538 840.688 410.538C843.724 410.538 845.924 412.98 845.924 416.434ZM843.79 416.434C843.79 415.268 843.46 414.3 842.778 413.574C842.118 412.826 841.238 412.452 840.16 412.452C837.982 412.452 836.552 414.08 836.552 416.434C836.552 417.6 836.882 418.546 837.542 419.294C838.202 420.02 839.082 420.394 840.16 420.394C841.238 420.394 842.118 420.02 842.778 419.294C843.46 418.546 843.79 417.6 843.79 416.434ZM860.318 416.434C860.318 419.866 858.118 422.308 855.082 422.308C853.234 422.308 851.672 421.428 851.034 420.02V426.4H848.966V410.846H851.034V412.826C851.672 411.418 853.234 410.538 855.082 410.538C858.118 410.538 860.318 412.98 860.318 416.434ZM858.184 416.434C858.184 415.268 857.854 414.3 857.172 413.574C856.512 412.826 855.632 412.452 854.554 412.452C852.376 412.452 850.946 414.08 850.946 416.434C850.946 417.6 851.276 418.546 851.936 419.294C852.596 420.02 853.476 420.394 854.554 420.394C855.632 420.394 856.512 420.02 857.172 419.294C857.854 418.546 858.184 417.6 858.184 416.434ZM862.591 416.434C862.591 413.222 864.901 410.538 868.377 410.538C871.809 410.538 874.141 413.222 874.141 416.434C874.141 419.668 871.809 422.308 868.377 422.308C864.901 422.308 862.591 419.668 862.591 416.434ZM871.985 416.434C871.985 414.08 870.555 412.452 868.377 412.452C867.299 412.452 866.419 412.826 865.737 413.574C865.077 414.3 864.747 415.268 864.747 416.434C864.747 417.6 865.077 418.546 865.737 419.294C866.419 420.02 867.299 420.394 868.377 420.394C869.455 420.394 870.335 420.02 870.995 419.294C871.655 418.546 871.985 417.6 871.985 416.434ZM883.578 410.824V412.694C883.27 412.628 882.918 412.606 882.544 412.606C880.41 412.606 879.222 413.816 879.222 416.346V422H877.154V410.846H879.222V412.848C879.75 411.462 880.982 410.67 882.588 410.67C882.962 410.67 883.292 410.714 883.578 410.824ZM887.25 419.03V412.628H885.05V410.846H887.25V407.546H889.318V410.846H892.728V412.628H889.318V418.832C889.318 419.91 889.824 420.35 891.056 420.35C891.562 420.35 892.134 420.284 892.772 420.152V421.89C892.134 422.088 891.452 422.176 890.726 422.176C888.416 422.176 887.25 421.12 887.25 419.03Z" fill="#C46217"/>
<rect y="20" width="185" height="134" fill="white"/>
<path d="M0 8.5C0 3.80558 3.80558 0 8.5 0H176.5C181.194 0 185 3.80558 185 8.5V20H0V8.5Z" fill="#EFBA93"/>
<circle cx="15" cy="10" r="3" fill="#ED5957"/>
<circle cx="23" cy="10" r="3" fill="#F4994B"/>
<circle cx="31" cy="10" r="3" fill="#26B065"/>
<path d="M53.616 93L48.688 86.994H46.356V93H44.2V77.6H50.624C53.902 77.6 55.86 79.382 55.86 82.352C55.86 85.102 54.166 86.774 51.196 86.972L56.212 93H53.616ZM46.356 79.58V85.058H50.448C52.67 85.058 53.594 84.222 53.594 82.352C53.594 80.438 52.648 79.58 50.448 79.58H46.356ZM68.8572 88.05H60.1012C60.3432 90.184 61.7292 91.438 63.8192 91.438C65.2052 91.438 66.3712 90.888 67.2732 89.788L68.6152 90.976C67.5372 92.472 65.8212 93.308 63.7752 93.308C60.3432 93.308 57.9892 90.91 57.9892 87.456C57.9892 84.046 60.3212 81.538 63.5992 81.538C66.7012 81.538 68.9232 83.782 68.9232 87.06C68.9232 87.39 68.9012 87.72 68.8572 88.05ZM60.1452 86.466H66.8332C66.6572 84.53 65.4252 83.43 63.5992 83.43C61.7292 83.43 60.4752 84.552 60.1452 86.466ZM70.8956 90.954L72.2596 89.788C73.0736 90.91 74.3716 91.482 75.8896 91.482C77.3856 91.482 78.2876 90.866 78.2876 89.92C78.2876 89.194 77.7596 88.71 76.4396 88.424L74.6576 88.028C72.3696 87.478 71.2916 86.488 71.2916 84.904C71.2916 82.902 72.9856 81.538 75.7136 81.538C77.6716 81.538 79.2336 82.242 80.1796 83.408L78.8596 84.662C78.0456 83.804 76.9676 83.386 75.6256 83.386C74.1296 83.386 73.3596 83.936 73.3596 84.838C73.3596 85.52 73.8216 85.916 75.2296 86.246L77.1876 86.686C79.4096 87.192 80.3556 88.182 80.3556 89.766C80.3556 91.944 78.7056 93.308 75.8896 93.308C73.6236 93.308 71.7756 92.384 70.8956 90.954ZM93.3064 88.05H84.5504C84.7924 90.184 86.1784 91.438 88.2684 91.438C89.6544 91.438 90.8204 90.888 91.7224 89.788L93.0644 90.976C91.9864 92.472 90.2704 93.308 88.2244 93.308C84.7924 93.308 82.4384 90.91 82.4384 87.456C82.4384 84.046 84.7704 81.538 88.0484 81.538C91.1504 81.538 93.3724 83.782 93.3724 87.06C93.3724 87.39 93.3504 87.72 93.3064 88.05ZM84.5944 86.466H91.2824C91.1064 84.53 89.8744 83.43 88.0484 83.43C86.1784 83.43 84.9244 84.552 84.5944 86.466ZM104.893 81.846H106.961V93H104.893V91.02C104.255 92.428 102.693 93.308 100.867 93.308C97.8308 93.308 95.5868 90.866 95.5868 87.434C95.5868 83.98 97.8308 81.538 100.867 81.538C102.693 81.538 104.255 82.418 104.893 83.826V81.846ZM104.981 87.434C104.981 85.08 103.551 83.452 101.373 83.452C100.295 83.452 99.4148 83.826 98.7328 84.574C98.0728 85.3 97.7428 86.268 97.7428 87.434C97.7428 88.6 98.0728 89.546 98.7328 90.294C99.4148 91.02 100.295 91.394 101.373 91.394C102.451 91.394 103.331 91.02 103.991 90.294C104.651 89.546 104.981 88.6 104.981 87.434ZM117.175 81.824V83.694C116.867 83.628 116.515 83.606 116.141 83.606C114.007 83.606 112.819 84.816 112.819 87.346V93H110.751V81.846H112.819V83.848C113.347 82.462 114.579 81.67 116.185 81.67C116.559 81.67 116.889 81.714 117.175 81.824ZM118.403 87.434C118.403 84.024 120.757 81.538 124.167 81.538C126.213 81.538 127.929 82.44 128.875 84.002L127.269 85.102C126.587 84.046 125.509 83.452 124.189 83.452C122.011 83.452 120.559 85.058 120.559 87.434C120.559 89.81 122.011 91.394 124.189 91.394C125.509 91.394 126.587 90.822 127.269 89.744L128.875 90.866C127.929 92.428 126.213 93.308 124.167 93.308C120.757 93.308 118.403 90.822 118.403 87.434ZM141.318 85.828V93H139.25V86.334C139.25 84.332 138.48 83.452 136.808 83.452C134.894 83.452 133.552 84.596 133.552 86.422V93H131.484V76.896H133.552V83.672C134.19 82.33 135.598 81.538 137.358 81.538C139.844 81.538 141.318 83.1 141.318 85.828Z" fill="#C46217"/>
<rect x="281" y="20" width="185" height="134" fill="white"/>
<path d="M281 8.5C281 3.80558 284.806 0 289.5 0H457.5C462.194 0 466 3.80558 466 8.5V20H281V8.5Z" fill="#EFBA93"/>
<circle cx="296" cy="10" r="3" fill="#ED5957"/>
<circle cx="304" cy="10" r="3" fill="#F4994B"/>
<circle cx="312" cy="10" r="3" fill="#26B065"/>
<path d="M294.946 89.744L296.64 88.71C297.454 90.404 299.148 91.35 301.282 91.35C303.482 91.35 304.824 90.36 304.824 88.798C304.824 87.632 304.032 86.884 302.184 86.422L299.698 85.828C296.838 85.146 295.408 83.76 295.408 81.67C295.408 79.118 297.542 77.292 300.996 77.292C303.746 77.292 305.858 78.414 306.672 80.108L305.022 81.186C304.252 79.932 302.8 79.25 300.974 79.25C298.862 79.25 297.608 80.152 297.608 81.648C297.608 82.792 298.356 83.474 300.292 83.914L302.778 84.53C305.704 85.234 307.046 86.598 307.046 88.71C307.046 91.46 304.912 93.308 301.238 93.308C298.136 93.308 295.892 91.966 294.946 89.744ZM317.555 93L313.683 88.05H311.989V93H309.921V76.896H311.989V86.224H313.749L317.467 81.846H319.887L315.377 87.148L319.975 93H317.555ZM331.836 88.05H323.08C323.322 90.184 324.708 91.438 326.798 91.438C328.184 91.438 329.35 90.888 330.252 89.788L331.594 90.976C330.516 92.472 328.8 93.308 326.754 93.308C323.322 93.308 320.968 90.91 320.968 87.456C320.968 84.046 323.3 81.538 326.578 81.538C329.68 81.538 331.902 83.782 331.902 87.06C331.902 87.39 331.88 87.72 331.836 88.05ZM323.124 86.466H329.812C329.636 84.53 328.404 83.43 326.578 83.43C324.708 83.43 323.454 84.552 323.124 86.466ZM335.529 90.03V83.628H333.329V81.846H335.529V78.546H337.597V81.846H341.007V83.628H337.597V89.832C337.597 90.91 338.103 91.35 339.335 91.35C339.841 91.35 340.413 91.284 341.051 91.152V92.89C340.413 93.088 339.731 93.176 339.005 93.176C336.695 93.176 335.529 92.12 335.529 90.03ZM342.774 87.434C342.774 84.024 345.128 81.538 348.538 81.538C350.584 81.538 352.3 82.44 353.246 84.002L351.64 85.102C350.958 84.046 349.88 83.452 348.56 83.452C346.382 83.452 344.93 85.058 344.93 87.434C344.93 89.81 346.382 91.394 348.56 91.394C349.88 91.394 350.958 90.822 351.64 89.744L353.246 90.866C352.3 92.428 350.584 93.308 348.538 93.308C345.128 93.308 342.774 90.822 342.774 87.434ZM365.689 85.828V93H363.621V86.334C363.621 84.332 362.851 83.452 361.179 83.452C359.265 83.452 357.923 84.596 357.923 86.422V93H355.855V76.896H357.923V83.672C358.561 82.33 359.969 81.538 361.729 81.538C364.215 81.538 365.689 83.1 365.689 85.828ZM367.696 95.068L375.836 76.72H377.838L369.698 95.068H367.696ZM393.711 85.3C393.711 90.074 390.587 93 386.121 93H380.225V77.6H386.121C390.587 77.6 393.711 80.526 393.711 85.3ZM391.445 85.3C391.445 81.67 389.465 79.602 386.121 79.602H382.381V90.998H386.121C389.465 90.998 391.445 88.93 391.445 85.3ZM407.053 88.05H398.296C398.539 90.184 399.925 91.438 402.015 91.438C403.401 91.438 404.567 90.888 405.469 89.788L406.811 90.976C405.733 92.472 404.017 93.308 401.971 93.308C398.539 93.308 396.185 90.91 396.185 87.456C396.185 84.046 398.517 81.538 401.795 81.538C404.897 81.538 407.119 83.782 407.119 87.06C407.119 87.39 407.097 87.72 407.053 88.05ZM398.341 86.466H405.029C404.853 84.53 403.621 83.43 401.795 83.43C399.925 83.43 398.671 84.552 398.341 86.466ZM409.091 90.954L410.455 89.788C411.269 90.91 412.567 91.482 414.085 91.482C415.581 91.482 416.483 90.866 416.483 89.92C416.483 89.194 415.955 88.71 414.635 88.424L412.853 88.028C410.565 87.478 409.487 86.488 409.487 84.904C409.487 82.902 411.181 81.538 413.909 81.538C415.867 81.538 417.429 82.242 418.375 83.408L417.055 84.662C416.241 83.804 415.163 83.386 413.821 83.386C412.325 83.386 411.555 83.936 411.555 84.838C411.555 85.52 412.017 85.916 413.425 86.246L415.383 86.686C417.605 87.192 418.551 88.182 418.551 89.766C418.551 91.944 416.901 93.308 414.085 93.308C411.819 93.308 409.971 92.384 409.091 90.954ZM421.074 78.26C421.074 77.468 421.646 76.874 422.46 76.874C423.274 76.874 423.846 77.468 423.846 78.26C423.846 79.052 423.274 79.646 422.46 79.646C421.646 79.646 421.074 79.052 421.074 78.26ZM421.426 93V81.846H423.494V93H421.426ZM435.826 81.846H437.894V91.724C437.894 95.574 435.76 97.708 432.042 97.708C429.93 97.708 428.082 97.026 426.938 95.882L428.06 94.364C429.094 95.266 430.502 95.816 431.998 95.816C434.462 95.816 435.826 94.43 435.826 91.724V90.756C435.188 92.142 433.648 92.978 431.8 92.978C428.764 92.978 426.52 90.624 426.52 87.258C426.52 83.914 428.764 81.538 431.8 81.538C433.626 81.538 435.188 82.418 435.826 83.804V81.846ZM435.914 87.258C435.914 86.136 435.584 85.234 434.924 84.53C434.264 83.804 433.384 83.452 432.306 83.452C431.228 83.452 430.348 83.804 429.666 84.53C429.006 85.234 428.676 86.136 428.676 87.258C428.676 89.524 430.128 91.086 432.306 91.086C433.384 91.086 434.264 90.734 434.924 90.008C435.584 89.282 435.914 88.38 435.914 87.258ZM451.519 85.828V93H449.451V86.334C449.451 84.332 448.681 83.452 447.009 83.452C445.095 83.452 443.753 84.596 443.753 86.422V93H441.685V81.846H443.753V83.672C444.391 82.33 445.799 81.538 447.559 81.538C450.045 81.538 451.519 83.1 451.519 85.828Z" fill="#C46217"/>
<rect x="562" y="20" width="185" height="134" fill="white"/>
<path d="M562 8.5C562 3.80558 565.806 0 570.5 0H738.5C743.194 0 747 3.80558 747 8.5V20H562V8.5Z" fill="#EFBA93"/>
<circle cx="577" cy="10" r="3" fill="#ED5957"/>
<circle cx="585" cy="10" r="3" fill="#F4994B"/>
<circle cx="593" cy="10" r="3" fill="#26B065"/>
<path d="M613.794 82.44C613.794 85.454 611.88 87.258 608.514 87.258H604.356V93H602.2V77.6H608.514C611.88 77.6 613.794 79.426 613.794 82.44ZM611.55 82.44C611.55 80.438 610.582 79.58 608.36 79.58H604.356V85.278H608.36C610.582 85.278 611.55 84.398 611.55 82.44ZM623.119 81.824V83.694C622.811 83.628 622.459 83.606 622.085 83.606C619.951 83.606 618.763 84.816 618.763 87.346V93H616.695V81.846H618.763V83.848C619.291 82.462 620.523 81.67 622.129 81.67C622.503 81.67 622.833 81.714 623.119 81.824ZM624.347 87.434C624.347 84.222 626.657 81.538 630.133 81.538C633.565 81.538 635.897 84.222 635.897 87.434C635.897 90.668 633.565 93.308 630.133 93.308C626.657 93.308 624.347 90.668 624.347 87.434ZM633.741 87.434C633.741 85.08 632.311 83.452 630.133 83.452C629.055 83.452 628.175 83.826 627.493 84.574C626.833 85.3 626.503 86.268 626.503 87.434C626.503 88.6 626.833 89.546 627.493 90.294C628.175 91.02 629.055 91.394 630.133 91.394C631.211 91.394 632.091 91.02 632.751 90.294C633.411 89.546 633.741 88.6 633.741 87.434ZM639.553 90.03V83.628H637.353V81.846H639.553V78.546H641.621V81.846H645.031V83.628H641.621V89.832C641.621 90.91 642.127 91.35 643.359 91.35C643.865 91.35 644.437 91.284 645.075 91.152V92.89C644.437 93.088 643.755 93.176 643.029 93.176C640.719 93.176 639.553 92.12 639.553 90.03ZM646.798 87.434C646.798 84.222 649.108 81.538 652.584 81.538C656.016 81.538 658.348 84.222 658.348 87.434C658.348 90.668 656.016 93.308 652.584 93.308C649.108 93.308 646.798 90.668 646.798 87.434ZM656.192 87.434C656.192 85.08 654.762 83.452 652.584 83.452C651.506 83.452 650.626 83.826 649.944 84.574C649.284 85.3 648.954 86.268 648.954 87.434C648.954 88.6 649.284 89.546 649.944 90.294C650.626 91.02 651.506 91.394 652.584 91.394C653.662 91.394 654.542 91.02 655.202 90.294C655.862 89.546 656.192 88.6 656.192 87.434ZM662.004 90.03V83.628H659.804V81.846H662.004V78.546H664.072V81.846H667.482V83.628H664.072V89.832C664.072 90.91 664.578 91.35 665.81 91.35C666.316 91.35 666.888 91.284 667.526 91.152V92.89C666.888 93.088 666.206 93.176 665.48 93.176C663.17 93.176 662.004 92.12 662.004 90.03ZM677.736 81.846H679.804V91.9C679.804 95.662 677.802 97.708 674.282 97.708C672.368 97.708 670.674 97.114 669.618 96.058L670.74 94.584C671.642 95.376 672.896 95.816 674.194 95.816C676.482 95.816 677.736 94.518 677.736 91.9V90.844C677.098 92.186 675.668 92.978 673.886 92.978C671.422 92.978 669.97 91.438 669.97 88.688V81.846H672.038V88.182C672.038 90.206 672.808 91.064 674.458 91.064C676.394 91.064 677.736 89.876 677.736 88.094V81.846ZM694.949 87.434C694.949 90.866 692.749 93.308 689.713 93.308C687.865 93.308 686.303 92.428 685.665 91.02V97.4H683.597V81.846H685.665V83.826C686.303 82.418 687.865 81.538 689.713 81.538C692.749 81.538 694.949 83.98 694.949 87.434ZM692.815 87.434C692.815 86.268 692.485 85.3 691.803 84.574C691.143 83.826 690.263 83.452 689.185 83.452C687.007 83.452 685.577 85.08 685.577 87.434C685.577 88.6 685.907 89.546 686.567 90.294C687.227 91.02 688.107 91.394 689.185 91.394C690.263 91.394 691.143 91.02 691.803 90.294C692.485 89.546 692.815 88.6 692.815 87.434ZM708.09 88.05H699.334C699.576 90.184 700.962 91.438 703.052 91.438C704.438 91.438 705.604 90.888 706.506 89.788L707.848 90.976C706.77 92.472 705.054 93.308 703.008 93.308C699.576 93.308 697.222 90.91 697.222 87.456C697.222 84.046 699.554 81.538 702.832 81.538C705.934 81.538 708.156 83.782 708.156 87.06C708.156 87.39 708.134 87.72 708.09 88.05ZM699.378 86.466H706.066C705.89 84.53 704.658 83.43 702.832 83.43C700.962 83.43 699.708 84.552 699.378 86.466Z" fill="#C46217"/>
<rect x="843" y="20" width="185" height="134" fill="white"/>
<path d="M843 8.5C843 3.80558 846.806 0 851.5 0H1019.5C1024.19 0 1028 3.80558 1028 8.5V20H843V8.5Z" fill="#EFBA93"/>
<circle cx="858" cy="10" r="3" fill="#ED5957"/>
<circle cx="866" cy="10" r="3" fill="#F4994B"/>
<circle cx="874" cy="10" r="3" fill="#26B065"/>
<path d="M861.61 93V79.602H856.55V77.6H868.826V79.602H863.766V93H861.61ZM879.506 88.05H870.75C870.992 90.184 872.378 91.438 874.468 91.438C875.854 91.438 877.02 90.888 877.922 89.788L879.264 90.976C878.186 92.472 876.47 93.308 874.424 93.308C870.992 93.308 868.638 90.91 868.638 87.456C868.638 84.046 870.97 81.538 874.248 81.538C877.35 81.538 879.572 83.782 879.572 87.06C879.572 87.39 879.55 87.72 879.506 88.05ZM870.794 86.466H877.482C877.306 84.53 876.074 83.43 874.248 83.43C872.378 83.43 871.124 84.552 870.794 86.466ZM881.544 90.954L882.908 89.788C883.722 90.91 885.02 91.482 886.538 91.482C888.034 91.482 888.936 90.866 888.936 89.92C888.936 89.194 888.408 88.71 887.088 88.424L885.306 88.028C883.018 87.478 881.94 86.488 881.94 84.904C881.94 82.902 883.634 81.538 886.362 81.538C888.32 81.538 889.882 82.242 890.828 83.408L889.508 84.662C888.694 83.804 887.616 83.386 886.274 83.386C884.778 83.386 884.008 83.936 884.008 84.838C884.008 85.52 884.47 85.916 885.878 86.246L887.836 86.686C890.058 87.192 891.004 88.182 891.004 89.766C891.004 91.944 889.354 93.308 886.538 93.308C884.272 93.308 882.424 92.384 881.544 90.954ZM894.672 90.03V83.628H892.472V81.846H894.672V78.546H896.74V81.846H900.15V83.628H896.74V89.832C896.74 90.91 897.246 91.35 898.478 91.35C898.984 91.35 899.556 91.284 900.194 91.152V92.89C899.556 93.088 898.874 93.176 898.148 93.176C895.838 93.176 894.672 92.12 894.672 90.03ZM919.831 82.44C919.831 85.454 917.917 87.258 914.551 87.258H910.393V93H908.237V77.6H914.551C917.917 77.6 919.831 79.426 919.831 82.44ZM917.587 82.44C917.587 80.438 916.619 79.58 914.397 79.58H910.393V85.278H914.397C916.619 85.278 917.587 84.398 917.587 82.44ZM929.156 81.824V83.694C928.848 83.628 928.496 83.606 928.122 83.606C925.988 83.606 924.8 84.816 924.8 87.346V93H922.732V81.846H924.8V83.848C925.328 82.462 926.56 81.67 928.166 81.67C928.54 81.67 928.87 81.714 929.156 81.824ZM930.384 87.434C930.384 84.222 932.694 81.538 936.17 81.538C939.602 81.538 941.934 84.222 941.934 87.434C941.934 90.668 939.602 93.308 936.17 93.308C932.694 93.308 930.384 90.668 930.384 87.434ZM939.778 87.434C939.778 85.08 938.348 83.452 936.17 83.452C935.092 83.452 934.212 83.826 933.53 84.574C932.87 85.3 932.54 86.268 932.54 87.434C932.54 88.6 932.87 89.546 933.53 90.294C934.212 91.02 935.092 91.394 936.17 91.394C937.248 91.394 938.128 91.02 938.788 90.294C939.448 89.546 939.778 88.6 939.778 87.434ZM945.59 90.03V83.628H943.39V81.846H945.59V78.546H947.658V81.846H951.068V83.628H947.658V89.832C947.658 90.91 948.164 91.35 949.396 91.35C949.902 91.35 950.474 91.284 951.112 91.152V92.89C950.474 93.088 949.792 93.176 949.066 93.176C946.756 93.176 945.59 92.12 945.59 90.03ZM952.835 87.434C952.835 84.222 955.145 81.538 958.621 81.538C962.053 81.538 964.385 84.222 964.385 87.434C964.385 90.668 962.053 93.308 958.621 93.308C955.145 93.308 952.835 90.668 952.835 87.434ZM962.229 87.434C962.229 85.08 960.799 83.452 958.621 83.452C957.543 83.452 956.663 83.826 955.981 84.574C955.321 85.3 954.991 86.268 954.991 87.434C954.991 88.6 955.321 89.546 955.981 90.294C956.663 91.02 957.543 91.394 958.621 91.394C959.699 91.394 960.579 91.02 961.239 90.294C961.899 89.546 962.229 88.6 962.229 87.434ZM968.041 90.03V83.628H965.841V81.846H968.041V78.546H970.109V81.846H973.519V83.628H970.109V89.832C970.109 90.91 970.615 91.35 971.847 91.35C972.353 91.35 972.925 91.284 973.563 91.152V92.89C972.925 93.088 972.243 93.176 971.517 93.176C969.207 93.176 968.041 92.12 968.041 90.03ZM983.773 81.846H985.841V91.9C985.841 95.662 983.839 97.708 980.319 97.708C978.405 97.708 976.711 97.114 975.655 96.058L976.777 94.584C977.679 95.376 978.933 95.816 980.231 95.816C982.519 95.816 983.773 94.518 983.773 91.9V90.844C983.135 92.186 981.705 92.978 979.923 92.978C977.459 92.978 976.007 91.438 976.007 88.688V81.846H978.075V88.182C978.075 90.206 978.845 91.064 980.495 91.064C982.431 91.064 983.773 89.876 983.773 88.094V81.846ZM1000.99 87.434C1000.99 90.866 998.786 93.308 995.75 93.308C993.902 93.308 992.34 92.428 991.702 91.02V97.4H989.634V81.846H991.702V83.826C992.34 82.418 993.902 81.538 995.75 81.538C998.786 81.538 1000.99 83.98 1000.99 87.434ZM998.852 87.434C998.852 86.268 998.522 85.3 997.84 84.574C997.18 83.826 996.3 83.452 995.222 83.452C993.044 83.452 991.614 85.08 991.614 87.434C991.614 88.6 991.944 89.546 992.604 90.294C993.264 91.02 994.144 91.394 995.222 91.394C996.3 91.394 997.18 91.02 997.84 90.294C998.522 89.546 998.852 88.6 998.852 87.434ZM1014.13 88.05H1005.37C1005.61 90.184 1007 91.438 1009.09 91.438C1010.47 91.438 1011.64 90.888 1012.54 89.788L1013.88 90.976C1012.81 92.472 1011.09 93.308 1009.04 93.308C1005.61 93.308 1003.26 90.91 1003.26 87.456C1003.26 84.046 1005.59 81.538 1008.87 81.538C1011.97 81.538 1014.19 83.782 1014.19 87.06C1014.19 87.39 1014.17 87.72 1014.13 88.05ZM1005.41 86.466H1012.1C1011.93 84.53 1010.69 83.43 1008.87 83.43C1007 83.43 1005.74 84.552 1005.41 86.466Z" fill="#C46217"/>
<rect x="1124" y="20" width="185" height="134" fill="white"/>
<path d="M1124 8.5C1124 3.80558 1127.81 0 1132.5 0H1300.5C1305.19 0 1309 3.80558 1309 8.5V20H1124V8.5Z" fill="#EFBA93"/>
<circle cx="1139" cy="10" r="3" fill="#ED5957"/>
<circle cx="1147" cy="10" r="3" fill="#F4994B"/>
<circle cx="1155" cy="10" r="3" fill="#26B065"/>
<path d="M1193.64 71L1188.71 64.994H1186.38V71H1184.22V55.6H1190.65C1193.93 55.6 1195.88 57.382 1195.88 60.352C1195.88 63.102 1194.19 64.774 1191.22 64.972L1196.24 71H1193.64ZM1186.38 57.58V63.058H1190.47C1192.69 63.058 1193.62 62.222 1193.62 60.352C1193.62 58.438 1192.67 57.58 1190.47 57.58H1186.38ZM1208.88 66.05H1200.12C1200.37 68.184 1201.75 69.438 1203.84 69.438C1205.23 69.438 1206.39 68.888 1207.3 67.788L1208.64 68.976C1207.56 70.472 1205.84 71.308 1203.8 71.308C1200.37 71.308 1198.01 68.91 1198.01 65.456C1198.01 62.046 1200.34 59.538 1203.62 59.538C1206.72 59.538 1208.95 61.782 1208.95 65.06C1208.95 65.39 1208.92 65.72 1208.88 66.05ZM1200.17 64.466H1206.86C1206.68 62.53 1205.45 61.43 1203.62 61.43C1201.75 61.43 1200.5 62.552 1200.17 64.466ZM1219.04 59.846H1221.27L1216.78 71H1214.56L1210.09 59.846H1212.29L1215.68 68.734L1219.04 59.846ZM1223.2 56.26C1223.2 55.468 1223.77 54.874 1224.59 54.874C1225.4 54.874 1225.97 55.468 1225.97 56.26C1225.97 57.052 1225.4 57.646 1224.59 57.646C1223.77 57.646 1223.2 57.052 1223.2 56.26ZM1223.55 71V59.846H1225.62V71H1223.55ZM1228.41 68.954L1229.77 67.788C1230.59 68.91 1231.88 69.482 1233.4 69.482C1234.9 69.482 1235.8 68.866 1235.8 67.92C1235.8 67.194 1235.27 66.71 1233.95 66.424L1232.17 66.028C1229.88 65.478 1228.8 64.488 1228.8 62.904C1228.8 60.902 1230.5 59.538 1233.23 59.538C1235.18 59.538 1236.75 60.242 1237.69 61.408L1236.37 62.662C1235.56 61.804 1234.48 61.386 1233.14 61.386C1231.64 61.386 1230.87 61.936 1230.87 62.838C1230.87 63.52 1231.33 63.916 1232.74 64.246L1234.7 64.686C1236.92 65.192 1237.87 66.182 1237.87 67.766C1237.87 69.944 1236.22 71.308 1233.4 71.308C1231.14 71.308 1229.29 70.384 1228.41 68.954ZM1250.82 66.05H1242.06C1242.3 68.184 1243.69 69.438 1245.78 69.438C1247.17 69.438 1248.33 68.888 1249.23 67.788L1250.58 68.976C1249.5 70.472 1247.78 71.308 1245.74 71.308C1242.3 71.308 1239.95 68.91 1239.95 65.456C1239.95 62.046 1242.28 59.538 1245.56 59.538C1248.66 59.538 1250.88 61.782 1250.88 65.06C1250.88 65.39 1250.86 65.72 1250.82 66.05ZM1242.11 64.466H1248.79C1248.62 62.53 1247.39 61.43 1245.56 61.43C1243.69 61.43 1242.44 62.552 1242.11 64.466ZM1176.17 92.44C1176.17 95.454 1174.26 97.258 1170.89 97.258H1166.73V103H1164.58V87.6H1170.89C1174.26 87.6 1176.17 89.426 1176.17 92.44ZM1173.93 92.44C1173.93 90.438 1172.96 89.58 1170.74 89.58H1166.73V95.278H1170.74C1172.96 95.278 1173.93 94.398 1173.93 92.44ZM1185.49 91.824V93.694C1185.19 93.628 1184.83 93.606 1184.46 93.606C1182.33 93.606 1181.14 94.816 1181.14 97.346V103H1179.07V91.846H1181.14V93.848C1181.67 92.462 1182.9 91.67 1184.5 91.67C1184.88 91.67 1185.21 91.714 1185.49 91.824ZM1186.72 97.434C1186.72 94.222 1189.03 91.538 1192.51 91.538C1195.94 91.538 1198.27 94.222 1198.27 97.434C1198.27 100.668 1195.94 103.308 1192.51 103.308C1189.03 103.308 1186.72 100.668 1186.72 97.434ZM1196.12 97.434C1196.12 95.08 1194.69 93.452 1192.51 93.452C1191.43 93.452 1190.55 93.826 1189.87 94.574C1189.21 95.3 1188.88 96.268 1188.88 97.434C1188.88 98.6 1189.21 99.546 1189.87 100.294C1190.55 101.02 1191.43 101.394 1192.51 101.394C1193.59 101.394 1194.47 101.02 1195.13 100.294C1195.79 99.546 1196.12 98.6 1196.12 97.434ZM1201.93 100.03V93.628H1199.73V91.846H1201.93V88.546H1204V91.846H1207.41V93.628H1204V99.832C1204 100.91 1204.5 101.35 1205.73 101.35C1206.24 101.35 1206.81 101.284 1207.45 101.152V102.89C1206.81 103.088 1206.13 103.176 1205.4 103.176C1203.09 103.176 1201.93 102.12 1201.93 100.03ZM1209.17 97.434C1209.17 94.222 1211.48 91.538 1214.96 91.538C1218.39 91.538 1220.72 94.222 1220.72 97.434C1220.72 100.668 1218.39 103.308 1214.96 103.308C1211.48 103.308 1209.17 100.668 1209.17 97.434ZM1218.57 97.434C1218.57 95.08 1217.14 93.452 1214.96 93.452C1213.88 93.452 1213 93.826 1212.32 94.574C1211.66 95.3 1211.33 96.268 1211.33 97.434C1211.33 98.6 1211.66 99.546 1212.32 100.294C1213 101.02 1213.88 101.394 1214.96 101.394C1216.04 101.394 1216.92 101.02 1217.58 100.294C1218.24 99.546 1218.57 98.6 1218.57 97.434ZM1224.38 100.03V93.628H1222.18V91.846H1224.38V88.546H1226.45V91.846H1229.86V93.628H1226.45V99.832C1226.45 100.91 1226.95 101.35 1228.19 101.35C1228.69 101.35 1229.26 101.284 1229.9 101.152V102.89C1229.26 103.088 1228.58 103.176 1227.86 103.176C1225.55 103.176 1224.38 102.12 1224.38 100.03ZM1240.11 91.846H1242.18V101.9C1242.18 105.662 1240.18 107.708 1236.66 107.708C1234.74 107.708 1233.05 107.114 1231.99 106.058L1233.12 104.584C1234.02 105.376 1235.27 105.816 1236.57 105.816C1238.86 105.816 1240.11 104.518 1240.11 101.9V100.844C1239.47 102.186 1238.04 102.978 1236.26 102.978C1233.8 102.978 1232.35 101.438 1232.35 98.688V91.846H1234.41V98.182C1234.41 100.206 1235.18 101.064 1236.83 101.064C1238.77 101.064 1240.11 99.876 1240.11 98.094V91.846ZM1257.33 97.434C1257.33 100.866 1255.13 103.308 1252.09 103.308C1250.24 103.308 1248.68 102.428 1248.04 101.02V107.4H1245.97V91.846H1248.04V93.826C1248.68 92.418 1250.24 91.538 1252.09 91.538C1255.13 91.538 1257.33 93.98 1257.33 97.434ZM1255.19 97.434C1255.19 96.268 1254.86 95.3 1254.18 94.574C1253.52 93.826 1252.64 93.452 1251.56 93.452C1249.38 93.452 1247.95 95.08 1247.95 97.434C1247.95 98.6 1248.28 99.546 1248.94 100.294C1249.6 101.02 1250.48 101.394 1251.56 101.394C1252.64 101.394 1253.52 101.02 1254.18 100.294C1254.86 99.546 1255.19 98.6 1255.19 97.434ZM1270.47 98.05H1261.71C1261.95 100.184 1263.34 101.438 1265.43 101.438C1266.81 101.438 1267.98 100.888 1268.88 99.788L1270.22 100.976C1269.15 102.472 1267.43 103.308 1265.38 103.308C1261.95 103.308 1259.6 100.91 1259.6 97.456C1259.6 94.046 1261.93 91.538 1265.21 91.538C1268.31 91.538 1270.53 93.782 1270.53 97.06C1270.53 97.39 1270.51 97.72 1270.47 98.05ZM1261.75 96.466H1268.44C1268.27 94.53 1267.03 93.43 1265.21 93.43C1263.34 93.43 1262.08 94.552 1261.75 96.466Z" fill="#C46217"/>
<path d="M194.333 84C194.333 85.4728 195.527 86.6667 197 86.6667C198.473 86.6667 199.667 85.4728 199.667 84C199.667 82.5272 198.473 81.3333 197 81.3333C195.527 81.3333 194.333 82.5272 194.333 84ZM269 84L264 81.1132V86.8868L269 84ZM197 84.5H264.5V83.5H197V84.5Z" fill="black"/>
<path d="M756.333 83.5C756.333 84.9728 757.527 86.1667 759 86.1667C760.473 86.1667 761.667 84.9728 761.667 83.5C761.667 82.0272 760.473 80.8333 759 80.8333C757.527 80.8333 756.333 82.0272 756.333 83.5ZM831 83.5L826 80.6132V86.3868L831 83.5ZM759 84H826.5V83H759V84Z" fill="black"/>
<path d="M646.333 416C646.333 417.473 647.527 418.667 649 418.667C650.473 418.667 651.667 417.473 651.667 416C651.667 414.527 650.473 413.333 649 413.333C647.527 413.333 646.333 414.527 646.333 416ZM721 416L716 413.113V418.887L721 416ZM649 416.5H716.5V415.5H649V416.5Z" fill="black"/>
<path d="M1037.33 83.5C1037.33 84.9728 1038.53 86.1667 1040 86.1667C1041.47 86.1667 1042.67 84.9728 1042.67 83.5C1042.67 82.0272 1041.47 80.8333 1040 80.8333C1038.53 80.8333 1037.33 82.0272 1037.33 83.5ZM1112 83.5L1107 80.6132V86.3868L1112 83.5ZM1040 84H1107.5V83H1040V84Z" fill="black"/>
<rect x="435" y="186" width="151" height="56" rx="8" fill="#FFF6F0"/>
<path d="M454.168 216.56H460.488V218H452.6V206.8H460.328V208.24H454.168V211.632H459.992V213.056H454.168V216.56ZM470.153 212.784V218H468.649V213.152C468.649 211.696 468.089 211.056 466.873 211.056C465.481 211.056 464.505 211.888 464.505 213.216V218H463.001V209.888H464.505V211.216C464.969 210.24 465.993 209.664 467.273 209.664C469.081 209.664 470.153 210.8 470.153 212.784ZM479.053 209.888H480.557V217.072C480.557 219.872 479.005 221.424 476.301 221.424C474.765 221.424 473.421 220.928 472.589 220.096L473.405 218.992C474.157 219.648 475.181 220.048 476.269 220.048C478.061 220.048 479.053 219.04 479.053 217.072V216.368C478.589 217.376 477.469 217.984 476.125 217.984C473.917 217.984 472.285 216.272 472.285 213.824C472.285 211.392 473.917 209.664 476.125 209.664C477.453 209.664 478.589 210.304 479.053 211.312V209.888ZM479.117 213.824C479.117 213.008 478.877 212.352 478.397 211.84C477.917 211.312 477.277 211.056 476.493 211.056C475.709 211.056 475.069 211.312 474.573 211.84C474.093 212.352 473.853 213.008 473.853 213.824C473.853 215.472 474.909 216.608 476.493 216.608C477.277 216.608 477.917 216.352 478.397 215.824C478.877 215.296 479.117 214.64 479.117 213.824ZM497.002 212.4C497.002 215.872 494.73 218 491.482 218H487.194V206.8H491.482C494.73 206.8 497.002 208.928 497.002 212.4ZM495.354 212.4C495.354 209.76 493.914 208.256 491.482 208.256H488.762V216.544H491.482C493.914 216.544 495.354 215.04 495.354 212.4ZM499.12 207.28C499.12 206.704 499.536 206.272 500.128 206.272C500.72 206.272 501.136 206.704 501.136 207.28C501.136 207.856 500.72 208.288 500.128 208.288C499.536 208.288 499.12 207.856 499.12 207.28ZM499.376 218V209.888H500.88V218H499.376ZM502.906 216.512L503.898 215.664C504.49 216.48 505.434 216.896 506.538 216.896C507.626 216.896 508.282 216.448 508.282 215.76C508.282 215.232 507.898 214.88 506.938 214.672L505.642 214.384C503.978 213.984 503.194 213.264 503.194 212.112C503.194 210.656 504.426 209.664 506.41 209.664C507.834 209.664 508.97 210.176 509.658 211.024L508.698 211.936C508.106 211.312 507.322 211.008 506.346 211.008C505.258 211.008 504.698 211.408 504.698 212.064C504.698 212.56 505.034 212.848 506.058 213.088L507.482 213.408C509.098 213.776 509.786 214.496 509.786 215.648C509.786 217.232 508.586 218.224 506.538 218.224C504.89 218.224 503.546 217.552 502.906 216.512ZM511.3 213.952C511.3 211.472 513.012 209.664 515.492 209.664C516.98 209.664 518.228 210.32 518.916 211.456L517.748 212.256C517.252 211.488 516.468 211.056 515.508 211.056C513.924 211.056 512.868 212.224 512.868 213.952C512.868 215.68 513.924 216.832 515.508 216.832C516.468 216.832 517.252 216.416 517.748 215.632L518.916 216.448C518.228 217.584 516.98 218.224 515.492 218.224C513.012 218.224 511.3 216.416 511.3 213.952ZM520.654 214.96V209.888H522.158V214.848C522.158 216.144 522.894 216.832 524.19 216.832C525.486 216.832 526.222 216.144 526.222 214.848V209.888H527.726V214.96C527.726 215.952 527.406 216.752 526.766 217.344C526.126 217.936 525.262 218.224 524.19 218.224C522.078 218.224 520.654 216.912 520.654 214.96ZM529.593 216.512L530.585 215.664C531.177 216.48 532.121 216.896 533.225 216.896C534.313 216.896 534.969 216.448 534.969 215.76C534.969 215.232 534.585 214.88 533.625 214.672L532.329 214.384C530.665 213.984 529.881 213.264 529.881 212.112C529.881 210.656 531.113 209.664 533.097 209.664C534.521 209.664 535.657 210.176 536.345 211.024L535.385 211.936C534.793 211.312 534.009 211.008 533.033 211.008C531.945 211.008 531.385 211.408 531.385 212.064C531.385 212.56 531.721 212.848 532.745 213.088L534.169 213.408C535.785 213.776 536.473 214.496 536.473 215.648C536.473 217.232 535.273 218.224 533.225 218.224C531.577 218.224 530.233 217.552 529.593 216.512ZM537.796 216.512L538.788 215.664C539.38 216.48 540.324 216.896 541.428 216.896C542.516 216.896 543.172 216.448 543.172 215.76C543.172 215.232 542.788 214.88 541.828 214.672L540.532 214.384C538.868 213.984 538.084 213.264 538.084 212.112C538.084 210.656 539.316 209.664 541.3 209.664C542.724 209.664 543.86 210.176 544.548 211.024L543.588 211.936C542.996 211.312 542.212 211.008 541.236 211.008C540.148 211.008 539.588 211.408 539.588 212.064C539.588 212.56 539.924 212.848 540.948 213.088L542.372 213.408C543.988 213.776 544.676 214.496 544.676 215.648C544.676 217.232 543.476 218.224 541.428 218.224C539.78 218.224 538.436 217.552 537.796 216.512ZM546.511 207.28C546.511 206.704 546.927 206.272 547.519 206.272C548.111 206.272 548.527 206.704 548.527 207.28C548.527 207.856 548.111 208.288 547.519 208.288C546.927 208.288 546.511 207.856 546.511 207.28ZM546.767 218V209.888H548.271V218H546.767ZM550.472 213.952C550.472 211.616 552.152 209.664 554.68 209.664C557.176 209.664 558.872 211.616 558.872 213.952C558.872 216.304 557.176 218.224 554.68 218.224C552.152 218.224 550.472 216.304 550.472 213.952ZM557.304 213.952C557.304 212.24 556.264 211.056 554.68 211.056C553.896 211.056 553.256 211.328 552.76 211.872C552.28 212.4 552.04 213.104 552.04 213.952C552.04 214.8 552.28 215.488 552.76 216.032C553.256 216.56 553.896 216.832 554.68 216.832C555.464 216.832 556.104 216.56 556.584 216.032C557.064 215.488 557.304 214.8 557.304 213.952ZM568.216 212.784V218H566.712V213.152C566.712 211.696 566.152 211.056 564.936 211.056C563.544 211.056 562.568 211.888 562.568 213.216V218H561.064V209.888H562.568V211.216C563.032 210.24 564.056 209.664 565.336 209.664C567.144 209.664 568.216 210.8 568.216 212.784Z" fill="#C46217"/>
<rect x="998" y="186" width="154" height="56" rx="8" fill="#FFF6F0"/>
<path d="M1022.45 218L1018.86 213.632H1017.17V218H1015.6V206.8H1020.27C1022.66 206.8 1024.08 208.096 1024.08 210.256C1024.08 212.256 1022.85 213.472 1020.69 213.616L1024.34 218H1022.45ZM1017.17 208.24V212.224H1020.14C1021.76 212.224 1022.43 211.616 1022.43 210.256C1022.43 208.864 1021.74 208.24 1020.14 208.24H1017.17ZM1033.53 214.4H1027.16C1027.34 215.952 1028.35 216.864 1029.87 216.864C1030.88 216.864 1031.72 216.464 1032.38 215.664L1033.36 216.528C1032.57 217.616 1031.32 218.224 1029.84 218.224C1027.34 218.224 1025.63 216.48 1025.63 213.968C1025.63 211.488 1027.32 209.664 1029.71 209.664C1031.96 209.664 1033.58 211.296 1033.58 213.68C1033.58 213.92 1033.56 214.16 1033.53 214.4ZM1027.2 213.248H1032.06C1031.93 211.84 1031.04 211.04 1029.71 211.04C1028.35 211.04 1027.44 211.856 1027.2 213.248ZM1035.02 216.512L1036.01 215.664C1036.6 216.48 1037.54 216.896 1038.65 216.896C1039.74 216.896 1040.39 216.448 1040.39 215.76C1040.39 215.232 1040.01 214.88 1039.05 214.672L1037.75 214.384C1036.09 213.984 1035.3 213.264 1035.3 212.112C1035.3 210.656 1036.54 209.664 1038.52 209.664C1039.94 209.664 1041.08 210.176 1041.77 211.024L1040.81 211.936C1040.22 211.312 1039.43 211.008 1038.46 211.008C1037.37 211.008 1036.81 211.408 1036.81 212.064C1036.81 212.56 1037.14 212.848 1038.17 213.088L1039.59 213.408C1041.21 213.776 1041.9 214.496 1041.9 215.648C1041.9 217.232 1040.7 218.224 1038.65 218.224C1037 218.224 1035.66 217.552 1035.02 216.512ZM1051.31 214.4H1044.95C1045.12 215.952 1046.13 216.864 1047.65 216.864C1048.66 216.864 1049.51 216.464 1050.16 215.664L1051.14 216.528C1050.35 217.616 1049.11 218.224 1047.62 218.224C1045.12 218.224 1043.41 216.48 1043.41 213.968C1043.41 211.488 1045.11 209.664 1047.49 209.664C1049.75 209.664 1051.36 211.296 1051.36 213.68C1051.36 213.92 1051.35 214.16 1051.31 214.4ZM1044.98 213.248H1049.84C1049.71 211.84 1048.82 211.04 1047.49 211.04C1046.13 211.04 1045.22 211.856 1044.98 213.248ZM1054 215.84V211.184H1052.4V209.888H1054V207.488H1055.5V209.888H1057.98V211.184H1055.5V215.696C1055.5 216.48 1055.87 216.8 1056.77 216.8C1057.14 216.8 1057.55 216.752 1058.02 216.656V217.92C1057.55 218.064 1057.06 218.128 1056.53 218.128C1054.85 218.128 1054 217.36 1054 215.84ZM1063.4 207.28C1063.4 206.704 1063.82 206.272 1064.41 206.272C1065 206.272 1065.42 206.704 1065.42 207.28C1065.42 207.856 1065 208.288 1064.41 208.288C1063.82 208.288 1063.4 207.856 1063.4 207.28ZM1063.66 218V209.888H1065.16V218H1063.66ZM1068.59 218V211.184H1066.95V209.888H1068.59V208.704C1068.59 206.96 1069.41 206.144 1071.19 206.144C1071.62 206.144 1072.03 206.192 1072.45 206.288V207.552C1072.03 207.488 1071.68 207.456 1071.41 207.456C1070.5 207.456 1070.1 207.856 1070.1 208.768V209.888H1072.42V211.184H1070.1V218H1068.59ZM1084.75 212.784V218H1083.24V213.152C1083.24 211.696 1082.68 211.056 1081.47 211.056C1080.07 211.056 1079.1 211.888 1079.1 213.216V218H1077.59V209.888H1079.1V211.216C1079.56 210.24 1080.59 209.664 1081.87 209.664C1083.67 209.664 1084.75 210.8 1084.75 212.784ZM1094.78 214.4H1088.41C1088.59 215.952 1089.6 216.864 1091.12 216.864C1092.13 216.864 1092.97 216.464 1093.63 215.664L1094.61 216.528C1093.82 217.616 1092.57 218.224 1091.09 218.224C1088.59 218.224 1086.88 216.48 1086.88 213.968C1086.88 211.488 1088.57 209.664 1090.96 209.664C1093.21 209.664 1094.83 211.296 1094.83 213.68C1094.83 213.92 1094.81 214.16 1094.78 214.4ZM1088.45 213.248H1093.31C1093.18 211.84 1092.29 211.04 1090.96 211.04C1089.6 211.04 1088.69 211.856 1088.45 213.248ZM1104.35 214.4H1097.98C1098.15 215.952 1099.16 216.864 1100.68 216.864C1101.69 216.864 1102.54 216.464 1103.19 215.664L1104.17 216.528C1103.39 217.616 1102.14 218.224 1100.65 218.224C1098.15 218.224 1096.44 216.48 1096.44 213.968C1096.44 211.488 1098.14 209.664 1100.52 209.664C1102.78 209.664 1104.39 211.296 1104.39 213.68C1104.39 213.92 1104.38 214.16 1104.35 214.4ZM1098.01 213.248H1102.87C1102.75 211.84 1101.85 211.04 1100.52 211.04C1099.16 211.04 1098.25 211.856 1098.01 213.248ZM1112.77 206.288H1114.28V218H1112.77V216.56C1112.31 217.584 1111.16 218.224 1109.83 218.224C1107.64 218.224 1106 216.448 1106 213.952C1106 211.44 1107.64 209.664 1109.83 209.664C1111.16 209.664 1112.31 210.304 1112.77 211.328V206.288ZM1112.84 213.952C1112.84 212.24 1111.8 211.056 1110.21 211.056C1109.43 211.056 1108.79 211.328 1108.29 211.872C1107.81 212.4 1107.57 213.104 1107.57 213.952C1107.57 214.8 1107.81 215.488 1108.29 216.032C1108.79 216.56 1109.43 216.832 1110.21 216.832C1111 216.832 1111.64 216.56 1112.12 216.032C1112.6 215.488 1112.84 214.8 1112.84 213.952ZM1124.38 214.4H1118.01C1118.18 215.952 1119.19 216.864 1120.71 216.864C1121.72 216.864 1122.57 216.464 1123.22 215.664L1124.2 216.528C1123.42 217.616 1122.17 218.224 1120.68 218.224C1118.18 218.224 1116.47 216.48 1116.47 213.968C1116.47 211.488 1118.17 209.664 1120.55 209.664C1122.81 209.664 1124.42 211.296 1124.42 213.68C1124.42 213.92 1124.41 214.16 1124.38 214.4ZM1118.04 213.248H1122.9C1122.78 211.84 1121.88 211.04 1120.55 211.04C1119.19 211.04 1118.28 211.856 1118.04 213.248ZM1132.8 206.288H1134.31V218H1132.8V216.56C1132.34 217.584 1131.19 218.224 1129.86 218.224C1127.67 218.224 1126.03 216.448 1126.03 213.952C1126.03 211.44 1127.67 209.664 1129.86 209.664C1131.19 209.664 1132.34 210.304 1132.8 211.328V206.288ZM1132.87 213.952C1132.87 212.24 1131.83 211.056 1130.24 211.056C1129.46 211.056 1128.82 211.328 1128.32 211.872C1127.84 212.4 1127.6 213.104 1127.6 213.952C1127.6 214.8 1127.84 215.488 1128.32 216.032C1128.82 216.56 1129.46 216.832 1130.24 216.832C1131.03 216.832 1131.67 216.56 1132.15 216.032C1132.63 215.488 1132.87 214.8 1132.87 213.952Z" fill="#C46217"/>
<rect x="600" y="507" width="169" height="80" rx="8" fill="#FFF6F0"/>
<path d="M619.316 537.56H625.636V539H617.748V527.8H625.476V529.24H619.316V532.632H625.14V534.056H619.316V537.56ZM634.232 527.288H635.736V539H634.232V537.56C633.768 538.584 632.616 539.224 631.288 539.224C629.096 539.224 627.464 537.448 627.464 534.952C627.464 532.44 629.096 530.664 631.288 530.664C632.616 530.664 633.768 531.304 634.232 532.328V527.288ZM634.296 534.952C634.296 533.24 633.256 532.056 631.672 532.056C630.888 532.056 630.248 532.328 629.752 532.872C629.272 533.4 629.032 534.104 629.032 534.952C629.032 535.8 629.272 536.488 629.752 537.032C630.248 537.56 630.888 537.832 631.672 537.832C632.456 537.832 633.096 537.56 633.576 537.032C634.056 536.488 634.296 535.8 634.296 534.952ZM644.701 530.888H646.205V538.072C646.205 540.872 644.653 542.424 641.949 542.424C640.413 542.424 639.069 541.928 638.237 541.096L639.053 539.992C639.805 540.648 640.829 541.048 641.917 541.048C643.709 541.048 644.701 540.04 644.701 538.072V537.368C644.237 538.376 643.117 538.984 641.773 538.984C639.565 538.984 637.933 537.272 637.933 534.824C637.933 532.392 639.565 530.664 641.773 530.664C643.101 530.664 644.237 531.304 644.701 532.312V530.888ZM644.765 534.824C644.765 534.008 644.525 533.352 644.045 532.84C643.565 532.312 642.925 532.056 642.141 532.056C641.357 532.056 640.717 532.312 640.221 532.84C639.741 533.352 639.501 534.008 639.501 534.824C639.501 536.472 640.557 537.608 642.141 537.608C642.925 537.608 643.565 537.352 644.045 536.824C644.525 536.296 644.765 535.64 644.765 534.824ZM656.306 535.4H649.938C650.114 536.952 651.122 537.864 652.642 537.864C653.65 537.864 654.498 537.464 655.154 536.664L656.13 537.528C655.346 538.616 654.098 539.224 652.61 539.224C650.114 539.224 648.402 537.48 648.402 534.968C648.402 532.488 650.098 530.664 652.482 530.664C654.738 530.664 656.354 532.296 656.354 534.68C656.354 534.92 656.338 535.16 656.306 535.4ZM649.97 534.248H654.834C654.706 532.84 653.81 532.04 652.482 532.04C651.122 532.04 650.21 532.856 649.97 534.248ZM661.621 534.952C661.621 532.472 663.333 530.664 665.813 530.664C667.301 530.664 668.549 531.32 669.237 532.456L668.069 533.256C667.573 532.488 666.789 532.056 665.829 532.056C664.245 532.056 663.189 533.224 663.189 534.952C663.189 536.68 664.245 537.832 665.829 537.832C666.789 537.832 667.573 537.416 668.069 536.632L669.237 537.448C668.549 538.584 667.301 539.224 665.813 539.224C663.333 539.224 661.621 537.416 661.621 534.952ZM677.311 530.888H678.815V539H677.311V537.56C676.847 538.584 675.711 539.224 674.383 539.224C672.175 539.224 670.543 537.448 670.543 534.952C670.543 532.44 672.175 530.664 674.383 530.664C675.711 530.664 676.847 531.304 677.311 532.328V530.888ZM677.375 534.952C677.375 533.24 676.335 532.056 674.751 532.056C673.967 532.056 673.327 532.328 672.831 532.872C672.351 533.4 672.111 534.104 672.111 534.952C672.111 535.8 672.351 536.488 672.831 537.032C673.327 537.56 673.967 537.832 674.751 537.832C675.535 537.832 676.175 537.56 676.655 537.032C677.135 536.488 677.375 535.8 677.375 534.952ZM680.835 537.512L681.827 536.664C682.419 537.48 683.363 537.896 684.467 537.896C685.555 537.896 686.211 537.448 686.211 536.76C686.211 536.232 685.827 535.88 684.867 535.672L683.571 535.384C681.907 534.984 681.123 534.264 681.123 533.112C681.123 531.656 682.355 530.664 684.339 530.664C685.763 530.664 686.899 531.176 687.587 532.024L686.627 532.936C686.035 532.312 685.251 532.008 684.275 532.008C683.187 532.008 682.627 532.408 682.627 533.064C682.627 533.56 682.963 533.848 683.987 534.088L685.411 534.408C687.027 534.776 687.715 535.496 687.715 536.648C687.715 538.232 686.515 539.224 684.467 539.224C682.819 539.224 681.475 538.552 680.835 537.512ZM697.134 535.4H690.766C690.942 536.952 691.95 537.864 693.47 537.864C694.478 537.864 695.326 537.464 695.982 536.664L696.958 537.528C696.174 538.616 694.926 539.224 693.438 539.224C690.942 539.224 689.23 537.48 689.23 534.968C689.23 532.488 690.926 530.664 693.31 530.664C695.566 530.664 697.182 532.296 697.182 534.68C697.182 534.92 697.166 535.16 697.134 535.4ZM690.798 534.248H695.662C695.534 532.84 694.638 532.04 693.31 532.04C691.95 532.04 691.038 532.856 690.798 534.248ZM707.681 530.872V532.232C707.457 532.184 707.201 532.168 706.929 532.168C705.377 532.168 704.513 533.048 704.513 534.888V539H703.009V530.888H704.513V532.344C704.897 531.336 705.793 530.76 706.961 530.76C707.233 530.76 707.473 530.792 707.681 530.872ZM716.478 535.4H710.11C710.286 536.952 711.294 537.864 712.814 537.864C713.822 537.864 714.67 537.464 715.326 536.664L716.302 537.528C715.518 538.616 714.27 539.224 712.782 539.224C710.286 539.224 708.574 537.48 708.574 534.968C708.574 532.488 710.27 530.664 712.654 530.664C714.91 530.664 716.526 532.296 716.526 534.68C716.526 534.92 716.51 535.16 716.478 535.4ZM710.142 534.248H715.006C714.878 532.84 713.982 532.04 712.654 532.04C711.294 532.04 710.382 532.856 710.142 534.248ZM723.87 530.888H725.486L722.222 539H720.606L717.358 530.888H718.958L721.422 537.352L723.87 530.888ZM726.894 528.28C726.894 527.704 727.31 527.272 727.902 527.272C728.494 527.272 728.91 527.704 728.91 528.28C728.91 528.856 728.494 529.288 727.902 529.288C727.31 529.288 726.894 528.856 726.894 528.28ZM727.15 539V530.888H728.654V539H727.15ZM738.759 535.4H732.391C732.567 536.952 733.575 537.864 735.095 537.864C736.103 537.864 736.951 537.464 737.607 536.664L738.583 537.528C737.799 538.616 736.551 539.224 735.063 539.224C732.567 539.224 730.855 537.48 730.855 534.968C730.855 532.488 732.551 530.664 734.935 530.664C737.191 530.664 738.807 532.296 738.807 534.68C738.807 534.92 738.791 535.16 738.759 535.4ZM732.423 534.248H737.287C737.159 532.84 736.263 532.04 734.935 532.04C733.575 532.04 732.663 532.856 732.423 534.248ZM750.997 530.888H752.517L749.893 539H748.229L746.149 532.648L744.069 539H742.421L739.797 530.888H741.317L743.285 537.208L745.365 530.888H746.949L749.013 537.192L750.997 530.888ZM657.331 563H655.587L654.627 561.912C653.747 562.792 652.691 563.224 651.427 563.224C649.315 563.224 647.795 561.896 647.795 560.136C647.795 558.92 648.499 557.88 650.099 556.968L650.195 556.92C649.187 555.784 648.803 555.032 648.803 554.184C648.803 552.728 650.035 551.576 651.779 551.576C653.475 551.576 654.739 552.616 654.739 554.136C654.739 555.208 654.099 556.184 652.803 556.952L652.291 557.24L654.467 559.72C654.739 559.16 654.947 558.456 655.059 557.608H656.467C656.275 558.904 655.923 559.976 655.427 560.84L657.331 563ZM650.275 554.184C650.275 554.696 650.579 555.288 651.171 555.96L651.443 556.28L652.131 555.88C652.947 555.416 653.299 554.92 653.299 554.28C653.299 553.448 652.659 552.904 651.779 552.904C650.899 552.904 650.275 553.464 650.275 554.184ZM653.667 560.888L651.059 557.896L650.947 557.96C649.811 558.616 649.363 559.288 649.363 560.072C649.363 561.144 650.195 561.848 651.427 561.848C652.291 561.848 653.043 561.528 653.667 560.888ZM667.384 554.872V556.232C667.16 556.184 666.904 556.168 666.632 556.168C665.08 556.168 664.216 557.048 664.216 558.888V563H662.712V554.888H664.216V556.344C664.6 555.336 665.496 554.76 666.664 554.76C666.936 554.76 667.176 554.792 667.384 554.872ZM676.181 559.4H669.813C669.989 560.952 670.997 561.864 672.517 561.864C673.525 561.864 674.373 561.464 675.029 560.664L676.005 561.528C675.221 562.616 673.973 563.224 672.485 563.224C669.989 563.224 668.277 561.48 668.277 558.968C668.277 556.488 669.973 554.664 672.357 554.664C674.613 554.664 676.229 556.296 676.229 558.68C676.229 558.92 676.213 559.16 676.181 559.4ZM669.845 558.248H674.709C674.581 556.84 673.685 556.04 672.357 556.04C670.997 556.04 670.085 556.856 669.845 558.248ZM683.573 554.888H685.189L681.925 563H680.309L677.061 554.888H678.661L681.125 561.352L683.573 554.888ZM686.597 552.28C686.597 551.704 687.013 551.272 687.605 551.272C688.197 551.272 688.613 551.704 688.613 552.28C688.613 552.856 688.197 553.288 687.605 553.288C687.013 553.288 686.597 552.856 686.597 552.28ZM686.853 563V554.888H688.357V563H686.853ZM690.382 561.512L691.374 560.664C691.966 561.48 692.91 561.896 694.014 561.896C695.102 561.896 695.758 561.448 695.758 560.76C695.758 560.232 695.374 559.88 694.414 559.672L693.118 559.384C691.454 558.984 690.67 558.264 690.67 557.112C690.67 555.656 691.902 554.664 693.886 554.664C695.31 554.664 696.446 555.176 697.134 556.024L696.174 556.936C695.582 556.312 694.798 556.008 693.822 556.008C692.734 556.008 692.174 556.408 692.174 557.064C692.174 557.56 692.51 557.848 693.534 558.088L694.958 558.408C696.574 558.776 697.262 559.496 697.262 560.648C697.262 562.232 696.062 563.224 694.014 563.224C692.366 563.224 691.022 562.552 690.382 561.512ZM699.097 552.28C699.097 551.704 699.513 551.272 700.105 551.272C700.697 551.272 701.113 551.704 701.113 552.28C701.113 552.856 700.697 553.288 700.105 553.288C699.513 553.288 699.097 552.856 699.097 552.28ZM699.353 563V554.888H700.857V563H699.353ZM703.058 558.952C703.058 556.616 704.738 554.664 707.266 554.664C709.762 554.664 711.458 556.616 711.458 558.952C711.458 561.304 709.762 563.224 707.266 563.224C704.738 563.224 703.058 561.304 703.058 558.952ZM709.89 558.952C709.89 557.24 708.85 556.056 707.266 556.056C706.482 556.056 705.842 556.328 705.346 556.872C704.866 557.4 704.626 558.104 704.626 558.952C704.626 559.8 704.866 560.488 705.346 561.032C705.842 561.56 706.482 561.832 707.266 561.832C708.05 561.832 708.69 561.56 709.17 561.032C709.65 560.488 709.89 559.8 709.89 558.952ZM720.801 557.784V563H719.297V558.152C719.297 556.696 718.737 556.056 717.521 556.056C716.129 556.056 715.153 556.888 715.153 558.216V563H713.649V554.888H715.153V556.216C715.617 555.24 716.641 554.664 717.921 554.664C719.729 554.664 720.801 555.8 720.801 557.784Z" fill="#C46217"/>
<path d="M363.333 166C363.333 167.473 364.527 168.667 366 168.667C367.473 168.667 368.667 167.473 368.667 166C368.667 164.527 367.473 163.333 366 163.333C364.527 163.333 363.333 164.527 363.333 166ZM366 218H365.5V218.5H366V218ZM407 218L402 215.113V220.887L407 218ZM365.5 166V218H366.5V166H365.5ZM366 218.5H402.5V217.5H366V218.5Z" fill="black"/>
<path d="M927.333 166C927.333 167.473 928.527 168.667 930 168.667C931.473 168.667 932.667 167.473 932.667 166C932.667 164.527 931.473 163.333 930 163.333C928.527 163.333 927.333 164.527 927.333 166ZM930 218H929.5V218.5H930V218ZM971 218L966 215.113V220.887L971 218ZM929.5 166V218H930.5V166H929.5ZM930 218.5H966.5V217.5H930V218.5Z" fill="black"/>
<path d="M842.667 495C842.667 496.473 841.473 497.667 840 497.667C838.527 497.667 837.333 496.473 837.333 495C837.333 493.527 838.527 492.333 840 492.333C841.473 492.333 842.667 493.527 842.667 495ZM840 547H840.5V547.5H840V547ZM799 547L804 544.113V549.887L799 547ZM840.5 495V547H839.5V495H840.5ZM840 547.5H803.5V546.5H840V547.5Z" fill="black"/>
<path d="M570 549.667C568.527 549.667 567.333 548.473 567.333 547C567.333 545.527 568.527 544.333 570 544.333C571.473 544.333 572.667 545.527 572.667 547C572.667 548.473 571.473 549.667 570 549.667ZM519 547L519 547.5L518.5 547.5L518.5 547L519 547ZM519 495L521.887 500L516.113 500L519 495ZM570 547.5L519 547.5L519 546.5L570 546.5L570 547.5ZM518.5 547L518.5 499.5L519.5 499.5L519.5 547L518.5 547Z" fill="black"/>
<path d="M615 220.667C616.473 220.667 617.667 219.473 617.667 218C617.667 216.527 616.473 215.333 615 215.333C613.527 215.333 612.333 216.527 612.333 218C612.333 219.473 613.527 220.667 615 220.667ZM658 218L658 218.5L658.5 218.5L658.5 218L658 218ZM658 166L655.113 171L660.887 171L658 166ZM615 218.5L658 218.5L658 217.5L615 217.5L615 218.5ZM658.5 218L658.5 170.5L657.5 170.5L657.5 218L658.5 218Z" fill="black"/>
<path d="M1179 220.667C1180.47 220.667 1181.67 219.473 1181.67 218C1181.67 216.527 1180.47 215.333 1179 215.333C1177.53 215.333 1176.33 216.527 1176.33 218C1176.33 219.473 1177.53 220.667 1179 220.667ZM1222 218L1222 218.5L1222.5 218.5L1222.5 218L1222 218ZM1222 166L1219.11 171L1224.89 171L1222 166ZM1179 218.5L1222 218.5L1222 217.5L1179 217.5L1179 218.5ZM1222.5 218L1222.5 170.5L1221.5 170.5L1221.5 218L1222.5 218Z" fill="black"/>
<path d="M1329.07 85C1329.07 86.4728 1330.27 87.6667 1331.74 87.6667C1333.21 87.6667 1334.41 86.4728 1334.41 85C1334.41 83.5272 1333.21 82.3333 1331.74 82.3333C1330.27 82.3333 1329.07 83.5272 1329.07 85ZM1357 85H1357.5V84.5H1357V85ZM1357 282V282.5H1357.5V282H1357ZM562 282V281.5H561.5V282H562ZM562 313L564.887 308H559.113L562 313ZM1331.74 85.5H1357V84.5H1331.74V85.5ZM1356.5 85V282H1357.5V85H1356.5ZM1357 281.5H562V282.5H1357V281.5ZM561.5 282V308.5H562.5V282H561.5Z" fill="black"/>
</svg>
