<svg width="185" height="154" viewBox="0 0 185 154" fill="none" xmlns="http://www.w3.org/2000/svg">
<rect y="20" width="185" height="134" fill="white"/>
<path d="M0 8.5C0 3.80558 3.80558 0 8.5 0H176.5C181.194 0 185 3.80558 185 8.5V20H0V8.5Z" fill="#EFBA93"/>
<circle cx="15" cy="10" r="3" fill="#ED5957"/>
<circle cx="23" cy="10" r="3" fill="#F4994B"/>
<circle cx="31" cy="10" r="3" fill="#26B065"/>
<path d="M19.356 91.02H28.046V93H17.2V77.6H27.826V79.58H19.356V84.244H27.364V86.202H19.356V91.02ZM41.3354 85.828V93H39.2674V86.334C39.2674 84.332 38.4974 83.452 36.8254 83.452C34.9114 83.452 33.5694 84.596 33.5694 86.422V93H31.5014V81.846H33.5694V83.672C34.2074 82.33 35.6154 81.538 37.3754 81.538C39.8614 81.538 41.3354 83.1 41.3354 85.828ZM53.5725 81.846H55.6405V91.724C55.6405 95.574 53.5065 97.708 49.7885 97.708C47.6765 97.708 45.8285 97.026 44.6845 95.882L45.8065 94.364C46.8405 95.266 48.2485 95.816 49.7445 95.816C52.2085 95.816 53.5725 94.43 53.5725 91.724V90.756C52.9345 92.142 51.3945 92.978 49.5465 92.978C46.5105 92.978 44.2665 90.624 44.2665 87.258C44.2665 83.914 46.5105 81.538 49.5465 81.538C51.3725 81.538 52.9345 82.418 53.5725 83.804V81.846ZM53.6605 87.258C53.6605 86.136 53.3305 85.234 52.6705 84.53C52.0105 83.804 51.1305 83.452 50.0525 83.452C48.9745 83.452 48.0945 83.804 47.4125 84.53C46.7525 85.234 46.4225 86.136 46.4225 87.258C46.4225 89.524 47.8745 91.086 50.0525 91.086C51.1305 91.086 52.0105 90.734 52.6705 90.008C53.3305 89.282 53.6605 88.38 53.6605 87.258ZM75.3704 77.6H77.5484V93H75.3704V86.114H66.9224V93H64.7664V77.6H66.9224V84.09H75.3704V77.6ZM90.1604 81.846H92.2284V93H90.1604V91.02C89.5224 92.428 87.9604 93.308 86.1344 93.308C83.0984 93.308 80.8544 90.866 80.8544 87.434C80.8544 83.98 83.0984 81.538 86.1344 81.538C87.9604 81.538 89.5224 82.418 90.1604 83.826V81.846ZM90.2484 87.434C90.2484 85.08 88.8184 83.452 86.6404 83.452C85.5624 83.452 84.6824 83.826 84.0004 84.574C83.3404 85.3 83.0104 86.268 83.0104 87.434C83.0104 88.6 83.3404 89.546 84.0004 90.294C84.6824 91.02 85.5624 91.394 86.6404 91.394C87.7184 91.394 88.5984 91.02 89.2584 90.294C89.9184 89.546 90.2484 88.6 90.2484 87.434ZM105.853 85.828V93H103.785V86.334C103.785 84.332 103.015 83.452 101.343 83.452C99.429 83.452 98.087 84.596 98.087 86.422V93H96.019V81.846H98.087V83.672C98.725 82.33 100.133 81.538 101.893 81.538C104.379 81.538 105.853 83.1 105.853 85.828ZM118.09 76.896H120.158V93H118.09V91.02C117.452 92.428 115.868 93.308 114.042 93.308C111.028 93.308 108.784 90.866 108.784 87.434C108.784 83.98 111.028 81.538 114.042 81.538C115.868 81.538 117.452 82.418 118.09 83.826V76.896ZM118.178 87.434C118.178 85.08 116.748 83.452 114.57 83.452C113.492 83.452 112.612 83.826 111.93 84.574C111.27 85.3 110.94 86.268 110.94 87.434C110.94 88.6 111.27 89.546 111.93 90.294C112.612 91.02 113.492 91.394 114.57 91.394C115.648 91.394 116.528 91.02 117.188 90.294C117.848 89.546 118.178 88.6 118.178 87.434ZM123.179 87.434C123.179 84.222 125.489 81.538 128.965 81.538C132.397 81.538 134.729 84.222 134.729 87.434C134.729 90.668 132.397 93.308 128.965 93.308C125.489 93.308 123.179 90.668 123.179 87.434ZM132.573 87.434C132.573 85.08 131.143 83.452 128.965 83.452C127.887 83.452 127.007 83.826 126.325 84.574C125.665 85.3 125.335 86.268 125.335 87.434C125.335 88.6 125.665 89.546 126.325 90.294C127.007 91.02 127.887 91.394 128.965 91.394C130.043 91.394 130.923 91.02 131.583 90.294C132.243 89.546 132.573 88.6 132.573 87.434ZM144.855 81.846H147.077L142.589 93H140.367L135.901 81.846H138.101L141.489 90.734L144.855 81.846ZM159.119 88.05H150.363C150.605 90.184 151.991 91.438 154.081 91.438C155.467 91.438 156.633 90.888 157.535 89.788L158.877 90.976C157.799 92.472 156.083 93.308 154.037 93.308C150.605 93.308 148.251 90.91 148.251 87.456C148.251 84.046 150.583 81.538 153.861 81.538C156.963 81.538 159.185 83.782 159.185 87.06C159.185 87.39 159.163 87.72 159.119 88.05ZM150.407 86.466H157.095C156.919 84.53 155.687 83.43 153.861 83.43C151.991 83.43 150.737 84.552 150.407 86.466ZM168.593 81.824V83.694C168.285 83.628 167.933 83.606 167.559 83.606C165.425 83.606 164.237 84.816 164.237 87.346V93H162.169V81.846H164.237V83.848C164.765 82.462 165.997 81.67 167.603 81.67C167.977 81.67 168.307 81.714 168.593 81.824Z" fill="#C46217"/>
</svg>
