<svg width="185" height="154" viewBox="0 0 185 154" fill="none" xmlns="http://www.w3.org/2000/svg">
<rect y="20" width="185" height="134" fill="white"/>
<path d="M0 8.5C0 3.80558 3.80558 0 8.5 0H176.5C181.194 0 185 3.80558 185 8.5V20H0V8.5Z" fill="#EFBA93"/>
<circle cx="15" cy="10" r="3" fill="#ED5957"/>
<circle cx="23" cy="10" r="3" fill="#F4994B"/>
<circle cx="31" cy="10" r="3" fill="#26B065"/>
<path d="M13.946 89.744L15.64 88.71C16.454 90.404 18.148 91.35 20.282 91.35C22.482 91.35 23.824 90.36 23.824 88.798C23.824 87.632 23.032 86.884 21.184 86.422L18.698 85.828C15.838 85.146 14.408 83.76 14.408 81.67C14.408 79.118 16.542 77.292 19.996 77.292C22.746 77.292 24.858 78.414 25.672 80.108L24.022 81.186C23.252 79.932 21.8 79.25 19.974 79.25C17.862 79.25 16.608 80.152 16.608 81.648C16.608 82.792 17.356 83.474 19.292 83.914L21.778 84.53C24.704 85.234 26.046 86.598 26.046 88.71C26.046 91.46 23.912 93.308 20.238 93.308C17.136 93.308 14.892 91.966 13.946 89.744ZM36.5553 93L32.6833 88.05H30.9893V93H28.9213V76.896H30.9893V86.224H32.7493L36.4673 81.846H38.8873L34.3773 87.148L38.9753 93H36.5553ZM50.8357 88.05H42.0797C42.3217 90.184 43.7077 91.438 45.7977 91.438C47.1837 91.438 48.3497 90.888 49.2517 89.788L50.5937 90.976C49.5157 92.472 47.7997 93.308 45.7537 93.308C42.3217 93.308 39.9677 90.91 39.9677 87.456C39.9677 84.046 42.2997 81.538 45.5777 81.538C48.6797 81.538 50.9017 83.782 50.9017 87.06C50.9017 87.39 50.8797 87.72 50.8357 88.05ZM42.1237 86.466H48.8117C48.6357 84.53 47.4037 83.43 45.5777 83.43C43.7077 83.43 42.4537 84.552 42.1237 86.466ZM54.5293 90.03V83.628H52.3293V81.846H54.5293V78.546H56.5973V81.846H60.0073V83.628H56.5973V89.832C56.5973 90.91 57.1033 91.35 58.3353 91.35C58.8413 91.35 59.4133 91.284 60.0513 91.152V92.89C59.4133 93.088 58.7313 93.176 58.0053 93.176C55.6953 93.176 54.5293 92.12 54.5293 90.03ZM61.7743 87.434C61.7743 84.024 64.1283 81.538 67.5383 81.538C69.5843 81.538 71.3003 82.44 72.2463 84.002L70.6403 85.102C69.9583 84.046 68.8803 83.452 67.5603 83.452C65.3823 83.452 63.9303 85.058 63.9303 87.434C63.9303 89.81 65.3823 91.394 67.5603 91.394C68.8803 91.394 69.9583 90.822 70.6403 89.744L72.2463 90.866C71.3003 92.428 69.5843 93.308 67.5383 93.308C64.1283 93.308 61.7743 90.822 61.7743 87.434ZM84.6889 85.828V93H82.6209V86.334C82.6209 84.332 81.8509 83.452 80.1789 83.452C78.2649 83.452 76.9229 84.596 76.9229 86.422V93H74.8549V76.896H76.9229V83.672C77.5609 82.33 78.9689 81.538 80.7289 81.538C83.2149 81.538 84.6889 83.1 84.6889 85.828ZM86.696 95.068L94.836 76.72H96.838L88.698 95.068H86.696ZM112.711 85.3C112.711 90.074 109.587 93 105.121 93H99.2254V77.6H105.121C109.587 77.6 112.711 80.526 112.711 85.3ZM110.445 85.3C110.445 81.67 108.465 79.602 105.121 79.602H101.381V90.998H105.121C108.465 90.998 110.445 88.93 110.445 85.3ZM126.053 88.05H117.296C117.539 90.184 118.925 91.438 121.015 91.438C122.401 91.438 123.567 90.888 124.469 89.788L125.811 90.976C124.733 92.472 123.017 93.308 120.971 93.308C117.539 93.308 115.185 90.91 115.185 87.456C115.185 84.046 117.517 81.538 120.795 81.538C123.897 81.538 126.119 83.782 126.119 87.06C126.119 87.39 126.097 87.72 126.053 88.05ZM117.341 86.466H124.029C123.853 84.53 122.621 83.43 120.795 83.43C118.925 83.43 117.671 84.552 117.341 86.466ZM128.091 90.954L129.455 89.788C130.269 90.91 131.567 91.482 133.085 91.482C134.581 91.482 135.483 90.866 135.483 89.92C135.483 89.194 134.955 88.71 133.635 88.424L131.853 88.028C129.565 87.478 128.487 86.488 128.487 84.904C128.487 82.902 130.181 81.538 132.909 81.538C134.867 81.538 136.429 82.242 137.375 83.408L136.055 84.662C135.241 83.804 134.163 83.386 132.821 83.386C131.325 83.386 130.555 83.936 130.555 84.838C130.555 85.52 131.017 85.916 132.425 86.246L134.383 86.686C136.605 87.192 137.551 88.182 137.551 89.766C137.551 91.944 135.901 93.308 133.085 93.308C130.819 93.308 128.971 92.384 128.091 90.954ZM140.074 78.26C140.074 77.468 140.646 76.874 141.46 76.874C142.274 76.874 142.846 77.468 142.846 78.26C142.846 79.052 142.274 79.646 141.46 79.646C140.646 79.646 140.074 79.052 140.074 78.26ZM140.426 93V81.846H142.494V93H140.426ZM154.826 81.846H156.894V91.724C156.894 95.574 154.76 97.708 151.042 97.708C148.93 97.708 147.082 97.026 145.938 95.882L147.06 94.364C148.094 95.266 149.502 95.816 150.998 95.816C153.462 95.816 154.826 94.43 154.826 91.724V90.756C154.188 92.142 152.648 92.978 150.8 92.978C147.764 92.978 145.52 90.624 145.52 87.258C145.52 83.914 147.764 81.538 150.8 81.538C152.626 81.538 154.188 82.418 154.826 83.804V81.846ZM154.914 87.258C154.914 86.136 154.584 85.234 153.924 84.53C153.264 83.804 152.384 83.452 151.306 83.452C150.228 83.452 149.348 83.804 148.666 84.53C148.006 85.234 147.676 86.136 147.676 87.258C147.676 89.524 149.128 91.086 151.306 91.086C152.384 91.086 153.264 90.734 153.924 90.008C154.584 89.282 154.914 88.38 154.914 87.258ZM170.519 85.828V93H168.451V86.334C168.451 84.332 167.681 83.452 166.009 83.452C164.095 83.452 162.753 84.596 162.753 86.422V93H160.685V81.846H162.753V83.672C163.391 82.33 164.799 81.538 166.559 81.538C169.045 81.538 170.519 83.1 170.519 85.828Z" fill="#C46217"/>
</svg>
