<svg width="73" height="72" viewBox="0 0 73 72" fill="none" xmlns="http://www.w3.org/2000/svg">
<path d="M7.99997 31.6802L35 47.2802C35.456 47.5435 35.9734 47.6821 36.5 47.6821C37.0266 47.6821 37.5439 47.5435 38 47.2802L65 31.6802C65.4546 31.4165 65.832 31.038 66.0943 30.5825C66.3566 30.1271 66.4947 29.6108 66.4947 29.0852C66.4947 28.5596 66.3566 28.0433 66.0943 27.5879C65.832 27.1324 65.4546 26.7539 65 26.4902L38 10.8902C37.5439 10.6269 37.0266 10.4883 36.5 10.4883C35.9734 10.4883 35.456 10.6269 35 10.8902L7.99997 26.4902C7.54535 26.7539 7.16799 27.1324 6.90568 27.5879C6.64336 28.0433 6.50529 28.5596 6.50529 29.0852C6.50529 29.6108 6.64336 30.1271 6.90568 30.5825C7.16799 31.038 7.54535 31.4165 7.99997 31.6802ZM36.5 16.9502L57.5 28.9502L36.5 41.1002L15.5 29.0702L36.5 16.9502ZM62 40.3202L36.5 55.0502L11 40.3202C10.6594 40.1206 10.2827 39.9902 9.89159 39.9365C9.50048 39.8827 9.1026 39.9067 8.72078 40.007C8.33896 40.1074 7.98069 40.2821 7.66652 40.5212C7.35235 40.7602 7.08846 41.0589 6.88997 41.4002C6.69161 41.7426 6.56296 42.1209 6.51141 42.5132C6.45986 42.9055 6.48643 43.3042 6.58961 43.6862C6.69278 44.0682 6.87051 44.4261 7.11256 44.7391C7.35462 45.0522 7.65621 45.3142 7.99997 45.5102L35 61.1102C35.456 61.3735 35.9734 61.5121 36.5 61.5121C37.0266 61.5121 37.5439 61.3735 38 61.1102L65 45.5102C65.3437 45.3142 65.6453 45.0522 65.8874 44.7391C66.1294 44.4261 66.3072 44.0682 66.4103 43.6862C66.5135 43.3042 66.5401 42.9055 66.4885 42.5132C66.437 42.1209 66.3083 41.7426 66.11 41.4002C65.9115 41.0589 65.6476 40.7602 65.3334 40.5212C65.0192 40.2821 64.661 40.1074 64.2792 40.007C63.8973 39.9067 63.4995 39.8827 63.1084 39.9365C62.7172 39.9902 62.3406 40.1206 62 40.3202Z" fill="#1E1F26"/>
</svg>
