<svg width="610" height="563" viewBox="0 0 610 563" fill="none" xmlns="http://www.w3.org/2000/svg">
<g clip-path="url(#clip0_77_13725)">
<g filter="url(#filter0_d_77_13725)">
<rect x="0.476562" width="859.582" height="644" rx="13.5323" fill="url(#paint0_linear_77_13725)"/>
</g>
<mask id="mask0_77_13725" style="mask-type:luminance" maskUnits="userSpaceOnUse" x="0" y="0" width="861" height="644">
<rect x="0.476562" width="859.582" height="644" rx="13.5323" fill="white"/>
</mask>
<g mask="url(#mask0_77_13725)">
<rect x="0.476562" width="177.289" height="644" fill="#6F8DE9"/>
<rect opacity="0.493164" x="0.476562" y="27.3701" width="177.289" height="32.2" fill="#E7ECFB"/>
<rect x="27.8757" y="72.9868" width="122.49" height="5.36667" rx="2.68333" fill="#9FB3F0"/>
<rect x="27.8757" y="40.7866" width="92.4051" height="5.36667" rx="2.68333" fill="white"/>
<rect x="27.8757" y="145.973" width="92.4051" height="9.66" rx="4.83" fill="#9FB3F0"/>
<rect x="231.489" y="54.2036" width="162.246" height="13.4167" rx="6.70833" fill="#9CA3AF"/>
<rect x="231.489" y="138.85" width="162.246" height="13.4167" rx="6.70833" fill="#9CA3AF"/>
<rect x="231.489" y="444" width="162.246" height="13.4167" rx="6.70833" fill="#9CA3AF"/>
<rect x="231.477" y="164" width="287" height="43" rx="10.1513" fill="#D1D5DB"/>
<rect x="231.477" y="469" width="573" height="87" rx="10.1513" fill="#D1D5DB"/>
<rect x="27.8757" y="169.05" width="133.235" height="5.36667" rx="2.68333" fill="#9FB3F0"/>
<rect x="27.8757" y="244.72" width="92.4051" height="9.66" rx="4.83" fill="#9FB3F0"/>
<rect x="231.489" y="94.4531" width="63.9314" height="5.36667" rx="2.68333" fill="#D1D5DB"/>
<rect x="319.596" y="94.4531" width="85.9582" height="5.36667" rx="2.68333" fill="#6B7280"/>
<rect x="429.73" y="94.4531" width="65.5431" height="5.36667" rx="2.68333" fill="#D1D5DB"/>
<rect x="49.9025" y="277.993" width="104.224" height="5.36667" rx="2.68333" fill="#9FB3F0"/>
<rect x="49.9025" y="309.12" width="68.7666" height="5.36667" rx="2.68333" fill="#9FB3F0"/>
<rect x="49.9025" y="340.783" width="56.4101" height="5.36667" rx="2.68333" fill="#9FB3F0"/>
<rect x="49.9025" y="373.52" width="84.3465" height="5.36667" rx="2.68333" fill="#9FB3F0"/>
<path fill-rule="evenodd" clip-rule="evenodd" d="M31.2098 313.967H36.0995C36.5255 313.967 36.8913 313.817 37.197 313.516C37.5025 313.215 37.6554 312.854 37.6554 312.434V312.215H38.0998C38.8361 312.215 39.4648 311.959 39.9857 311.446C40.5065 310.932 40.7671 310.313 40.7671 309.588C40.7671 308.862 40.5065 308.243 39.9857 307.729C39.4648 307.216 38.8361 306.959 38.0998 306.959H30.0984C29.978 306.959 29.8739 307.003 29.7859 307.089C29.6979 307.176 29.6539 307.279 29.6539 307.398V312.434C29.6539 312.854 29.8067 313.215 30.1123 313.516C30.4179 313.817 30.7838 313.967 31.2098 313.967ZM37.6554 308.274H38.0999C38.4704 308.274 38.7853 308.401 39.0445 308.657C39.3038 308.912 39.4335 309.223 39.4335 309.588C39.4335 309.952 39.3038 310.263 39.0445 310.518C38.7853 310.774 38.4704 310.902 38.0999 310.902H37.6554V308.274ZM29.6539 316.595C29.1631 316.595 28.744 316.424 28.3967 316.082C28.0495 315.74 27.8758 315.327 27.8757 314.843H40.3225C40.3225 315.327 40.1489 315.74 39.8017 316.082C39.4545 316.424 39.0354 316.595 38.5445 316.595H29.6539Z" fill="#9FB3F0"/>
<path fill-rule="evenodd" clip-rule="evenodd" d="M41.5824 276.616C41.426 276.459 41.2362 276.381 41.0128 276.381H38.5998V275.577C38.5998 275.208 38.4687 274.893 38.2061 274.63C37.9436 274.368 37.6279 274.237 37.2593 274.237H32.4335C32.0649 274.237 31.7493 274.368 31.4868 274.63C31.2242 274.893 31.093 275.208 31.093 275.577V276.381H28.68C28.4566 276.381 28.2668 276.459 28.1103 276.616C27.9539 276.772 27.8757 276.962 27.8757 277.185V278.257C27.8757 278.654 27.9916 279.053 28.2234 279.455C28.4552 279.857 28.7679 280.22 29.1618 280.544C29.5555 280.868 30.0387 281.14 30.6112 281.361C31.1838 281.582 31.7856 281.706 32.4168 281.734C32.6514 282.035 32.9166 282.301 33.2127 282.529C33.425 282.719 33.5715 282.922 33.6525 283.137C33.7335 283.352 33.774 283.602 33.774 283.886C33.774 284.188 33.6889 284.442 33.5184 284.649C33.3482 284.855 33.0758 284.959 32.7016 284.959C32.2827 284.959 31.9099 285.086 31.5831 285.34C31.2564 285.594 31.093 285.914 31.093 286.299V286.835C31.093 286.913 31.1181 286.978 31.1684 287.028C31.2187 287.078 31.2828 287.103 31.3611 287.103H38.3318C38.4101 287.103 38.4742 287.078 38.5246 287.028C38.5746 286.978 38.5997 286.913 38.5997 286.835V286.299C38.5997 285.914 38.4365 285.594 38.1095 285.34C37.7827 285.086 37.4099 284.959 36.991 284.959C36.6169 284.959 36.3444 284.855 36.1743 284.649C36.004 284.442 35.919 284.188 35.919 283.886C35.919 283.602 35.9594 283.352 36.0404 283.137C36.1215 282.922 36.2681 282.719 36.4802 282.529C36.7763 282.3 37.0416 282.035 37.276 281.734C37.9074 281.706 38.5091 281.582 39.0818 281.361C39.6541 281.14 40.1374 280.868 40.5311 280.544C40.9249 280.22 41.2377 279.857 41.4694 279.455C41.7012 279.053 41.8171 278.654 41.8171 278.257V277.185C41.817 276.962 41.7388 276.772 41.5824 276.616ZM29.7399 279.614C29.212 279.145 28.9482 278.693 28.9482 278.257V277.453H31.093C31.093 278.62 31.2996 279.656 31.7129 280.561C30.9255 280.399 30.2678 280.083 29.7399 279.614ZM39.953 279.615C40.4809 279.146 40.7446 278.693 40.7446 278.257V277.453H38.5998C38.5998 278.621 38.3933 279.656 37.9799 280.561C38.7673 280.399 39.425 280.084 39.953 279.615Z" fill="#9FB3F0"/>
<path fill-rule="evenodd" clip-rule="evenodd" d="M34.2737 339.154C34.2619 339.304 34.1319 339.437 33.9847 339.449C33.9847 339.449 32.8382 339.547 32.0391 338.733C31.2394 337.918 31.3356 336.751 31.3356 336.751C31.3476 336.601 31.4777 336.468 31.6249 336.456C31.6249 336.456 32.7686 336.359 33.5697 337.173C34.3683 337.987 34.2737 339.154 34.2737 339.154ZM35.6367 338.888C35.1647 339.44 34.7911 340.014 34.555 340.416C37.3827 339.146 39.5585 340.836 39.5585 343.718C39.5585 346.703 37.4646 351.283 34.2536 349.868C31.2047 351.236 28.9502 346.702 28.9502 343.718C28.9502 340.86 31.3707 339.217 33.9173 340.39C34.7408 338.214 35.4406 337.191 35.4406 337.191C35.5292 337.071 35.7111 337.025 35.8449 337.089L36.7909 337.539C36.9247 337.602 36.9373 337.729 36.8197 337.819C36.8197 337.819 36.0369 338.42 35.6372 338.888H35.6367Z" fill="#9FB3F0"/>
<path fill-rule="evenodd" clip-rule="evenodd" d="M40.7197 375.807C40.9889 375.55 41.084 375.173 40.9679 374.822C40.8514 374.471 40.5483 374.221 40.1758 374.168L36.8639 373.696C36.7229 373.676 36.601 373.59 36.538 373.464L35.0574 370.524C34.8911 370.194 34.5537 369.989 34.1777 369.989C33.8019 369.989 33.4645 370.194 33.2982 370.524L31.8173 373.464C31.7543 373.59 31.6322 373.676 31.4911 373.697L28.1793 374.168C27.8071 374.221 27.5036 374.472 27.3872 374.822C27.2711 375.173 27.3661 375.55 27.6353 375.807L30.0316 378.096C30.1337 378.193 30.1806 378.334 30.1565 378.471L29.5912 381.703C29.541 381.987 29.6172 382.264 29.8051 382.482C30.097 382.822 30.6067 382.925 31.0143 382.716L33.9761 381.19C34.0999 381.126 34.2557 381.127 34.3792 381.19L37.3413 382.716C37.4854 382.79 37.639 382.827 37.7976 382.827C38.0871 382.827 38.3615 382.701 38.5503 382.482C38.7384 382.264 38.8143 381.986 38.7642 381.703L38.1986 378.471C38.1745 378.334 38.2213 378.193 38.3235 378.096L40.7197 375.807Z" fill="#9FB3F0"/>
<rect x="27.8757" y="182.467" width="66.6176" height="5.36667" rx="2.68333" fill="#9FB3F0"/>
<g filter="url(#filter1_d_77_13725)">
<rect x="231.489" y="231.417" width="278.29" height="188.907" rx="4.06052" fill="white"/>
</g>
<path d="M231.489 337.408H510.047" stroke="#CBD0E1" stroke-width="0.812105"/>
<ellipse cx="274.468" cy="377.391" rx="16.1172" ry="16.1" fill="#D1D5DB"/>
<ellipse cx="312.075" cy="377.391" rx="16.1172" ry="16.1" fill="#D1D5DB"/>
<ellipse cx="349.682" cy="377.391" rx="16.1172" ry="16.1" fill="#D1D5DB"/>
<rect x="258.351" y="258.25" width="77.8996" height="9.66" rx="4.83" fill="#6B7280"/>
<rect x="258.351" y="300.11" width="156.874" height="5.36667" rx="2.68333" fill="#D1D5DB"/>
<rect x="258.351" y="275.959" width="177.289" height="5.36667" rx="2.68333" fill="#D1D5DB"/>
<rect x="258.351" y="313.527" width="125.177" height="5.36667" rx="2.68333" fill="#D1D5DB"/>
<g filter="url(#filter2_d_77_13725)">
<rect x="528.045" y="227.45" width="278.29" height="188.907" rx="4.06052" fill="#37A477"/>
</g>
</g>
<rect x="554.907" y="269.846" width="92.4051" height="9.66" rx="4.83" fill="#F9FAFB"/>
<rect x="554.907" y="292.923" width="133.235" height="5.36667" rx="2.68333" fill="#F9FAFB"/>
<rect x="554.907" y="306.339" width="66.6176" height="5.36667" rx="2.68333" fill="#F9FAFB"/>
</g>
<defs>
<filter id="filter0_d_77_13725" x="-43.5234" y="-21" width="947.582" height="732" filterUnits="userSpaceOnUse" color-interpolation-filters="sRGB">
<feFlood flood-opacity="0" result="BackgroundImageFix"/>
<feColorMatrix in="SourceAlpha" type="matrix" values="0 0 0 0 0 0 0 0 0 0 0 0 0 0 0 0 0 0 127 0" result="hardAlpha"/>
<feMorphology radius="14" operator="erode" in="SourceAlpha" result="effect1_dropShadow_77_13725"/>
<feOffset dy="23"/>
<feGaussianBlur stdDeviation="29"/>
<feColorMatrix type="matrix" values="0 0 0 0 0.207014 0 0 0 0 0.311066 0 0 0 0 0.62322 0 0 0 0.384709 0"/>
<feBlend mode="normal" in2="BackgroundImageFix" result="effect1_dropShadow_77_13725"/>
<feBlend mode="normal" in="SourceGraphic" in2="effect1_dropShadow_77_13725" result="shape"/>
</filter>
<filter id="filter1_d_77_13725" x="225.489" y="230.417" width="290.29" height="200.907" filterUnits="userSpaceOnUse" color-interpolation-filters="sRGB">
<feFlood flood-opacity="0" result="BackgroundImageFix"/>
<feColorMatrix in="SourceAlpha" type="matrix" values="0 0 0 0 0 0 0 0 0 0 0 0 0 0 0 0 0 0 127 0" result="hardAlpha"/>
<feMorphology radius="8" operator="erode" in="SourceAlpha" result="effect1_dropShadow_77_13725"/>
<feOffset dy="5"/>
<feGaussianBlur stdDeviation="7"/>
<feColorMatrix type="matrix" values="0 0 0 0 0.8059 0 0 0 0 0.854213 0 0 0 0 0.966943 0 0 0 1 0"/>
<feBlend mode="normal" in2="BackgroundImageFix" result="effect1_dropShadow_77_13725"/>
<feBlend mode="normal" in="SourceGraphic" in2="effect1_dropShadow_77_13725" result="shape"/>
</filter>
<filter id="filter2_d_77_13725" x="522.045" y="226.45" width="290.29" height="200.907" filterUnits="userSpaceOnUse" color-interpolation-filters="sRGB">
<feFlood flood-opacity="0" result="BackgroundImageFix"/>
<feColorMatrix in="SourceAlpha" type="matrix" values="0 0 0 0 0 0 0 0 0 0 0 0 0 0 0 0 0 0 127 0" result="hardAlpha"/>
<feMorphology radius="8" operator="erode" in="SourceAlpha" result="effect1_dropShadow_77_13725"/>
<feOffset dy="5"/>
<feGaussianBlur stdDeviation="7"/>
<feColorMatrix type="matrix" values="0 0 0 0 0.8059 0 0 0 0 0.854213 0 0 0 0 0.966943 0 0 0 1 0"/>
<feBlend mode="normal" in2="BackgroundImageFix" result="effect1_dropShadow_77_13725"/>
<feBlend mode="normal" in="SourceGraphic" in2="effect1_dropShadow_77_13725" result="shape"/>
</filter>
<linearGradient id="paint0_linear_77_13725" x1="434.07" y1="966" x2="1050.6" y2="135.804" gradientUnits="userSpaceOnUse">
<stop stop-color="#EBF2FF"/>
<stop offset="1" stop-color="#FCFDFF"/>
</linearGradient>
<clipPath id="clip0_77_13725">
<rect width="860" height="644" fill="white" transform="translate(0.476562)"/>
</clipPath>
</defs>
</svg>
