<svg width="180" height="65" viewBox="0 0 180 65" fill="none" xmlns="http://www.w3.org/2000/svg">
<g clip-path="url(#clip0_108_15846)">
<path d="M21.5748 17.7267C20.6583 18.8712 19.6082 19.755 18.4245 20.3781C17.2407 21.0012 15.8852 21.3127 14.3577 21.3127C13.0849 21.3127 11.8884 21.0902 10.7683 20.6451C9.6482 20.2 8.67447 19.5706 7.84712 18.7567C7.01976 17.9429 6.36425 16.9573 5.88056 15.8002C5.39688 14.643 5.15504 13.3522 5.15504 11.928C5.15504 10.5038 5.39688 9.21305 5.88056 8.05585C6.36425 6.89866 7.01976 5.91314 7.84712 5.09929C8.67447 4.28543 9.6482 3.65597 10.7683 3.2109C11.8884 2.76582 13.0849 2.54328 14.3577 2.54328C15.8088 2.54328 17.0625 2.82305 18.119 3.38257C19.1755 3.94209 20.111 4.69236 20.9256 5.63338L24.5469 2.13L19.5764 1.54505L6.33243 0C5.53053 0.515015 4.79228 1.11269 4.12403 1.7803C2.85118 3.05194 1.84563 4.55884 1.10738 6.30099C0.369126 8.04314 0 9.91881 0 11.928C0 13.9372 0.369126 15.8129 1.10738 17.555C1.84563 19.2972 2.85118 20.8041 4.12403 22.0757C5.39688 23.3474 6.90521 24.3519 8.64901 25.0895C10.3928 25.8271 12.283 26.1958 14.3196 26.1958C16.5852 26.1958 18.6345 25.7698 20.4674 24.9178C22.3003 24.0658 23.8914 22.826 25.2406 21.1983L21.5748 17.7267Z" fill="white"/>
<path d="M44.4288 8.41839C43.2705 6.99415 41.4822 6.28203 39.0638 6.28203C37.8164 6.28203 36.6899 6.56815 35.6843 7.14039C34.6788 7.71263 33.9087 8.44382 33.3741 9.33397H33.0686L33.3741 5.93869V3.16015L28.3718 2.5752V25.5856H33.3741V16.4679C33.3741 15.7049 33.4696 14.9864 33.6605 14.3125C33.8514 13.6385 34.1315 13.0472 34.5006 12.5385C34.8697 12.0299 35.3216 11.6293 35.8562 11.3368C36.3908 11.0443 37.0017 10.8981 37.6891 10.8981C38.7837 10.8981 39.6365 11.2351 40.2475 11.909C40.8585 12.583 41.164 13.5685 41.164 14.8656V25.5856H46.1663V14.2552C46.1663 11.7882 45.5871 9.84263 44.4288 8.41839Z" fill="white"/>
<path d="M50.5958 6.89258V25.5857H55.5981V6.89258H50.5958Z" fill="white"/>
<path d="M77.5356 10.9936C77.2429 10.0145 76.8101 9.17518 76.2373 8.47577C76.1355 8.34861 76.0273 8.23416 75.9191 8.11971L74.7099 7.97983L69.6949 7.39488L67.4928 7.13419C66.5255 7.681 65.7554 8.41219 65.1826 9.33413H64.8771V6.89258H60.1803V25.5857H65.1826V16.4299C65.1826 15.6669 65.2781 14.9484 65.469 14.2745C65.6599 13.6005 65.94 13.0155 66.3091 12.5196C66.6782 12.0237 67.1237 11.6294 67.6456 11.337C68.1675 11.0445 68.7721 10.8983 69.4594 10.8983C70.605 10.8983 71.4769 11.2225 72.0751 11.8711C72.6733 12.5196 72.9725 13.5178 72.9725 14.8658V25.5857H77.9748V14.2554C77.9748 13.06 77.8284 11.9728 77.5356 10.9936Z" fill="white"/>
<path d="M99.5114 12.1951C99.3459 11.7056 99.1486 11.2414 98.9131 10.8091L96.7684 10.5547L91.7661 9.96977L87.4893 9.47383L83.9571 9.06055C83.8935 9.11777 83.8362 9.17499 83.7789 9.23858C82.9134 10.1414 82.2388 11.1969 81.7551 12.405C81.2714 13.613 81.0296 14.891 81.0296 16.239C81.0296 17.6886 81.2778 19.0175 81.7742 20.2256C82.2706 21.4336 82.9643 22.4827 83.8553 23.3729C84.7463 24.263 85.7964 24.9561 87.0056 25.452C88.2148 25.948 89.5322 26.1959 90.9578 26.1959C93.0707 26.1959 94.8591 25.7254 96.3229 24.7844C97.7867 23.8434 98.9513 22.6099 99.8169 21.0839L95.6546 19.0239C95.2219 19.8123 94.63 20.4672 93.879 20.9886C93.128 21.5099 92.1798 21.7706 91.0342 21.7706C90.4487 21.7706 89.8759 21.688 89.3158 21.5226C88.7558 21.3573 88.2403 21.0903 87.7693 20.7215C87.2984 20.3527 86.9038 19.8949 86.5856 19.3481C86.2674 18.8013 86.0573 18.1464 85.9555 17.3834H100.046C100.046 17.2308 100.059 17.091 100.084 16.9638C100.084 16.8366 100.097 16.6968 100.122 16.5442V16.0864C100.122 14.6876 99.9187 13.3905 99.5114 12.1951ZM86.2228 13.8356C86.5538 12.742 87.1265 11.89 87.9412 11.2796C88.7558 10.6692 89.6977 10.364 90.7669 10.364C91.5306 10.364 92.1861 10.4784 92.7334 10.7073C93.2808 10.9362 93.739 11.2287 94.1081 11.5848C94.4772 11.9408 94.7573 12.3223 94.9482 12.7292C95.1391 13.1362 95.2473 13.5049 95.2728 13.8356H86.2228Z" fill="white"/>
<path d="M116.383 12.8496C116.644 13.1866 116.854 13.5681 117.039 13.9878C117.319 14.649 117.459 15.3993 117.459 16.2386C117.459 17.0779 117.319 17.8281 117.039 18.4894C116.752 19.1506 116.389 19.7102 115.931 20.1679C115.473 20.6257 114.945 20.9754 114.346 21.2171C113.748 21.4587 113.118 21.5795 112.456 21.5795C111.794 21.5795 111.158 21.4523 110.566 21.198C109.961 20.9437 109.44 20.5876 108.981 20.1298C108.523 19.672 108.154 19.1125 107.874 18.4512C107.594 17.79 107.454 17.0524 107.454 16.2386C107.454 15.4247 107.594 14.6872 107.874 14.0259C108.154 13.3647 108.523 12.8051 108.981 12.3473C109.096 12.2329 109.217 12.1248 109.338 12.0231L107.575 11.8196L103.572 11.3555C103.425 11.6352 103.298 11.9277 103.177 12.2329C102.693 13.4537 102.452 14.7889 102.452 16.2386C102.452 17.6882 102.693 19.0235 103.177 20.2442C103.654 21.465 104.316 22.5141 105.144 23.3916C105.965 24.269 106.919 24.9557 108.008 25.4516C109.09 25.9476 110.229 26.1955 111.425 26.1955C112.851 26.1955 114.047 25.9158 115.015 25.3563C115.982 24.7967 116.695 24.1228 117.153 23.3343H117.459V25.5851H122.155V13.5173L116.383 12.8496Z" fill="white"/>
<path d="M139.065 15.4952V16.0483C139.065 16.8113 138.976 17.5298 138.779 18.2038C138.588 18.8777 138.308 19.4627 137.939 19.9586C137.57 20.4546 137.124 20.8488 136.602 21.1412C136.08 21.4337 135.476 21.58 134.788 21.58C133.643 21.58 132.771 21.2557 132.173 20.6072C131.574 19.9586 131.282 18.9604 131.282 17.6124V14.5859L126.273 14.001V18.2228C126.273 20.6389 126.852 22.5718 128.01 24.0215C129.169 25.4712 130.938 26.196 133.299 26.196C134.572 26.196 135.711 25.9226 136.698 25.3758C137.69 24.829 138.48 24.0851 139.065 23.1441H139.371V25.5856H144.067V16.0801L139.065 15.4952Z" fill="white"/>
<path d="M92.6571 40.1142C90.9896 39.3512 89.0613 38.9697 86.872 38.9697C84.8354 38.9697 82.9452 39.3385 81.2014 40.0761C79.4576 40.8136 77.9429 41.8182 76.6765 43.0898C75.3972 44.3615 74.3981 45.8684 73.6598 47.6105C72.9979 49.1747 72.6288 50.8532 72.5651 52.6335L77.7075 53.2376C77.7075 51.8133 77.9429 50.5226 78.433 49.3654C78.9167 48.2082 79.5722 47.2227 80.3995 46.4088C81.2269 45.595 82.1943 44.9655 83.3207 44.5204C84.4408 44.0754 85.6373 43.8528 86.9102 43.8528C88.3612 43.8528 89.615 44.1326 90.6714 44.6921C91.7279 45.2516 92.6634 46.0019 93.4781 46.9429L97.1057 43.4332C95.8074 41.9835 94.3245 40.8772 92.6571 40.1142Z" fill="white"/>
<path d="M116.981 49.7278C115.817 48.3035 114.035 47.5914 111.616 47.5914C110.362 47.5914 109.236 47.8775 108.23 48.4498C107.225 49.022 106.455 49.7532 105.92 50.6434H105.621L105.92 47.2481V39.5801H100.924V55.9461L106.016 56.5374C106.06 56.2259 106.13 55.9207 106.213 55.6218C106.397 54.9479 106.684 54.3566 107.053 53.8479C107.416 53.3392 107.874 52.9387 108.409 52.6462C108.943 52.3537 109.554 52.2075 110.241 52.2075C111.33 52.2075 112.183 52.5445 112.794 53.2184C113.411 53.8924 113.716 54.8779 113.716 56.175V57.4403L118.719 58.0189V55.5646C118.719 53.0976 118.14 51.152 116.981 49.7278Z" fill="white"/>
<path d="M127.692 58.9211V48.2012H122.684V58.4824L127.699 59.0674C127.692 59.0165 127.692 58.972 127.692 58.9211ZM135.476 48.2012V57.357C135.476 58.12 135.38 58.8385 135.189 59.5124C135.151 59.6523 135.107 59.7922 135.056 59.9257L140.478 60.5615V48.2012H135.476Z" fill="white"/>
<path d="M162.435 48.2018H156.249L149.986 54.4583H149.757V39.5801H144.755V61.0581L149.757 61.6431V60.8674L151.972 58.6929L154.129 62.1581L160.564 62.9084L155.485 55.2594L162.435 48.507V48.2018Z" fill="white"/>
<path d="M178.606 57.7958C177.677 56.7912 176.258 56.06 174.349 55.6022L171.485 54.9155C170.721 54.712 170.116 54.4831 169.671 54.2288C169.225 53.9745 169.003 53.6311 169.003 53.1988C169.003 52.741 169.27 52.3658 169.804 52.0734C170.339 51.7809 170.963 51.6346 171.676 51.6346C172.388 51.6346 173.05 51.8 173.738 52.1306C174.425 52.4612 174.947 52.9953 175.303 53.7329L179.618 51.978C178.956 50.452 177.925 49.3393 176.525 48.6399C175.125 47.9405 173.534 47.5908 171.752 47.5908C170.683 47.5908 169.684 47.7243 168.754 47.9914C167.825 48.2584 167.017 48.6399 166.33 49.1359C165.642 49.6318 165.101 50.2358 164.707 50.948C164.312 51.6601 164.115 52.4739 164.115 53.3895C164.115 54.2034 164.28 54.9155 164.611 55.5259C164.942 56.1363 165.362 56.6576 165.871 57.09C166.381 57.5223 166.947 57.8784 167.571 58.1582C168.194 58.4379 168.799 58.6414 169.384 58.7686L172.019 59.3408C173.114 59.5951 173.884 59.8812 174.329 60.1992C174.775 60.5171 174.998 60.9303 174.998 61.439C174.998 61.8968 174.73 62.291 174.196 62.6216C173.661 62.9523 172.936 63.1176 172.019 63.1176C171.103 63.1176 170.32 62.8823 169.594 62.4118C168.869 61.9413 168.29 61.2228 167.857 60.2564L163.389 62.1638C163.536 62.5453 163.72 62.9268 163.943 63.302L178.498 64.9996C178.874 64.599 179.185 64.1603 179.427 63.6898C179.809 62.9523 180 62.1766 180 61.3627C180 59.9893 179.535 58.8003 178.606 57.7958Z" fill="white"/>
</g>
<defs>
<clipPath id="clip0_108_15846">
<rect width="180" height="65" fill="white"/>
</clipPath>
</defs>
</svg>
