<svg width="166" height="70" viewBox="0 0 166 70" fill="none" xmlns="http://www.w3.org/2000/svg">
<g clip-path="url(#clip0_661_368)">
<path d="M32.0512 14.7353C31.9928 14.2363 31.9197 13.8107 31.832 13.4584H16.4422V18.5219H26.3074C26.0736 19.5199 25.7448 20.4225 25.3209 21.2297C24.8971 22.0369 24.3929 22.7047 23.8082 23.233C22.9898 23.9962 22.0033 24.62 20.8487 25.1043C19.694 25.5886 18.2837 25.8308 16.6175 25.8308C15.156 25.8308 13.7822 25.574 12.496 25.0603C11.2099 24.5466 10.0772 23.8201 9.09799 22.8808C8.11877 21.9415 7.34416 20.8041 6.77417 19.4685C6.20417 18.1329 5.91918 16.6433 5.91918 14.9995C5.91918 13.3557 6.20417 11.866 6.77417 10.5305C7.34416 9.19488 8.11146 8.05745 9.07607 7.11815C10.0407 6.17884 11.1661 5.45235 12.4522 4.93867C13.7383 4.42499 15.0976 4.16815 16.5298 4.16815C18.2837 4.16815 19.789 4.45435 21.046 5.02673C22.3029 5.59912 23.4429 6.42835 24.4659 7.51441L28.5436 3.50771C27.937 2.84726 27.2794 2.25286 26.5705 1.71716L9.59491 0C7.79724 0.792536 6.2261 1.86393 4.86688 3.1995C3.37612 4.66716 2.19229 6.40633 1.31537 8.41702C0.438457 10.4277 0 12.6219 0 14.9995C0 17.3771 0.438457 19.5712 1.31537 21.5819C2.19229 23.5926 3.37612 25.3318 4.86688 26.7995C6.35763 28.2671 8.11146 29.4119 10.1284 30.2338C12.1453 31.0557 14.2937 31.4666 16.5737 31.4666C19.0875 31.4666 21.3236 31.0557 23.2821 30.2338C25.2405 29.4119 26.9213 28.2524 28.3244 26.7554C29.6397 25.3465 30.6043 23.7467 31.2182 21.9562C31.832 20.1656 32.1389 18.2577 32.1389 16.2323C32.1389 15.7333 32.1097 15.2343 32.0512 14.7353Z" fill="#1064FF"/>
<path d="M35.8658 2.66379C35.8732 3.16279 35.9682 3.61777 36.1508 4.03605C36.3408 4.47635 36.6039 4.86528 36.9401 5.20284C37.2762 5.5404 37.6708 5.80458 38.1239 5.99537C38.577 6.18617 39.052 6.28157 39.5489 6.28157C40.572 6.28157 41.4489 5.92199 42.1796 5.20284C42.7058 4.68182 43.0419 4.08742 43.1881 3.40496L35.8658 2.66379ZM36.6989 9.18753V30.7621H42.4427V9.18753H36.6989Z" fill="#1064FF"/>
<path d="M74.2747 25.0823C74.0116 25.2584 73.7339 25.3978 73.4416 25.5006C73.1493 25.6033 72.7547 25.6547 72.2578 25.6547C71.4978 25.6547 70.9132 25.4199 70.5039 24.9502C70.2116 24.6567 70.0143 24.2971 69.912 23.8715C69.8097 23.4459 69.7586 22.9835 69.7586 22.4845V14.1189H75.0201V9.18754H69.7586V6.09812L64.0148 5.5184V9.18754H55.9033V7.47038C55.9033 6.50173 56.1518 5.73854 56.6487 5.18083C56.7729 5.04141 56.9044 4.91666 57.0506 4.81392L50.5541 4.15347C50.291 5.02673 50.1595 5.99539 50.1595 7.07411V9.18754H46.3011V14.1189H50.1595V30.7621H55.9033V14.1189H64.0148V23.5853C64.0148 26.0216 64.7017 27.9002 66.0755 29.2211C66.6601 29.8082 67.3836 30.2705 68.2459 30.608C69.1082 30.9456 70.0801 31.1144 71.1616 31.1144C72.097 31.1144 72.952 31.0336 73.7266 30.8722C74.5012 30.7108 75.2247 30.4686 75.897 30.1457L74.2747 25.0823Z" fill="#1064FF"/>
<path d="M65.7028 41.1972C63.7882 40.3166 61.574 39.8763 59.0602 39.8763C56.7218 39.8763 54.5514 40.3019 52.5491 41.1531C50.5468 42.0044 48.8149 43.1638 47.3534 44.6315C45.8919 46.0992 44.7373 47.8383 43.8896 49.849C43.0419 51.8597 42.618 54.0245 42.618 56.3434C42.618 56.8277 42.64 57.3047 42.6765 57.7744L48.698 58.3835C48.5884 57.7377 48.5372 57.0552 48.5372 56.3434C48.5372 54.6996 48.8149 53.21 49.3703 51.8744C49.9257 50.5388 50.6784 49.4014 51.6283 48.4621C52.5783 47.5228 53.6964 46.7963 54.9825 46.2826C56.2687 45.7689 57.6425 45.5121 59.104 45.5121C60.7702 45.5121 62.2098 45.835 63.4229 46.4807C64.6359 47.1265 65.7101 47.9924 66.6455 49.0785L70.8109 45.0278C69.3201 43.3546 67.6174 42.0778 65.7028 41.1972Z" fill="#1064FF"/>
<path d="M93.6326 52.2927C92.3026 50.6489 90.2491 49.827 87.4722 49.827C86.0399 49.827 84.7465 50.1573 83.5919 50.8177C82.4373 51.4781 81.5531 52.3221 80.9392 53.3494H80.5885L80.9392 49.4308V40.5808H75.1954V61.0473L80.9392 61.627V61.583C80.9392 60.7024 81.0488 59.8732 81.2681 59.0953C81.4873 58.3174 81.8088 57.635 82.2327 57.0479C82.6565 56.4609 83.1754 55.9985 83.7892 55.661C84.403 55.3234 85.1046 55.1546 85.8938 55.1546C87.1507 55.1546 88.1299 55.5436 88.8315 56.3214C89.533 57.0993 89.8838 58.2367 89.8838 59.7337V62.5223L95.6276 63.102V59.0293C95.6276 56.182 94.9626 53.9365 93.6326 52.2927Z" fill="#1064FF"/>
<path d="M114.876 50.5315V61.0986C114.876 61.9792 114.766 62.8085 114.547 63.5863C114.408 64.0853 114.225 64.5403 113.992 64.9512L120.62 65.619V50.5315H114.876ZM105.931 62.9039V50.5315H100.188V63.5643L106.019 64.1514C105.961 63.7698 105.931 63.3515 105.931 62.9039Z" fill="#1064FF"/>
<path d="M145.831 50.5315H138.728L131.537 57.7524H131.274V40.5808H125.53V66.1107L131.274 66.6904V65.1494L133.817 62.6397L136.667 67.2335L143.989 67.9673L137.851 58.677L145.831 50.8837V50.5315Z" fill="#1064FF"/>
<path d="M164.4 61.605C163.333 60.4455 161.703 59.6016 159.511 59.0733L156.222 58.2807C155.346 58.0459 154.651 57.7817 154.14 57.4882C153.628 57.1947 153.372 56.7984 153.372 56.2994C153.372 55.771 153.679 55.3381 154.293 55.0005C154.907 54.663 155.623 54.4942 156.442 54.4942C157.26 54.4942 158.02 54.685 158.809 55.0666C159.599 55.4482 160.198 56.0646 160.607 56.9158L165.562 54.8905C164.802 53.1293 163.618 51.8451 162.01 51.0378C160.402 50.2306 158.575 49.827 156.529 49.827C155.302 49.827 154.154 49.9811 153.087 50.2893C152.021 50.5975 151.092 51.0378 150.303 51.6102C149.514 52.1826 148.893 52.8798 148.44 53.7016C147.987 54.5235 147.76 55.4628 147.76 56.5195C147.76 57.4588 147.95 58.2807 148.33 58.9852C148.71 59.6897 149.192 60.2914 149.777 60.7904C150.362 61.2894 151.012 61.7004 151.728 62.0233C152.444 62.3462 153.139 62.581 153.811 62.7277L156.836 63.3882C158.093 63.6817 158.977 64.012 159.489 64.3789C160 64.7458 160.256 65.2228 160.256 65.8098C160.256 66.3382 159.949 66.7932 159.335 67.1748C158.722 67.5563 157.889 67.7471 156.836 67.7471C155.784 67.7471 154.885 67.4756 154.052 66.9326C153.219 66.3896 152.554 65.5603 152.057 64.4449L146.927 66.6464C147.146 67.2188 147.439 67.7838 147.804 68.3489L164.202 70C164.67 69.5157 165.043 68.98 165.342 68.4076C165.781 67.5563 166 66.6611 166 65.7218C166 64.1367 165.467 62.7644 164.4 61.605Z" fill="#1064FF"/>
</g>
<defs>
<clipPath id="clip0_661_368">
<rect width="166" height="70" fill="white"/>
</clipPath>
</defs>
</svg>
