<svg width="107" height="54" viewBox="0 0 107 54" fill="none" xmlns="http://www.w3.org/2000/svg">
<path d="M29.6394 17L24.7114 10.994H22.3794V17H20.2234V1.6H26.6474C29.9254 1.6 31.8834 3.382 31.8834 6.352C31.8834 9.102 30.1894 10.774 27.2194 10.972L32.2354 17H29.6394ZM22.3794 3.58V9.058H26.4714C28.6934 9.058 29.6174 8.222 29.6174 6.352C29.6174 4.438 28.6714 3.58 26.4714 3.58H22.3794ZM44.8806 12.05H36.1246C36.3666 14.184 37.7526 15.438 39.8426 15.438C41.2286 15.438 42.3946 14.888 43.2966 13.788L44.6386 14.976C43.5606 16.472 41.8446 17.308 39.7986 17.308C36.3666 17.308 34.0126 14.91 34.0126 11.456C34.0126 8.046 36.3446 5.538 39.6226 5.538C42.7246 5.538 44.9466 7.782 44.9466 11.06C44.9466 11.39 44.9246 11.72 44.8806 12.05ZM36.1686 10.466H42.8566C42.6806 8.53 41.4486 7.43 39.6226 7.43C37.7526 7.43 36.4986 8.552 36.1686 10.466ZM55.0448 5.846H57.2668L52.7788 17H50.5568L46.0908 5.846H48.2908L51.6788 14.734L55.0448 5.846ZM59.2026 2.26C59.2026 1.468 59.7746 0.873999 60.5886 0.873999C61.4026 0.873999 61.9746 1.468 61.9746 2.26C61.9746 3.052 61.4026 3.646 60.5886 3.646C59.7746 3.646 59.2026 3.052 59.2026 2.26ZM59.5546 17V5.846H61.6226V17H59.5546ZM64.4073 14.954L65.7713 13.788C66.5853 14.91 67.8833 15.482 69.4013 15.482C70.8973 15.482 71.7993 14.866 71.7993 13.92C71.7993 13.194 71.2713 12.71 69.9513 12.424L68.1693 12.028C65.8813 11.478 64.8033 10.488 64.8033 8.904C64.8033 6.902 66.4973 5.538 69.2253 5.538C71.1833 5.538 72.7453 6.242 73.6913 7.408L72.3713 8.662C71.5573 7.804 70.4793 7.386 69.1373 7.386C67.6413 7.386 66.8713 7.936 66.8713 8.838C66.8713 9.52 67.3333 9.916 68.7413 10.246L70.6993 10.686C72.9213 11.192 73.8673 12.182 73.8673 13.766C73.8673 15.944 72.2173 17.308 69.4013 17.308C67.1353 17.308 65.2873 16.384 64.4073 14.954ZM86.8181 12.05H78.0621C78.3041 14.184 79.6901 15.438 81.7801 15.438C83.1661 15.438 84.3321 14.888 85.2341 13.788L86.5761 14.976C85.4981 16.472 83.7821 17.308 81.7361 17.308C78.3041 17.308 75.9501 14.91 75.9501 11.456C75.9501 8.046 78.2821 5.538 81.5601 5.538C84.6621 5.538 86.8841 7.782 86.8841 11.06C86.8841 11.39 86.8621 11.72 86.8181 12.05ZM78.1061 10.466H84.7941C84.6181 8.53 83.3861 7.43 81.5601 7.43C79.6901 7.43 78.4361 8.552 78.1061 10.466ZM12.17 38.44C12.17 41.454 10.256 43.258 6.88998 43.258H2.73198V49H0.575977V33.6H6.88998C10.256 33.6 12.17 35.426 12.17 38.44ZM9.92598 38.44C9.92598 36.438 8.95798 35.58 6.73598 35.58H2.73198V41.278H6.73598C8.95798 41.278 9.92598 40.398 9.92598 38.44ZM21.4947 37.824V39.694C21.1867 39.628 20.8347 39.606 20.4607 39.606C18.3267 39.606 17.1387 40.816 17.1387 43.346V49H15.0707V37.846H17.1387V39.848C17.6667 38.462 18.8987 37.67 20.5047 37.67C20.8787 37.67 21.2087 37.714 21.4947 37.824ZM22.7226 43.434C22.7226 40.222 25.0326 37.538 28.5086 37.538C31.9406 37.538 34.2726 40.222 34.2726 43.434C34.2726 46.668 31.9406 49.308 28.5086 49.308C25.0326 49.308 22.7226 46.668 22.7226 43.434ZM32.1166 43.434C32.1166 41.08 30.6866 39.452 28.5086 39.452C27.4306 39.452 26.5506 39.826 25.8686 40.574C25.2086 41.3 24.8786 42.268 24.8786 43.434C24.8786 44.6 25.2086 45.546 25.8686 46.294C26.5506 47.02 27.4306 47.394 28.5086 47.394C29.5866 47.394 30.4666 47.02 31.1266 46.294C31.7866 45.546 32.1166 44.6 32.1166 43.434ZM37.9287 46.03V39.628H35.7287V37.846H37.9287V34.546H39.9967V37.846H43.4067V39.628H39.9967V45.832C39.9967 46.91 40.5027 47.35 41.7347 47.35C42.2407 47.35 42.8127 47.284 43.4507 47.152V48.89C42.8127 49.088 42.1307 49.176 41.4047 49.176C39.0947 49.176 37.9287 48.12 37.9287 46.03ZM45.1738 43.434C45.1738 40.222 47.4838 37.538 50.9598 37.538C54.3918 37.538 56.7238 40.222 56.7238 43.434C56.7238 46.668 54.3918 49.308 50.9598 49.308C47.4838 49.308 45.1738 46.668 45.1738 43.434ZM54.5678 43.434C54.5678 41.08 53.1378 39.452 50.9598 39.452C49.8818 39.452 49.0018 39.826 48.3198 40.574C47.6598 41.3 47.3298 42.268 47.3298 43.434C47.3298 44.6 47.6598 45.546 48.3198 46.294C49.0018 47.02 49.8818 47.394 50.9598 47.394C52.0378 47.394 52.9178 47.02 53.5778 46.294C54.2378 45.546 54.5678 44.6 54.5678 43.434ZM60.3799 46.03V39.628H58.1799V37.846H60.3799V34.546H62.4479V37.846H65.8579V39.628H62.4479V45.832C62.4479 46.91 62.9539 47.35 64.1859 47.35C64.6919 47.35 65.2639 47.284 65.9019 47.152V48.89C65.2639 49.088 64.5819 49.176 63.8559 49.176C61.5459 49.176 60.3799 48.12 60.3799 46.03ZM76.1118 37.846H78.1798V47.9C78.1798 51.662 76.1778 53.708 72.6578 53.708C70.7438 53.708 69.0498 53.114 67.9938 52.058L69.1158 50.584C70.0178 51.376 71.2718 51.816 72.5698 51.816C74.8578 51.816 76.1118 50.518 76.1118 47.9V46.844C75.4738 48.186 74.0438 48.978 72.2618 48.978C69.7978 48.978 68.3458 47.438 68.3458 44.688V37.846H70.4138V44.182C70.4138 46.206 71.1838 47.064 72.8338 47.064C74.7698 47.064 76.1118 45.876 76.1118 44.094V37.846ZM93.3251 43.434C93.3251 46.866 91.1251 49.308 88.0891 49.308C86.2411 49.308 84.6791 48.428 84.0411 47.02V53.4H81.9731V37.846H84.0411V39.826C84.6791 38.418 86.2411 37.538 88.0891 37.538C91.1251 37.538 93.3251 39.98 93.3251 43.434ZM91.1911 43.434C91.1911 42.268 90.8611 41.3 90.1791 40.574C89.5191 39.826 88.6391 39.452 87.5611 39.452C85.3831 39.452 83.9531 41.08 83.9531 43.434C83.9531 44.6 84.2831 45.546 84.9431 46.294C85.6031 47.02 86.4831 47.394 87.5611 47.394C88.6391 47.394 89.5191 47.02 90.1791 46.294C90.8611 45.546 91.1911 44.6 91.1911 43.434ZM106.466 44.05H97.7096C97.9516 46.184 99.3376 47.438 101.428 47.438C102.814 47.438 103.98 46.888 104.882 45.788L106.224 46.976C105.146 48.472 103.43 49.308 101.384 49.308C97.9516 49.308 95.5976 46.91 95.5976 43.456C95.5976 40.046 97.9296 37.538 101.208 37.538C104.31 37.538 106.532 39.782 106.532 43.06C106.532 43.39 106.51 43.72 106.466 44.05ZM97.7536 42.466H104.442C104.266 40.53 103.034 39.43 101.208 39.43C99.3376 39.43 98.0836 40.552 97.7536 42.466Z" fill="#C46217"/>
</svg>
