<svg width="799" height="231" viewBox="0 0 799 231" fill="none" xmlns="http://www.w3.org/2000/svg">
<path d="M770.072 3C770.072 4.47276 771.266 5.66667 772.738 5.66667C774.211 5.66667 775.405 4.47276 775.405 3C775.405 1.52724 774.211 0.333333 772.738 0.333333C771.266 0.333333 770.072 1.52724 770.072 3ZM798 3H798.5V2.5H798V3ZM798 200V200.5H798.5V200H798ZM3 200V199.5H2.5V200H3ZM3 231L5.88675 226H0.113249L3 231ZM772.738 3.5H798V2.5H772.738V3.5ZM797.5 3V200H798.5V3H797.5ZM798 199.5H3V200.5H798V199.5ZM2.5 200V226.5H3.5V200H2.5Z" fill="black"/>
</svg>
